<?xml version="1.0" encoding="utf-8"?>
<!-- Generator: Adobe Illustrator 18.0.0, SVG Export Plug-In . SVG Version: 6.00 Build 0)  -->
<!DOCTYPE svg PUBLIC "-//W3C//DTD SVG 1.1//EN" "http://www.w3.org/Graphics/SVG/1.1/DTD/svg11.dtd">
<svg version="1.1" id="Layer_1" xmlns="http://www.w3.org/2000/svg" xmlns:xlink="http://www.w3.org/1999/xlink" x="0px" y="0px"
	 viewBox="0 0 432 432" enable-background="new 0 0 432 432" xml:space="preserve">
<g>
	<g id="GEICO">
		<path fill="#3155A4" d="M42.2,207.1c0-17.5,9.9-21.7,26.4-21.7h27.6c20.9,0,23.8,7.5,23.8,19.2v1.9h-18c0-6-3.4-6.7-9.3-6.7h-20
			c-9.3,0-11.7,2.2-11.7,12.5v7.4c0,10.3,2.4,12.5,11.7,12.5h19.6c4.8,0,9.6-0.7,9.6-6.5v-1.7H79.1v-12.4h41.2v17.1
			c0,17.2-8.9,18-29.6,18H68.6c-16.6,0-26.4-4.1-26.4-21.7V207.1z"/>
		<polygon fill="#3155A4" points="124.9,186 190.5,186 190.5,199.9 143.3,199.9 143.3,209.5 188,209.5 188,222 143.3,222 
			143.3,231.6 191.5,231.6 191.5,246 124.9,246 		"/>
		<rect x="197.1" y="186" fill="#3155A4" width="18.4" height="59.9"/>
		<path fill="#3155A4" d="M221,207.1c0-17.5,9.8-21.7,26.4-21.7H269c26.2,0,29.6,5.6,29.4,22.6h-18.4v-1.7c0-4.3-3.1-5.5-8.6-5.5
			h-20c-9.7,0-11.5,4.6-11.5,12v6.5c0,8.7,1.8,12,10.5,12H270c8.3,0,10.8-0.8,10.8-8.3h18.4v5.6c0,10.1-3.6,18-22.1,18h-29.6
			c-16.6,0-26.4-4.1-26.4-21.7V207.1z"/>
		<path fill="#3155A4" d="M302.4,207.1c0-17.5,9.9-21.7,26.4-21.7h29.5c16.6,0,26.4,4.1,26.4,21.7v17.9c0,17.5-9.9,21.7-26.4,21.7
			h-29.5c-16.6,0-26.4-4.1-26.4-21.7V207.1z M321.3,219.2c0,8.7,1.8,12,10.5,12h23.5c8.7,0,10.5-3.3,10.5-12v-6.5
			c0-7.4-1.8-12-11.5-12h-21.5c-9.7,0-11.5,4.6-11.5,12V219.2z"/>
	</g>
	<path fill="#3155A4" d="M385.9,239.5c0-3.3,2.7-5.9,5.9-5.9c3.3,0,5.9,2.7,5.9,5.9c0,3.3-2.6,5.9-5.9,5.9
		C388.5,245.5,385.9,242.8,385.9,239.5z M397,239.5c0-2.9-2.3-5.2-5.2-5.2c-2.9,0-5.2,2.3-5.2,5.2c0,2.9,2.3,5.2,5.2,5.2
		C394.7,244.8,397,242.4,397,239.5z M394.8,242.8h-1l-1.9-3.1h-1.5v3.1h-0.8v-6.6h2.9c0.6,0,1.1,0,1.6,0.3c0.5,0.3,0.7,0.9,0.7,1.4
		c0,1.3-0.9,1.8-2.1,1.8L394.8,242.8z M391.7,239.2c0.9,0,2.4,0.2,2.4-1.2c0-1-0.9-1.1-1.7-1.1h-1.9v2.3H391.7z"/>
</g>
</svg>
