<?xml version="1.0" encoding="utf-8"?>
<!-- Generator: Adobe Illustrator 19.0.1, SVG Export Plug-In . SVG Version: 6.00 Build 0)  -->
<svg version="1.1" id="Layer_1" xmlns="http://www.w3.org/2000/svg" xmlns:xlink="http://www.w3.org/1999/xlink" x="0px" y="0px"
	 width="20px" height="20px" viewBox="0 0 20 20" enable-background="new 0 0 20 20" xml:space="preserve">
<path fill="#999999" d="M2.3,4.5c0-1.3,1-2.3,2.2-2.2s3-0.7,3.9-1.6s2.3-0.9,3.2,0c0.9,0.9,2.6,1.7,3.9,1.6s2.3,1,2.2,2.2
	s0.7,3,1.6,3.9s0.9,2.3,0,3.2c-0.9,0.9-1.7,2.6-1.6,3.9s-1,2.3-2.2,2.2s-3,0.7-3.9,1.6c-0.9,0.9-2.3,0.9-3.2,0s-2.6-1.7-3.9-1.6
	s-2.3-1-2.2-2.2s-0.7-3-1.6-3.9c-0.9-0.9-0.9-2.3,0-3.2S2.3,5.8,2.3,4.5z"/>
<g opacity="0.5">
	<path fill="#FFFFFF" d="M10,4.2c3.2,0,5.8,2.6,5.8,5.8s-2.6,5.8-5.8,5.8S4.2,13.2,4.2,10S6.8,4.2,10,4.2 M10,3c-3.9,0-7,3.1-7,7
		s3.1,7,7,7s7-3.1,7-7S13.9,3,10,3L10,3z"/>
</g>
<g>
	<polygon fill="#FFFFFF" points="9.1,13 6.7,10.6 7.8,9.4 9.1,10.7 12.2,7.6 13.3,8.8 	"/>
</g>
</svg>
