<?xml version="1.0" encoding="utf-8"?>
<!-- Generator: Adobe Illustrator 16.0.0, SVG Export Plug-In . SVG Version: 6.00 Build 0)  -->
<!DOCTYPE svg PUBLIC "-//W3C//DTD SVG 1.1//EN" "http://www.w3.org/Graphics/SVG/1.1/DTD/svg11.dtd">
<svg version="1.1" id="Ebene_1" xmlns="http://www.w3.org/2000/svg" xmlns:xlink="http://www.w3.org/1999/xlink" x="0px" y="0px"
	 width="128px" height="128px" viewBox="0 0 128 128" enable-background="new 0 0 128 128" xml:space="preserve">
<path fill="#5588BB" d="M58.499,87.397c-1.567,2.029-7.851,4.215-9.655,7.344c-1.297,2.244-0.529,5.111,1.717,6.408
	c2.244,1.295,5.111,0.527,6.408-1.719C58.854,96.165,57.46,89.802,58.499,87.397"/>
<path fill="#CCCCCC" d="M80.101,54.726c-3.361-6.187-9.938-10.138-17.017-10.138c-9.836,0-17.807,6.881-19.103,16.219
	c-4.946,1.113-8.653,5.538-8.653,10.815c0,6.113,4.974,11.088,11.088,11.088c2.572,0,4.965-0.836,6.89-2.379
	c3.103,1.988,6.315,2.957,9.778,2.957c3.274,0,5.501-0.52,8.06-1.936c2.178,1.268,4.641,1.936,7.191,1.936
	c7.906,0,14.338-6.43,14.338-14.336C92.673,61.643,87.176,55.599,80.101,54.726"/>
<path fill="#888888" d="M76.087,95.817l-2.355,0.721l-1.516-0.875c0.037-0.164,0.059-0.332,0.059-0.508
	c0-0.172-0.021-0.342-0.059-0.506l1.516-0.875l2.355,0.721c0.064,0.02,0.131,0.027,0.197,0.027c0.285,0,0.551-0.184,0.638-0.473
	c0.108-0.352-0.091-0.727-0.442-0.834l-1.164-0.355l-0.668-1.158l0.273-1.184c0.082-0.361-0.141-0.719-0.502-0.803
	c-0.359-0.084-0.718,0.141-0.802,0.5l-0.553,2.4l-1.519,0.877c-0.248-0.23-0.545-0.408-0.877-0.508v-1.75l1.803-1.682
	c0.27-0.25,0.284-0.674,0.033-0.943c-0.254-0.271-0.676-0.287-0.945-0.033l-0.891,0.83h-1.336l-0.89-0.83
	c-0.27-0.254-0.693-0.238-0.944,0.033c-0.252,0.27-0.238,0.693,0.033,0.943l1.801,1.682v1.75c-0.331,0.1-0.628,0.277-0.875,0.508
	l-1.519-0.877l-0.554-2.4c-0.084-0.359-0.443-0.582-0.803-0.5c-0.359,0.084-0.584,0.441-0.5,0.803l0.273,1.184l-0.667,1.158
	l-1.165,0.355c-0.353,0.107-0.552,0.48-0.443,0.834c0.088,0.289,0.352,0.473,0.639,0.473c0.064,0,0.13-0.008,0.195-0.027
	l2.356-0.721l1.517,0.875c-0.039,0.164-0.059,0.332-0.059,0.506c0,0.176,0.02,0.344,0.059,0.508l-1.517,0.875l-2.356-0.721
	c-0.353-0.105-0.726,0.092-0.834,0.445s0.091,0.727,0.443,0.834l1.165,0.357l0.667,1.156l-0.273,1.184
	c-0.084,0.361,0.141,0.719,0.5,0.803c0.051,0.012,0.101,0.018,0.15,0.018c0.305,0,0.58-0.209,0.652-0.52l0.554-2.398l1.519-0.877
	c0.247,0.23,0.544,0.408,0.875,0.508v1.75l-1.801,1.682c-0.271,0.25-0.285,0.674-0.033,0.943s0.675,0.285,0.944,0.033l0.89-0.83
	h1.336l0.891,0.83c0.129,0.119,0.292,0.18,0.455,0.18c0.18,0,0.357-0.072,0.49-0.213c0.251-0.27,0.236-0.693-0.033-0.943
	l-1.803-1.682v-1.75c0.331-0.1,0.629-0.277,0.877-0.508l1.519,0.877l0.553,2.398c0.072,0.311,0.347,0.52,0.651,0.52
	c0.05,0,0.101-0.006,0.15-0.018c0.361-0.084,0.584-0.441,0.502-0.803l-0.273-1.184l0.668-1.156l1.164-0.357
	c0.352-0.107,0.551-0.48,0.442-0.834S76.44,95.71,76.087,95.817 M70.001,96.358c-0.663,0-1.203-0.539-1.203-1.203
	c0-0.662,0.54-1.203,1.203-1.203c0.664,0,1.203,0.541,1.203,1.203C71.204,95.819,70.665,96.358,70.001,96.358"/>
<path opacity="0.15" d="M48.844,95.741c1.7-2.948,7.373-5.059,9.334-6.99c0.066-0.523,0.163-0.988,0.321-1.354
	c-1.567,2.029-7.851,4.215-9.655,7.344c-0.512,0.885-0.69,1.865-0.596,2.81C48.319,96.931,48.512,96.316,48.844,95.741z"/>
<path opacity="0.15" d="M43.981,61.807c1.296-9.338,9.267-16.219,19.103-16.219c7.079,0,13.655,3.951,17.017,10.138
	c6.905,0.852,12.293,6.634,12.548,13.707c0.006-0.161,0.024-0.318,0.024-0.48c0-7.309-5.497-13.353-12.572-14.226
	c-3.361-6.187-9.938-10.138-17.017-10.138c-9.836,0-17.807,6.881-19.103,16.219c-4.946,1.113-8.653,5.538-8.653,10.815
	c0,0.156,0.017,0.309,0.023,0.463C35.594,67.049,39.205,62.882,43.981,61.807z"/>
<path opacity="0.15" d="M70.669,92.985v1c0.332,0.1,0.629,0.277,0.877,0.508l1.519-0.877l0.553-2.4
	c0.084-0.359,0.442-0.584,0.802-0.5c0.168,0.039,0.302,0.141,0.394,0.272l0.108-0.469c0.082-0.361-0.141-0.719-0.502-0.803
	c-0.359-0.084-0.718,0.141-0.802,0.5l-0.553,2.4l-1.519,0.877C71.298,93.263,71.001,93.085,70.669,92.985z"/>
<path opacity="0.15" d="M65.191,99.324l-0.108,0.47c-0.045,0.193,0.003,0.382,0.108,0.532l0.165-0.715L65.191,99.324z"/>
<polygon fill="#888888" points="67.788,95.649 67.786,95.648 67.787,95.656 "/>
<path opacity="0.15" d="M69.333,99.077l-1.801,1.682c-0.271,0.25-0.285,0.674-0.033,0.943c0.016,0.017,0.036,0.023,0.053,0.038
	l1.781-1.663V99.077z"/>
<polygon fill="#888888" points="72.216,95.649 72.217,95.656 72.218,95.648 "/>
<path opacity="0.15" d="M74.647,92.702l0.668,1.158l1.164,0.355c0.092,0.028,0.172,0.076,0.24,0.136
	c0.091-0.079,0.165-0.178,0.202-0.302c0.108-0.352-0.091-0.727-0.442-0.834l-1.164-0.355l-0.503-0.872L74.647,92.702z"/>
<path opacity="0.15" d="M71.204,96.155c0-0.18-0.045-0.346-0.116-0.5c-0.191,0.413-0.603,0.703-1.087,0.703
	c-0.483,0-0.896-0.29-1.087-0.703c-0.07,0.153-0.116,0.32-0.116,0.5c0,0.664,0.54,1.203,1.203,1.203
	C70.665,97.358,71.204,96.819,71.204,96.155z"/>
<path opacity="0.15" d="M74.812,99.325l-0.165,0.286l0.165,0.714c0.104-0.15,0.152-0.338,0.108-0.531L74.812,99.325z"/>
<path opacity="0.15" d="M70.669,99.077v1l1.782,1.663c0.017-0.015,0.038-0.021,0.054-0.038c0.251-0.27,0.236-0.693-0.033-0.943
	L70.669,99.077z"/>
<path opacity="0.15" d="M63.915,96.817l2.356,0.721l1.517-0.875c-0.039-0.164-0.059-0.332-0.059-0.508
	c0-0.169,0.021-0.332,0.057-0.491l-1.515,0.874l-2.356-0.721c-0.353-0.105-0.726,0.092-0.834,0.445
	c-0.081,0.263,0.01,0.535,0.206,0.702C63.455,96.818,63.686,96.749,63.915,96.817z"/>
<path opacity="0.15" d="M76.087,95.817l-2.355,0.721l-1.514-0.874c0.035,0.16,0.057,0.324,0.057,0.491
	c0,0.176-0.021,0.344-0.059,0.508l1.516,0.875l2.355-0.721c0.23-0.07,0.462,0,0.63,0.147c0.195-0.167,0.285-0.439,0.205-0.702
	C76.813,95.909,76.44,95.71,76.087,95.817z"/>
<path opacity="0.15" d="M65.191,90.987c0.091-0.13,0.225-0.232,0.392-0.271c0.359-0.082,0.719,0.141,0.803,0.5l0.554,2.4
	l1.519,0.877c0.247-0.23,0.544-0.408,0.875-0.508v-1c-0.331,0.1-0.628,0.277-0.875,0.508l-1.519-0.877l-0.554-2.4
	c-0.084-0.359-0.443-0.582-0.803-0.5c-0.359,0.084-0.584,0.441-0.5,0.803L65.191,90.987z"/>
<path opacity="0.15" d="M67.552,89.572c0.255-0.226,0.639-0.233,0.892,0.005l0.89,0.83h1.336l0.891-0.83
	c0.253-0.238,0.636-0.23,0.893-0.005l0.02-0.019c0.27-0.25,0.284-0.674,0.033-0.943c-0.254-0.271-0.676-0.287-0.945-0.033
	l-0.891,0.83h-1.336l-0.89-0.83c-0.27-0.254-0.693-0.238-0.944,0.033c-0.252,0.27-0.238,0.693,0.033,0.943L67.552,89.572z"/>
<path opacity="0.15" d="M63.283,94.352c0.068-0.06,0.148-0.107,0.241-0.136l1.165-0.355l0.667-1.158l-0.165-0.714l-0.502,0.872
	l-1.165,0.355c-0.353,0.107-0.552,0.48-0.443,0.834C63.119,94.174,63.193,94.273,63.283,94.352z"/>
</svg>
