<?xml version="1.0" encoding="utf-8"?>
<!-- Generator: Adobe Illustrator 19.1.0, SVG Export Plug-In . SVG Version: 6.00 Build 0)  -->
<svg version="1.1" xmlns="http://www.w3.org/2000/svg" xmlns:xlink="http://www.w3.org/1999/xlink" x="0px" y="0px" width="172px"
	 height="34px" viewBox="0 0 172 34" style="enable-background:new 0 0 172 34;" xml:space="preserve">
<style type="text/css">
	.st0{display:none;}
	.st1{display:inline;}
	.st2{fill:#FFFFFF;}
</style>
<g id="Layer_1" class="st0">
	<g id="rYGXVi_1_" class="st1">
		
			<image style="overflow:visible;" width="300" height="250" id="rYGXVi" xlink:href="1625E54107F20EAF.jpg"  transform="matrix(1 0 0 1 -11.5 -99.1201)">
		</image>
	</g>
</g>
<g id="Layer_2">
	<g>
		<path class="st2" d="M19.4,27.4c-6,0-8.4-4.4-8.4-11.4c0-7,2.4-11.4,8.4-11.4S27.8,9,27.8,16C27.8,23,25.5,27.4,19.4,27.4z
			 M19.4,23.6c2.8,0,3.7-2.5,3.7-7.6c0-5.1-0.9-7.6-3.7-7.6c-2.8,0-3.8,2.5-3.8,7.6C15.6,21.1,16.6,23.6,19.4,23.6z"/>
	</g>
	<g>
		<path class="st2" d="M1.6,15.2c0.6,0.4,1.8,0.8,2.8,1V13l-0.5-0.2C2,12.2,1.1,11.1,1.1,9.6c0-1.8,1.1-3.2,3.3-3.5V4.8h1.5v1.3
			c0.9,0.1,2,0.4,2.8,0.8L8,8.8C7.4,8.5,6.6,8.2,5.9,8.1v3c2.2,0.7,3.2,1.6,3.2,3.4c0,1.9-1.2,3.2-3.2,3.6v1.7H4.4v-1.6
			C3.1,18,1.7,17.5,0.9,17L1.6,15.2z M4.4,10.8V8C3.6,8.3,3.3,8.7,3.3,9.4C3.3,10,3.5,10.5,4.4,10.8z M5.9,13.4v2.8
			c0.7-0.3,1.1-0.7,1.1-1.5C6.9,14.1,6.6,13.7,5.9,13.4z"/>
	</g>
	<g>
		<path class="st2" d="M37.7,13.3v5.6h-0.8l-0.2-0.3h0c-0.3,0.2-0.6,0.5-1.2,0.5c-1.1,0-1.7-0.9-1.7-2c0-1.1,0.6-2,1.7-2
			c0.5,0,0.9,0.2,1.1,0.4h0v-2H37.7z M36.6,16c-0.2-0.1-0.5-0.2-0.8-0.2c-0.6,0-0.9,0.5-0.9,1.2c0,0.7,0.3,1.2,0.9,1.2
			c0.3,0,0.6-0.1,0.8-0.2V16z"/>
		<path class="st2" d="M39.7,15v2.3c0,0.5,0.2,0.8,0.7,0.8c0.4,0,0.6-0.2,0.8-0.3V15h1.1v3.9h-0.9l-0.1-0.4h0C41,18.7,40.6,19,40,19
			c-0.9,0-1.4-0.6-1.4-1.5V15H39.7z"/>
		<path class="st2" d="M44.1,17.3c0,0.5,0.4,0.9,1,0.9c0.4,0,0.9-0.1,1.2-0.2l0.2,0.8C46.2,18.9,45.6,19,45,19c-1.3,0-2-0.9-2-2.1
			c0-1.1,0.7-2,1.9-2c1.2,0,1.8,0.8,1.8,1.7c0,0.2,0,0.6-0.1,0.7H44.1z M45.8,16.6c0,0,0-0.1,0-0.1c0-0.4-0.2-0.8-0.8-0.8
			c-0.5,0-0.8,0.4-0.8,0.9H45.8z"/>
		<path class="st2" d="M52.3,18c0,0.1,0,0.1,0.1,0.1h0.3v0.7c-0.2,0-0.3,0.1-0.6,0.1c-0.4,0-0.6-0.2-0.8-0.5h0
			c-0.3,0.2-0.8,0.5-1.2,0.5c-0.9,0-1.3-0.5-1.3-1.2c0-0.9,0.5-1.3,1.9-1.3h0.5v-0.2c0-0.5-0.4-0.6-0.7-0.6c-0.4,0-0.9,0.1-1.3,0.3
			l-0.3-0.8c0.4-0.2,1-0.3,1.6-0.3c1.1,0,1.7,0.6,1.7,1.6V18z M50.8,17.2c-0.7,0-1,0.2-1,0.5c0,0.3,0.2,0.5,0.5,0.5
			c0.3,0,0.7-0.1,0.9-0.3v-0.7H50.8z"/>
		<path class="st2" d="M54.7,14.1V15h1.1v0.8h-1.1v1.8c0,0.3,0.1,0.4,0.5,0.4c0.2,0,0.4-0.1,0.6-0.1v0.9c-0.2,0-0.5,0.1-0.9,0.1
			c-0.9,0-1.3-0.4-1.3-1.1v-2h-0.7v-0.6l0.7-0.2v-0.9H54.7z"/>
		<path class="st2" d="M34.1,25.9c0.4,0.2,0.8,0.3,1.2,0.3s0.6-0.1,0.6-0.4c0-0.2-0.2-0.3-0.5-0.4l-0.5-0.1c-0.5-0.1-1-0.4-1-1.1
			c0-0.8,0.6-1.2,1.6-1.2c0.6,0,1,0.1,1.4,0.3L36.6,24c-0.3-0.1-0.7-0.2-1.1-0.2c-0.4,0-0.6,0.1-0.6,0.4c0,0.2,0.2,0.3,0.5,0.4
			l0.5,0.1c0.6,0.2,1.1,0.5,1.1,1.2c0,0.8-0.6,1.3-1.6,1.3c-0.7,0-1.1-0.1-1.6-0.4L34.1,25.9z"/>
		<path class="st2" d="M38.3,21.2c0.4,0,0.6,0.2,0.6,0.6s-0.2,0.6-0.6,0.6c-0.4,0-0.6-0.2-0.6-0.6S37.9,21.2,38.3,21.2z M37.7,26.9
			V23h1.1v3.9H37.7z"/>
		<path class="st2" d="M43.4,26.6c0,1.3-0.7,2-2,2c-0.6,0-1.1-0.2-1.5-0.4l0.3-0.8c0.3,0.2,0.7,0.3,1.2,0.3c0.6,0,0.9-0.2,0.9-0.9
			v-0.3h0c-0.2,0.2-0.6,0.4-1.1,0.4c-1.1,0-1.7-0.9-1.7-2c0-1.1,0.6-2,1.7-2c0.6,0,0.9,0.3,1.2,0.5h0l0.1-0.4h0.8V26.6z M42.3,24
			c-0.2-0.1-0.5-0.2-0.8-0.2c-0.6,0-0.9,0.4-0.9,1.1c0,0.7,0.3,1.1,0.9,1.1c0.3,0,0.6-0.1,0.8-0.2V24z"/>
		<path class="st2" d="M45.3,23l0.1,0.4h0c0.2-0.2,0.6-0.5,1.2-0.5c0.9,0,1.4,0.6,1.4,1.5v2.4H47v-2.3c0-0.5-0.2-0.8-0.7-0.8
			c-0.4,0-0.7,0.2-0.8,0.3v2.8h-1.1V23H45.3z"/>
		<path class="st2" d="M49.5,21.2c0.4,0,0.6,0.2,0.6,0.6s-0.2,0.6-0.6,0.6c-0.4,0-0.6-0.2-0.6-0.6S49.2,21.2,49.5,21.2z M49,26.9V23
			h1.1v3.9H49z"/>
		<path class="st2" d="M51.9,23l0.1,0.4h0c0.2-0.2,0.6-0.5,1.2-0.5c0.9,0,1.4,0.6,1.4,1.5v2.4h-1.1v-2.3c0-0.5-0.2-0.8-0.7-0.8
			c-0.4,0-0.7,0.2-0.8,0.3v2.8H51V23H51.9z"/>
		<path class="st2" d="M59.3,26.6c0,1.3-0.7,2-2,2c-0.6,0-1.1-0.2-1.5-0.4l0.3-0.8c0.3,0.2,0.7,0.3,1.2,0.3c0.6,0,0.9-0.2,0.9-0.9
			v-0.3h0c-0.2,0.2-0.6,0.4-1.1,0.4c-1.1,0-1.7-0.9-1.7-2c0-1.1,0.6-2,1.7-2c0.6,0,0.9,0.3,1.2,0.5h0l0.1-0.4h0.8V26.6z M58.3,24
			c-0.2-0.1-0.5-0.2-0.8-0.2c-0.6,0-0.9,0.4-0.9,1.1c0,0.7,0.3,1.1,0.9,1.1c0.3,0,0.6-0.1,0.8-0.2V24z"/>
	</g>
	<g>
		<path class="st2" d="M65.7,13.3v5.6h-0.8l-0.2-0.3h0c-0.3,0.2-0.6,0.5-1.2,0.5c-1.1,0-1.7-0.9-1.7-2c0-1.1,0.6-2,1.7-2
			c0.5,0,0.9,0.2,1.1,0.4h0v-2H65.7z M64.6,16c-0.2-0.1-0.5-0.2-0.8-0.2c-0.6,0-0.9,0.5-0.9,1.2c0,0.7,0.3,1.2,0.9,1.2
			c0.3,0,0.6-0.1,0.8-0.2V16z"/>
		<path class="st2" d="M68.5,19c-1.3,0-2-0.9-2-2c0-1.1,0.7-2,2-2c1.3,0,2,0.9,2,2C70.5,18.1,69.8,19,68.5,19z M68.5,18.1
			c0.6,0,0.9-0.4,0.9-1.2c0-0.8-0.4-1.2-0.9-1.2c-0.6,0-0.9,0.4-0.9,1.2C67.6,17.7,67.9,18.1,68.5,18.1z"/>
		<path class="st2" d="M77.3,15.1l-1.2,3.8h-1.2l-0.9-2.8h0l-0.9,2.8H72l-1.2-3.8V15h1.1l0.7,2.7h0l0.8-2.7h1.2l0.8,2.7h0l0.7-2.7
			L77.3,15.1L77.3,15.1z"/>
		<path class="st2" d="M78.7,15l0.1,0.4h0c0.2-0.2,0.6-0.5,1.2-0.5c0.9,0,1.4,0.6,1.4,1.5v2.4h-1.1v-2.3c0-0.5-0.2-0.8-0.7-0.8
			c-0.4,0-0.7,0.2-0.8,0.3v2.8h-1.1V15H78.7z"/>
		<path class="st2" d="M62.8,23l0.2,0.3h0c0.3-0.2,0.7-0.5,1.2-0.5c1.1,0,1.7,0.9,1.7,2c0,1.1-0.6,2-1.7,2c-0.5,0-0.8-0.2-1.1-0.4h0
			v1.9H62V23H62.8z M63.1,25.9c0.2,0.1,0.5,0.2,0.8,0.2c0.6,0,0.9-0.5,0.9-1.2c0-0.7-0.3-1.2-0.9-1.2c-0.3,0-0.6,0.1-0.8,0.2V25.9z"
			/>
		<path class="st2" d="M69.9,26c0,0.1,0,0.1,0.1,0.1h0.3v0.7C70.1,27,70,27,69.7,27c-0.4,0-0.6-0.2-0.8-0.5h0
			c-0.3,0.2-0.8,0.5-1.2,0.5c-0.9,0-1.3-0.5-1.3-1.2c0-0.9,0.5-1.3,1.9-1.3h0.5v-0.2c0-0.5-0.4-0.6-0.7-0.6c-0.4,0-0.9,0.1-1.3,0.3
			l-0.3-0.8c0.4-0.2,1-0.3,1.6-0.3c1.1,0,1.7,0.6,1.7,1.6V26z M68.4,25.2c-0.7,0-1,0.2-1,0.5c0,0.3,0.2,0.5,0.5,0.5
			c0.3,0,0.7-0.1,0.9-0.3v-0.7H68.4z"/>
		<path class="st2" d="M74.4,23.1l-1.7,4.2c-0.3,0.9-0.9,1.2-1.5,1.2c-0.3,0-0.4,0-0.6-0.1v-0.9c0.2,0,0.4,0,0.5,0
			c0.3,0,0.5-0.1,0.7-0.4l0.2-0.4l-1.6-3.7V23h1.1l0.9,2.6h0l0.9-2.6L74.4,23.1L74.4,23.1z"/>
		<path class="st2" d="M75.8,23l0.1,0.4h0c0.2-0.2,0.6-0.5,1.2-0.5c0.6,0,0.9,0.2,1.2,0.6h0c0.2-0.2,0.6-0.6,1.4-0.6
			c0.9,0,1.4,0.6,1.4,1.5v2.4h-1.1v-2.3c0-0.5-0.2-0.8-0.7-0.8c-0.4,0-0.7,0.2-0.9,0.4c0,0.1,0,0.2,0,0.3v2.4h-1.1v-2.3
			c0-0.5-0.2-0.8-0.7-0.8c-0.4,0-0.7,0.2-0.8,0.3v2.8H75V23H75.8z"/>
		<path class="st2" d="M83.1,25.3c0,0.5,0.4,0.9,1,0.9c0.4,0,0.9-0.1,1.2-0.2l0.2,0.8C85.2,26.9,84.6,27,84,27c-1.3,0-2-0.9-2-2.1
			c0-1.1,0.7-2,1.9-2c1.2,0,1.8,0.8,1.8,1.7c0,0.2,0,0.6-0.1,0.7H83.1z M84.7,24.6c0,0,0-0.1,0-0.1c0-0.4-0.2-0.8-0.8-0.8
			c-0.5,0-0.8,0.4-0.8,0.9H84.7z"/>
		<path class="st2" d="M87.4,23l0.1,0.4h0c0.2-0.2,0.6-0.5,1.2-0.5c0.9,0,1.4,0.6,1.4,1.5v2.4h-1.1v-2.3c0-0.5-0.2-0.8-0.7-0.8
			c-0.4,0-0.7,0.2-0.8,0.3v2.8h-1.1V23H87.4z"/>
		<path class="st2" d="M92.5,22.1V23h1.1v0.8h-1.1v1.8c0,0.3,0.1,0.4,0.5,0.4c0.2,0,0.4-0.1,0.6-0.1v0.9c-0.2,0-0.5,0.1-0.9,0.1
			c-0.9,0-1.3-0.4-1.3-1.1v-2h-0.7v-0.6l0.7-0.2v-0.9H92.5z"/>
	</g>
	<g>
		<path class="st2" d="M96.1,17.9c0.4,0.2,0.8,0.3,1.2,0.3s0.6-0.1,0.6-0.4c0-0.2-0.2-0.3-0.5-0.4l-0.5-0.1c-0.5-0.1-1-0.4-1-1.1
			c0-0.8,0.6-1.2,1.6-1.2c0.6,0,1,0.1,1.4,0.3L98.6,16c-0.3-0.1-0.7-0.2-1.1-0.2c-0.4,0-0.6,0.1-0.6,0.4c0,0.2,0.2,0.3,0.5,0.4
			l0.5,0.1c0.6,0.2,1.1,0.5,1.1,1.2c0,0.8-0.6,1.3-1.6,1.3c-0.7,0-1.1-0.1-1.6-0.4L96.1,17.9z"/>
		<path class="st2" d="M100.6,17.3c0,0.5,0.4,0.9,1,0.9c0.4,0,0.9-0.1,1.2-0.2l0.2,0.8c-0.4,0.2-0.9,0.3-1.6,0.3c-1.3,0-2-0.9-2-2.1
			c0-1.1,0.7-2,1.9-2c1.2,0,1.8,0.8,1.8,1.7c0,0.2,0,0.6-0.1,0.7H100.6z M102.2,16.6c0,0,0-0.1,0-0.1c0-0.4-0.2-0.8-0.8-0.8
			c-0.5,0-0.8,0.4-0.8,0.9H102.2z"/>
		<path class="st2" d="M105.9,14.9c0.5,0,0.9,0.1,1.2,0.2l-0.2,0.8c-0.2-0.1-0.5-0.2-0.9-0.2c-0.6,0-1.1,0.3-1.1,1.2
			c0,0.8,0.5,1.2,1.1,1.2c0.3,0,0.6-0.1,0.9-0.2l0.2,0.8c-0.3,0.1-0.7,0.2-1.2,0.2c-1.3,0-2-0.8-2-2
			C103.8,15.7,104.5,14.9,105.9,14.9z"/>
		<path class="st2" d="M108.8,15v2.3c0,0.5,0.2,0.8,0.7,0.8c0.4,0,0.6-0.2,0.8-0.3V15h1.1v3.9h-0.9l-0.1-0.4h0
			c-0.2,0.2-0.6,0.5-1.2,0.5c-0.9,0-1.4-0.6-1.4-1.5V15H108.8z"/>
		<path class="st2" d="M113.2,15l0.2,0.5h0c0.1-0.2,0.5-0.6,1-0.6c0.1,0,0.3,0,0.4,0l-0.1,0.9c-0.1,0-0.3,0-0.4,0
			c-0.4,0-0.7,0.2-0.8,0.4v2.7h-1.1V15H113.2z"/>
		<path class="st2" d="M115.8,13.2c0.4,0,0.6,0.2,0.6,0.6s-0.2,0.6-0.6,0.6c-0.4,0-0.6-0.2-0.6-0.6S115.4,13.2,115.8,13.2z
			 M115.3,18.9V15h1.1v3.9H115.3z"/>
		<path class="st2" d="M118.7,14.1V15h1.1v0.8h-1.1v1.8c0,0.3,0.1,0.4,0.5,0.4c0.2,0,0.4-0.1,0.6-0.1v0.9c-0.2,0-0.5,0.1-0.9,0.1
			c-0.9,0-1.3-0.4-1.3-1.1v-2h-0.7v-0.6l0.7-0.2v-0.9H118.7z"/>
		<path class="st2" d="M124.3,15.1l-1.7,4.2c-0.3,0.9-0.9,1.2-1.5,1.2c-0.3,0-0.4,0-0.6-0.1v-0.9c0.2,0,0.4,0,0.5,0
			c0.3,0,0.5-0.1,0.7-0.4l0.2-0.4l-1.6-3.7V15h1.1l0.9,2.6h0l0.9-2.6L124.3,15.1L124.3,15.1z"/>
		<path class="st2" d="M99.7,21.3v5.6h-0.8l-0.2-0.3h0c-0.3,0.2-0.6,0.5-1.2,0.5c-1.1,0-1.7-0.9-1.7-2c0-1.1,0.6-2,1.7-2
			c0.5,0,0.9,0.2,1.1,0.4h0v-2H99.7z M98.6,24c-0.2-0.1-0.5-0.2-0.8-0.2c-0.6,0-0.9,0.5-0.9,1.2c0,0.7,0.3,1.2,0.9,1.2
			c0.3,0,0.6-0.1,0.8-0.2V24z"/>
		<path class="st2" d="M101.6,25.3c0,0.5,0.4,0.9,1,0.9c0.4,0,0.9-0.1,1.2-0.2l0.2,0.8c-0.4,0.2-0.9,0.3-1.6,0.3c-1.3,0-2-0.9-2-2.1
			c0-1.1,0.7-2,1.9-2c1.2,0,1.8,0.8,1.8,1.7c0,0.2,0,0.6-0.1,0.7H101.6z M103.2,24.6c0,0,0-0.1,0-0.1c0-0.4-0.2-0.8-0.8-0.8
			c-0.5,0-0.8,0.4-0.8,0.9H103.2z"/>
		<path class="st2" d="M105.8,23l0.2,0.3h0c0.3-0.2,0.7-0.5,1.2-0.5c1.1,0,1.7,0.9,1.7,2c0,1.1-0.6,2-1.7,2c-0.5,0-0.8-0.2-1.1-0.4
			h0v1.9H105V23H105.8z M106,25.9c0.2,0.1,0.5,0.2,0.8,0.2c0.6,0,0.9-0.5,0.9-1.2c0-0.7-0.3-1.2-0.9-1.2c-0.3,0-0.6,0.1-0.8,0.2
			V25.9z"/>
		<path class="st2" d="M111.5,27c-1.3,0-2-0.9-2-2c0-1.1,0.7-2,2-2c1.3,0,2,0.9,2,2C113.5,26.1,112.8,27,111.5,27z M111.5,26.1
			c0.6,0,0.9-0.4,0.9-1.2c0-0.8-0.4-1.2-0.9-1.2c-0.6,0-0.9,0.4-0.9,1.2C110.5,25.7,110.9,26.1,111.5,26.1z"/>
		<path class="st2" d="M114.3,25.9c0.4,0.2,0.8,0.3,1.2,0.3s0.6-0.1,0.6-0.4c0-0.2-0.2-0.3-0.5-0.4l-0.5-0.1c-0.5-0.1-1-0.4-1-1.1
			c0-0.8,0.6-1.2,1.6-1.2c0.6,0,1,0.1,1.4,0.3l-0.3,0.8c-0.3-0.1-0.7-0.2-1.1-0.2c-0.4,0-0.6,0.1-0.6,0.4c0,0.2,0.2,0.3,0.5,0.4
			l0.5,0.1c0.6,0.2,1.1,0.5,1.1,1.2c0,0.8-0.6,1.3-1.6,1.3c-0.7,0-1.1-0.1-1.6-0.4L114.3,25.9z"/>
		<path class="st2" d="M118.5,21.2c0.4,0,0.6,0.2,0.6,0.6s-0.2,0.6-0.6,0.6c-0.4,0-0.6-0.2-0.6-0.6S118.1,21.2,118.5,21.2z
			 M117.9,26.9V23h1.1v3.9H117.9z"/>
		<path class="st2" d="M121.4,22.1V23h1.1v0.8h-1.1v1.8c0,0.3,0.1,0.4,0.5,0.4c0.2,0,0.4-0.1,0.6-0.1v0.9c-0.2,0-0.5,0.1-0.9,0.1
			c-0.9,0-1.3-0.4-1.3-1.1v-2h-0.7v-0.6l0.7-0.2v-0.9H121.4z"/>
	</g>
	<g>
		<path class="st2" d="M127.3,18.9v-3h-0.7v-0.6l0.7-0.2v-0.5c0-0.9,0.5-1.3,1.3-1.3c0.2,0,0.5,0,0.7,0.1v0.9
			c-0.2,0-0.4-0.1-0.5-0.1c-0.3,0-0.4,0.1-0.4,0.4V15h1v0.8h-1v3H127.3z"/>
		<path class="st2" d="M130.5,13.2c0.4,0,0.6,0.2,0.6,0.6s-0.2,0.6-0.6,0.6c-0.4,0-0.6-0.2-0.6-0.6S130.1,13.2,130.5,13.2z
			 M129.9,18.9V15h1.1v3.9H129.9z"/>
		<path class="st2" d="M132.8,15l0.2,0.5h0c0.1-0.2,0.5-0.6,1-0.6c0.1,0,0.3,0,0.4,0l-0.1,0.9c-0.1,0-0.3,0-0.4,0
			c-0.4,0-0.7,0.2-0.8,0.4v2.7h-1.1V15H132.8z"/>
		<path class="st2" d="M134.9,17.9c0.4,0.2,0.8,0.3,1.2,0.3s0.6-0.1,0.6-0.4c0-0.2-0.2-0.3-0.5-0.4l-0.5-0.1c-0.5-0.1-1-0.4-1-1.1
			c0-0.8,0.6-1.2,1.6-1.2c0.6,0,1,0.1,1.4,0.3l-0.3,0.8c-0.3-0.1-0.7-0.2-1.1-0.2c-0.4,0-0.6,0.1-0.6,0.4c0,0.2,0.2,0.3,0.5,0.4
			l0.5,0.1c0.6,0.2,1.1,0.5,1.1,1.2c0,0.8-0.6,1.3-1.6,1.3c-0.7,0-1.1-0.1-1.6-0.4L134.9,17.9z"/>
		<path class="st2" d="M139.9,14.1V15h1.1v0.8h-1.1v1.8c0,0.3,0.1,0.4,0.5,0.4c0.2,0,0.4-0.1,0.6-0.1v0.9c-0.2,0-0.5,0.1-0.9,0.1
			c-0.9,0-1.3-0.4-1.3-1.1v-2h-0.7v-0.6l0.7-0.2v-0.9H139.9z"/>
		<path class="st2" d="M144,15l0.1,0.4h0c0.2-0.2,0.6-0.5,1.2-0.5c0.6,0,0.9,0.2,1.2,0.6h0c0.2-0.2,0.6-0.6,1.4-0.6
			c0.9,0,1.4,0.6,1.4,1.5v2.4h-1.1v-2.3c0-0.5-0.2-0.8-0.7-0.8c-0.4,0-0.7,0.2-0.9,0.4c0,0.1,0,0.2,0,0.3v2.4h-1.1v-2.3
			c0-0.5-0.2-0.8-0.7-0.8c-0.4,0-0.7,0.2-0.8,0.3v2.8h-1.1V15H144z"/>
		<path class="st2" d="M152.1,19c-1.3,0-2-0.9-2-2c0-1.1,0.7-2,2-2c1.3,0,2,0.9,2,2C154.1,18.1,153.5,19,152.1,19z M152.1,18.1
			c0.6,0,0.9-0.4,0.9-1.2c0-0.8-0.4-1.2-0.9-1.2c-0.6,0-0.9,0.4-0.9,1.2C151.2,17.7,151.6,18.1,152.1,18.1z"/>
		<path class="st2" d="M155.7,15l0.1,0.4h0c0.2-0.2,0.6-0.5,1.2-0.5c0.9,0,1.4,0.6,1.4,1.5v2.4h-1.1v-2.3c0-0.5-0.2-0.8-0.7-0.8
			c-0.4,0-0.7,0.2-0.8,0.3v2.8h-1.1V15H155.7z"/>
		<path class="st2" d="M160.8,14.1V15h1.1v0.8h-1.1v1.8c0,0.3,0.1,0.4,0.5,0.4c0.2,0,0.4-0.1,0.6-0.1v0.9c-0.2,0-0.5,0.1-0.9,0.1
			c-0.9,0-1.3-0.4-1.3-1.1v-2H159v-0.6l0.7-0.2v-0.9H160.8z"/>
		<path class="st2" d="M165.1,18.9v-2.3c0-0.5-0.2-0.8-0.7-0.8c-0.4,0-0.7,0.2-0.8,0.4v2.7h-1.1v-5.6h1.1v2.1h0
			c0.2-0.2,0.6-0.4,1.2-0.4c0.9,0,1.4,0.6,1.4,1.6v2.4H165.1z"/>
		<path class="st2" d="M166.9,15.8l0.5-2.3h1.1v0.1l-0.8,2.3L166.9,15.8L166.9,15.8z"/>
		<path class="st2" d="M169,17.9c0.4,0.2,0.8,0.3,1.2,0.3s0.6-0.1,0.6-0.4c0-0.2-0.2-0.3-0.5-0.4l-0.5-0.1c-0.5-0.1-1-0.4-1-1.1
			c0-0.8,0.6-1.2,1.6-1.2c0.6,0,1,0.1,1.4,0.3l-0.3,0.8c-0.3-0.1-0.7-0.2-1.1-0.2c-0.4,0-0.6,0.1-0.6,0.4c0,0.2,0.2,0.3,0.5,0.4
			l0.5,0.1c0.6,0.2,1.1,0.5,1.1,1.2c0,0.8-0.6,1.3-1.6,1.3c-0.7,0-1.1-0.1-1.6-0.4L169,17.9z"/>
		<path class="st2" d="M127.8,23l0.2,0.3h0c0.3-0.2,0.7-0.5,1.2-0.5c1.1,0,1.7,0.9,1.7,2c0,1.1-0.6,2-1.7,2c-0.5,0-0.8-0.2-1.1-0.4
			h0v1.9H127V23H127.8z M128.1,25.9c0.2,0.1,0.5,0.2,0.8,0.2c0.6,0,0.9-0.5,0.9-1.2c0-0.7-0.3-1.2-0.9-1.2c-0.3,0-0.6,0.1-0.8,0.2
			V25.9z"/>
		<path class="st2" d="M134.9,26c0,0.1,0,0.1,0.1,0.1h0.3v0.7c-0.2,0-0.3,0.1-0.6,0.1c-0.4,0-0.6-0.2-0.8-0.5h0
			c-0.3,0.2-0.8,0.5-1.2,0.5c-0.9,0-1.3-0.5-1.3-1.2c0-0.9,0.5-1.3,1.9-1.3h0.5v-0.2c0-0.5-0.4-0.6-0.7-0.6c-0.4,0-0.9,0.1-1.3,0.3
			l-0.3-0.8c0.4-0.2,1-0.3,1.6-0.3c1.1,0,1.7,0.6,1.7,1.6V26z M133.4,25.2c-0.7,0-1,0.2-1,0.5c0,0.3,0.2,0.5,0.5,0.5
			c0.3,0,0.7-0.1,0.9-0.3v-0.7H133.4z"/>
		<path class="st2" d="M139.4,23.1l-1.7,4.2c-0.3,0.9-0.9,1.2-1.5,1.2c-0.3,0-0.4,0-0.6-0.1v-0.9c0.2,0,0.4,0,0.5,0
			c0.3,0,0.5-0.1,0.7-0.4l0.2-0.4l-1.6-3.7V23h1.1l0.9,2.6h0l0.9-2.6L139.4,23.1L139.4,23.1z"/>
		<path class="st2" d="M140.8,23l0.1,0.4h0c0.2-0.2,0.6-0.5,1.2-0.5c0.6,0,0.9,0.2,1.2,0.6h0c0.2-0.2,0.6-0.6,1.4-0.6
			c0.9,0,1.4,0.6,1.4,1.5v2.4h-1.1v-2.3c0-0.5-0.2-0.8-0.7-0.8c-0.4,0-0.7,0.2-0.9,0.4c0,0.1,0,0.2,0,0.3v2.4h-1.1v-2.3
			c0-0.5-0.2-0.8-0.7-0.8c-0.4,0-0.7,0.2-0.8,0.3v2.8H140V23H140.8z"/>
		<path class="st2" d="M148.1,25.3c0,0.5,0.4,0.9,1,0.9c0.4,0,0.9-0.1,1.2-0.2l0.2,0.8c-0.4,0.2-0.9,0.3-1.6,0.3c-1.3,0-2-0.9-2-2.1
			c0-1.1,0.7-2,1.9-2c1.2,0,1.8,0.8,1.8,1.7c0,0.2,0,0.6-0.1,0.7H148.1z M149.7,24.6c0,0,0-0.1,0-0.1c0-0.4-0.2-0.8-0.8-0.8
			c-0.5,0-0.8,0.4-0.8,0.9H149.7z"/>
		<path class="st2" d="M152.4,23l0.1,0.4h0c0.2-0.2,0.6-0.5,1.2-0.5c0.9,0,1.4,0.6,1.4,1.5v2.4h-1.1v-2.3c0-0.5-0.2-0.8-0.7-0.8
			c-0.4,0-0.7,0.2-0.8,0.3v2.8h-1.1V23H152.4z"/>
		<path class="st2" d="M157.5,22.1V23h1.1v0.8h-1.1v1.8c0,0.3,0.1,0.4,0.5,0.4c0.2,0,0.4-0.1,0.6-0.1v0.9c-0.2,0-0.5,0.1-0.9,0.1
			c-0.9,0-1.3-0.4-1.3-1.1v-2h-0.7v-0.6l0.7-0.2v-0.9H157.5z"/>
	</g>
	<g>
	</g>
	<g>
	</g>
	<g>
	</g>
	<g>
	</g>
	<g>
	</g>
	<g>
	</g>
	<g>
	</g>
	<g>
	</g>
	<g>
	</g>
	<g>
	</g>
	<g>
	</g>
	<g>
	</g>
	<g>
	</g>
	<g>
	</g>
	<g>
	</g>
</g>
</svg>
