<?xml version="1.0" encoding="utf-8"?>
<!-- Generator: Adobe Illustrator 18.0.0, SVG Export Plug-In . SVG Version: 6.00 Build 0)  -->
<!DOCTYPE svg PUBLIC "-//W3C//DTD SVG 1.1//EN" "http://www.w3.org/Graphics/SVG/1.1/DTD/svg11.dtd">
<svg version="1.1" id="Layer_1" xmlns="http://www.w3.org/2000/svg" xmlns:xlink="http://www.w3.org/1999/xlink" x="0px" y="0px"
	 viewBox="272.1 376.1 67.8 40" enable-background="new 272.1 376.1 67.8 40" xml:space="preserve">
<path id="html-code-icon_3_" fill="none" d="M310.3,376.4c2.2-0.1,4.3-0.2,6.5-0.3l0.4,0l-0.1,0.4c-1.1,3.3-2.2,6.5-3.4,9.8
	l-3.5,9.8l-3.6,9.7l-3.6,9.7l-0.2,0.6h-0.7l-6.5,0h-1.4l0.5-1.3c1.2-3.2,2.5-6.4,3.8-9.7c1.3-3.2,2.5-6.4,3.8-9.6l2-4.8
	c0.7-1.6,1.3-3.2,2-4.8C307.6,382.7,308.9,379.5,310.3,376.4z M310.3,376.4c-1.1,3.3-2.2,6.6-3.3,9.8c-0.5,1.6-1.1,3.3-1.7,4.9
	l-1.7,4.9c-1.2,3.2-2.3,6.5-3.5,9.7c-1,2.8-2.1,5.6-3.1,8.4c-0.2,0.4,4.4,0,4.4,0l3.5-9.1l3.8-9.6l3.9-9.6c1.2-3.1,2.5-6.1,3.8-9.2
	C316.5,376.5,312.5,376.5,310.3,376.4z M339.7,398.4c-3.1,2-6.2,3.9-9.3,5.8c-3.1,1.9-6.3,3.8-9.4,5.6l-1.1,0.6l0-1.3
	c-0.1-2.2-0.1-4.4-0.1-6.7V402l0.4-0.3l5.5-3.2l4.1-2.3c0,0-5.9-3.3-9.6-5.4l-0.5-0.3V390l0.1-6.7l0-1.4l1.2,0.7l4.7,2.8l4.7,2.8
	c1.6,1,3.1,1.9,4.7,2.8l4.7,2.9l0.1,0.1v0.1C339.9,395.5,339.8,397,339.7,398.4z M339.7,398.4c-0.1-1.4-0.2-2.8-0.2-4.2
	c0,0-4.8-2.4-4.8-2.4c-1.6-0.8-3.2-1.7-4.9-2.5l-4.8-2.6l-3.6-1.9l0.1,4.7c0,0,7,3.8,10.7,5.9l1.5,0.8l-1.5,0.8l-5.6,3.1l-5.2,2.8
	c0,0,0,3.1-0.1,4.9c0,0.4,5.3-2.8,8.6-4.5C333.2,401.7,336.4,400,339.7,398.4z M272.3,394.1c3.1-2,6.2-3.9,9.3-5.8
	c3.1-1.9,6.3-3.8,9.4-5.6l1.1-0.6l0,1.3c0.1,2.2,0.1,4.5,0.1,6.7v0.5l-0.4,0.3l-5.5,3.2l-4.1,2.3c0,0,5.9,3.4,9.6,5.5l0.5,0.3v0.5
	l-0.1,6.7l0,1.4l-1.2-0.7l-4.7-2.8l-4.7-2.8c-1.6-1-3.1-1.9-4.7-2.8l-4.7-2.9l-0.1-0.1v-0.1C272.1,397,272.2,395.5,272.3,394.1z
	 M272.3,394.1c0.1,1.4,0.2,2.8,0.2,4.2c0,0,4.8,2.4,4.8,2.4c1.6,0.8,3.2,1.7,4.9,2.5l4.8,2.6l3.6,1.9l-0.1-4.7c0,0-7-3.9-10.7-6
	l-1.5-0.8l1.5-0.8l5.6-3.1l5.2-2.8c0,0,0-3.1,0.1-4.9c0-0.4-5.3,2.8-8.5,4.5C278.8,390.7,275.6,392.5,272.3,394.1z"/>
</svg>
