<?xml version="1.0" encoding="utf-8"?>
<!-- Generator: Adobe Illustrator 18.0.0, SVG Export Plug-In . SVG Version: 6.00 Build 0)  -->
<!DOCTYPE svg PUBLIC "-//W3C//DTD SVG 1.1//EN" "http://www.w3.org/Graphics/SVG/1.1/DTD/svg11.dtd">
<svg version="1.1" id="Layer_1" xmlns="http://www.w3.org/2000/svg" xmlns:xlink="http://www.w3.org/1999/xlink" x="0px" y="0px"
	 viewBox="0 0 661.8 64.8" enable-background="new 0 0 661.8 64.8" xml:space="preserve">
<g>
	<path fill="#1ABC9C" d="M91.3,0.7L54.6,64.8h17.9l27.7-48.6L91.3,0.7z M64,0.7L27.3,64.8H45l27.8-48.6L64,0.7z"/>
	<path fill="#FFFFFF" d="M17.7,64.8l18.7-32.7l18.1,32.7h17.9L36.7,0.7L0,64.8H17.7z"/>
	<path opacity="0.3" fill="#1ABC9C" enable-background="new    " d="M54.6,64.8h17.9L63.7,49L54.6,64.8z M49.9,56.3l9-15.8
		l-8.8-15.7l-9,15.7L49.9,56.3z"/>
	<g>
		<path fill="#FFFFFF" d="M155.3,0h6.6l19.6,64.8h-7.6l-5-17.1h-33.9l-9.7,17.1H118L155.3,0L155.3,0z M167,40.9l-9.7-31.8
			l-18.7,31.8H167L167,40.9z M201.3,0h18.6c19.6,0,32.5,15,32.5,32.6v0.2c0,17.5-13,32.1-32.5,32.1h-18.6V0z M219.9,58
			c15.8,0,25.7-11.3,25.7-25.1v-0.2c0-13.8-10-25.9-25.7-25.9h-11.8V58H219.9z M265.4,54.8l4.4-5.2c6.5,5.9,12,8.8,20.7,8.8
			c8.4,0,13.2-4.4,13.2-10.6v-0.2c0-5.8-1.6-9.1-14.7-11.8c-14.3-3.1-19.4-7.8-19.4-18v-0.2c0-9.8,7.8-17,19.7-17
			c9.1,0,15.2,2.6,21.5,7.7l-4.3,5.4C300.6,9.1,295.4,7,289,7c-8.1,0-12.7,4.4-12.7,10.1v0.2c0,5.9,1.6,9.2,15.4,12.1
			c13.9,3,18.8,8.1,18.8,17.6v0.2c0,10.7-8,17.6-20.4,17.6C280.1,64.8,272.9,61.5,265.4,54.8L265.4,54.8z M327.5,0h19.9l26.8,44.3
			h-2.4V0h13.6v64.8h-15.3l-27.5-44.3h-1.5v44.3h-13.6V0z M424.7,0h11.5l27.4,64.8h-15.7l-5.4-13.6H418l-5.3,13.6h-15.3L424.7,0z
			 M430,17.9l-7.7,19.6h15.4L430,17.9z M477.6,13.6h-17.1V0h51.2v13.6h-17.1v51.2h-17.1V13.6z M522,0h13.6v64.8H522V0z M542.9,0
			h15.9l15.6,40.9h0.2L590.4,0h14.9l-26,64.8h-11.1L542.9,0z M617.5,0h40.9v13.6h-30.7v10.2h30.7v13.6h-30.7v13.6h34.1v13.6h-44.3V0
			z"/>
	</g>
</g>
</svg>
