<?xml version="1.0" encoding="utf-8"?>
<!-- Generator: Adobe Illustrator 18.0.0, SVG Export Plug-In . SVG Version: 6.00 Build 0)  -->
<!DOCTYPE svg PUBLIC "-//W3C//DTD SVG 1.1//EN" "http://www.w3.org/Graphics/SVG/1.1/DTD/svg11.dtd">
<svg version="1.1" id="Layer_1" xmlns="http://www.w3.org/2000/svg" xmlns:xlink="http://www.w3.org/1999/xlink" x="0px" y="0px"
	 viewBox="283.5 372.9 45 46" enable-background="new 283.5 372.9 45 46" xml:space="preserve">
<path fill="#FFFFFF" d="M328.5,392.9l0,3.3l0,1.6l0,0.8c0,0.3,0,0.5,0,0.9c-0.1,0.3-0.2,0.6-0.5,0.8c-0.1,0.1-0.3,0.2-0.4,0.2
	l-0.4,0.1l-1.6,0.3l-3,0.6c0,0-0.5,1.5-0.9,2.3c0,0.1,1.9,2.3,1.9,2.3l1,1.2c0.1,0.1,0.2,0.2,0.3,0.4c0.1,0.2,0.2,0.4,0.2,0.6
	c0,0.2,0,0.4-0.1,0.6c-0.1,0.2-0.2,0.4-0.3,0.6l0,0c-0.9,1.2-1.8,2.2-2.8,3.3c-0.5,0.5-1,1-1.6,1.5c-0.3,0.2-0.6,0.5-1.1,0.7
	c-0.1,0.1-0.3,0.1-0.6,0.1c-0.1,0-0.3,0-0.4-0.1c-0.3-0.1-0.5-0.2-0.7-0.3l0,0l0,0l-3.5-2.7c0,0-1,0.4-1.7,0.7
	c-0.2,0.1-0.2,1.9-0.4,3.1c-0.1,0.6-0.2,1.2-0.4,1.9c-0.1,0.3-0.2,0.5-0.4,0.7c-0.2,0.2-0.5,0.4-0.7,0.5c-0.3,0.1-0.5,0.1-0.7,0.1
	l-0.5,0l-3.7-0.1l-1.8,0c-0.2,0-0.2,0-0.5,0c-0.2,0-0.5-0.1-0.7-0.2c-0.4-0.2-0.8-0.7-0.8-1.2v0l-0.6-5c0,0-1.3-0.5-2.1-0.9
	c-0.1,0-2.5,1.8-3.9,2.8l0,0c-0.3,0.3-0.7,0.4-1.1,0.3c-0.4-0.1-0.7-0.4-0.9-0.6l-1.3-1.3c-0.9-0.9-1.8-1.7-2.6-2.7
	c-0.2-0.2-0.4-0.5-0.6-0.7c-0.2-0.3-0.3-0.7-0.3-1.1c0-0.4,0.3-0.7,0.5-0.9l0.6-0.7l2.1-2.7c0,0-0.8-1.5-1.1-2.4
	c0-0.1-4.7-0.6-4.7-0.6l-0.3,0c-0.1,0-0.3-0.1-0.4-0.1c-0.3-0.2-0.5-0.4-0.7-0.7c-0.2-0.3-0.2-0.6-0.2-0.9l0-0.6l-0.1-2.5l-0.1-2.5
	l0-0.6c0-0.3,0.1-0.7,0.2-0.9c0.2-0.3,0.4-0.5,0.7-0.7c0.2-0.1,0.4-0.1,0.5-0.1l0.3-0.1l4.4-0.7c0,0,0.4-1,0.7-1.8
	c0.1-0.2-2.8-3.5-2.8-3.5c-0.2-0.2-0.4-0.5-0.5-1c0-0.2,0-0.4,0-0.7c0-0.2,0.1-0.4,0.2-0.5c0.1-0.1,0.1-0.3,0.2-0.4l0.2-0.3l0.4-0.5
	c0.6-0.7,1.1-1.3,1.7-1.9c0.6-0.6,1.2-1.2,1.9-1.8c0.3-0.3,0.7-0.6,1.2-0.9c0.1-0.1,0.3-0.1,0.6-0.2c0.1,0,0.3,0,0.4,0
	c0.1,0,0.2,0,0.3,0c0.4,0.1,0.7,0.3,0.9,0.5l3.4,2.6c0,0,0.8-0.4,1.5-0.7c0.2-0.1,0.2-1.8,0.4-3c0.1-0.6,0.2-1.2,0.4-1.9
	c0.1-0.3,0.2-0.6,0.4-0.8c0.2-0.3,0.5-0.4,0.8-0.5c0.3-0.1,0.6-0.1,0.8-0.1h0.5l3.7,0l1.8,0h0.2c0.1,0,0.1,0,0.3,0
	c0.3,0,0.6,0.1,0.8,0.2c0.3,0.1,0.5,0.3,0.7,0.6c0.2,0.3,0.3,0.6,0.3,0.9l0-0.1l0.7,4.8c0,0,1,0.4,1.7,0.7c0.2,0.1,3.7-2.6,3.7-2.6
	l-0.1,0.1c0.2-0.2,0.5-0.4,0.8-0.4c0.1,0,0.3,0,0.4,0c0.2,0,0.3,0,0.4,0.1c0.3,0.1,0.5,0.2,0.7,0.4l0.4,0.4l1.5,1.5
	c0.5,0.5,1,1,1.4,1.6c0.5,0.5,0.9,1.1,1.3,1.7l0,0c0.1,0.2,0.2,0.4,0.3,0.5c0,0.2,0,0.3,0,0.5c0,0.4-0.3,0.7-0.4,0.9l-1,1.2
	l-1.9,2.4c0,0,0.8,1.7,1,2.6c0,0,2.1,0.4,3.2,0.5l1.7,0.3c0.3,0,0.6,0.1,0.8,0.3C328.4,392.3,328.5,392.6,328.5,392.9z M328.3,392.9
	c0-0.3-0.1-0.5-0.3-0.7c-0.2-0.2-0.4-0.2-0.7-0.3l-1.7-0.2c-1.1-0.2-2.2-0.3-3.4-0.5l-0.1,0l0-0.1c-0.3-1-0.7-1.9-1.2-2.8l-0.1-0.1
	l0.1-0.1l1.9-2.6l0.9-1.3c0.2-0.2,0.2-0.3,0.2-0.5c0-0.2,0-0.4-0.1-0.4l0,0l0,0c-0.8-1-1.9-2-2.9-2.9l-1.6-1.4l-0.4-0.3
	c0,0-0.2-0.1-0.2-0.1c0,0-0.1,0-0.1,0c0,0-0.1,0-0.1,0c-0.1,0-0.1,0-0.1,0.1l0,0l-0.1,0.1l-4,3.2l-0.4,0.3l-0.5-0.2
	c-0.8-0.4-1.6-0.7-2.5-1l-0.5-0.2l-0.1-0.6l-0.9-5.3c0,0,0.1,0.1,0,0c0,0,0,0,0,0h-0.4l-1.8,0l-3.7,0h-0.5c0,0,0,0-0.1,0
	c-0.1,0-0.2,1.1-0.3,1.6c-0.2,1.2-0.3,2.4-0.5,3.6l-0.1,0.7l-0.6,0.2c-0.8,0.3-1.7,0.6-2.5,1l-0.6,0.3L298,382l-3.9-3.1
	c0,0-0.1-0.1-0.1-0.1c0,0-0.5,0.3-0.8,0.6c-0.6,0.5-1.2,1.1-1.8,1.6c-0.6,0.6-1.2,1.2-1.7,1.8l-0.4,0.4l-0.2,0.2
	c0,0-0.1,0.1-0.1,0.1c0,0,0,0,0,0c0,0,0,0,0.1,0.1l3.1,4l0.3,0.4l-0.3,0.5c-0.4,0.8-0.8,1.6-1.1,2.5l-0.2,0.5l-0.5,0.1l-4.9,0.7
	c-0.2,0-0.5,0.1-0.4,0c0,0-0.1,0.1-0.1,0.1c-0.1,0.1-0.1,0.1-0.1,0.2l0,0.6l-0.1,2.5l-0.1,2.5l0,0.6c0,0.2,0,0.2,0.1,0.4
	c0,0.1,0.1,0.2,0.2,0.2c0.1,0,0.1,0,0.1,0l0.3,0.1l4.9,0.8l0.3,0l0.1,0.2c0.2,1,0.6,1.9,1.1,2.8l0.1,0.2l-0.1,0.2l-2.3,2.9l-0.6,0.7
	c-0.2,0.3-0.4,0.4-0.4,0.7c0,0.2,0,0.4,0.2,0.6c0.2,0.2,0.4,0.5,0.6,0.7c0.8,0.9,1.7,1.8,2.6,2.6l1.3,1.2c0.2,0.2,0.4,0.4,0.6,0.4
	c0.2,0,0.4,0,0.6-0.2l0,0l0,0c1.3-1,2.7-2.1,4-3.1l0.2-0.2l0.3,0.1c0.8,0.4,1.7,0.7,2.5,1l0.3,0.1l0.1,0.3l0.9,5.3v0
	c0,0.1,0,0.1,0.2,0.2c0.1,0,0.1,0,0.2,0l0.4,0l1.8,0l3.7-0.1l0.5,0c0.1,0,0.2,0,0.2,0c0,0,0,0,0.1-0.1c0.1-0.5,0.2-1.1,0.3-1.7
	c0.2-1.2,0.3-2.4,0.5-3.6l0.1-0.6l0.5-0.2c0.9-0.3,1.7-0.6,2.5-1l0.5-0.3l0.4,0.3l3.9,3.1l-0.1,0c0.1,0.1,0.2,0.1,0.2,0.1
	c0,0,0.5-0.2,0.7-0.4c0.5-0.4,1-0.9,1.5-1.3c1-0.9,2-1.9,2.9-2.9l0,0c0,0,0.1-0.1,0.1-0.1c0,0,0-0.1,0-0.2c0-0.1,0-0.1,0-0.2
	c0-0.1-0.1-0.1-0.2-0.2l-1-1.3l-1.9-2.7l-0.1-0.2l0.1-0.2c0.5-0.8,0.8-1.7,1.2-2.5l0.1-0.2l0.2,0l3.3-0.4l1.6-0.2l0.4-0.1
	c0.1,0,0.2-0.1,0.3-0.1c0.2-0.1,0.3-0.4,0.4-0.6c0-0.2,0-0.5,0-0.8l0-0.8l0-1.6L328.3,392.9z M311.4,401.2c0,0,0.1-0.1,0.3-0.4
	c0.2-0.2,0.5-0.6,0.8-1.2c0.3-0.6,0.5-1.3,0.5-2.1c0-0.8-0.1-1.8-0.4-2.7c-0.3-0.9-0.7-1.8-1.5-2.6c-0.2-0.2-0.4-0.4-0.6-0.6
	c-0.2-0.2-0.4-0.4-0.6-0.6c-0.4-0.3-0.9-0.6-1.5-0.9c-0.5-0.2-1.1-0.4-1.7-0.4c-0.3,0-0.6,0-1,0c-0.3,0-0.6,0-0.9,0.1
	c-1.2,0.2-2.5,0.7-3.5,1.5c-0.5,0.5-1,0.9-1.4,1.5c-0.4,0.6-0.6,1.2-0.7,1.9c-0.3,1.3-0.1,2.8,0.5,3.9c0.6,1.1,1.5,1.9,2.4,2.6
	c0.9,0.7,1.8,1.1,2.7,1.4c0.9,0.3,1.9,0.4,2.7,0.3c0.8,0,1.6-0.3,2.1-0.5c0.6-0.3,1-0.6,1.2-0.8
	C311.3,401.3,311.4,401.2,311.4,401.2z M311.6,401.3c0,0-0.1,0.1-0.4,0.4c-0.3,0.2-0.6,0.6-1.2,0.9c-0.5,0.4-1.2,0.8-2.1,1.1
	c-0.9,0.3-2,0.5-3.2,0.4c-1.2-0.1-2.5-0.7-3.5-1.6c-1-0.9-1.9-2.2-2.2-3.6c-0.4-1.4-0.4-2.9-0.1-4.4c0.3-1.5,0.9-2.9,1.9-4.1
	c1-1.2,2.4-2.2,4-2.5c0.4-0.1,0.8-0.1,1.2-0.2c0.3,0,0.8,0,1.1,0c0.8,0,1.6,0.2,2.3,0.4c0.7,0.2,1.4,0.6,2,1.1
	c0.3,0.2,0.6,0.5,0.8,0.7c0.3,0.3,0.5,0.5,0.7,0.8c0.9,1.1,1.4,2.4,1.5,3.6c0.1,1.2-0.1,2.3-0.4,3.2c-0.3,0.9-0.7,1.6-1.1,2.1
	c-0.4,0.5-0.7,0.9-0.9,1.2C311.7,401.2,311.6,401.3,311.6,401.3z"/>
</svg>
