<?xml version="1.0" encoding="utf-8"?>
<!-- Generator: Adobe Illustrator 16.0.0, SVG Export Plug-In . SVG Version: 6.00 Build 0)  -->
<!DOCTYPE svg PUBLIC "-//W3C//DTD SVG 1.1//EN" "http://www.w3.org/Graphics/SVG/1.1/DTD/svg11.dtd">
<svg version="1.1" id="Ebene_1" xmlns="http://www.w3.org/2000/svg" xmlns:xlink="http://www.w3.org/1999/xlink" x="0px" y="0px"
	 width="128px" height="128px" viewBox="0 0 128 128" enable-background="new 0 0 128 128" xml:space="preserve">
<path fill="#CCCCCC" d="M71.119,54.601c-3.36-6.187-9.938-10.138-17.017-10.138c-9.836,0-17.807,6.881-19.103,16.219
	c-4.946,1.113-8.653,5.538-8.653,10.815c0,6.113,4.974,11.088,11.088,11.088c2.572,0,4.965-0.836,6.89-2.379
	c3.103,1.988,6.315,2.959,9.778,2.959c3.274,0,5.5-0.521,8.06-1.938c2.179,1.268,4.642,1.938,7.191,1.938
	c7.906,0,14.338-6.432,14.338-14.339C83.691,61.518,78.194,55.474,71.119,54.601"/>
<path fill="#F7C80B" d="M91.941,57.898c-0.01-0.008-0.021-0.016-0.029-0.023c-0.738,0.901-1.551,1.74-2.424,2.51l4.922,4.914
	c0.582,0.578,1.605,0.497,2.287-0.188c0.682-0.681,0.764-1.704,0.182-2.283L91.941,57.898z"/>
<path fill="#F7C80B" d="M101.468,47.719l-6.977,0.006c-0.012,0-0.023,0.004-0.035,0.004c0.068,0.686,0.107,1.383,0.107,2.092
	c0,0.469-0.02,0.938-0.049,1.398l6.957-0.006c0.822-0.001,1.484-0.784,1.484-1.75C102.957,48.498,102.291,47.717,101.468,47.719z"/>
<path fill="#F7C80B" d="M91.587,41.182l4.914-4.923c0.582-0.58,0.496-1.604-0.186-2.287c-0.684-0.683-1.705-0.763-2.285-0.183
	l-4.932,4.936c-0.006,0.012-0.012,0.02-0.02,0.031C89.978,39.496,90.82,40.308,91.587,41.182z"/>
<path fill="#F7C80B" d="M69.929,41.568c0.01,0.008,0.02,0.016,0.029,0.023c0.738-0.901,1.553-1.742,2.428-2.51l-4.924-4.914
	c-0.58-0.58-1.604-0.498-2.285,0.186c-0.344,0.342-0.533,0.77-0.564,1.18c-0.035,0.418,0.088,0.816,0.379,1.105L69.929,41.568z"/>
<path fill="#F7C80B" d="M78.931,36.211c0.688-0.066,1.385-0.105,2.092-0.105c0.471,0,0.938,0.02,1.398,0.049l-0.01-6.957
	c0.002-0.822-0.779-1.486-1.744-1.486c-0.967,0.001-1.746,0.668-1.746,1.488l0.008,6.979C78.927,36.189,78.931,36.201,78.931,36.211
	z"/>
<path fill="#F7C80B" d="M90.595,45.82c-1.641-4.053-5.543-6.514-9.662-6.514c-1.303,0.002-2.629,0.246-3.91,0.767
	c-3.402,1.378-5.675,4.352-6.317,7.707c1.023,1.061,1.954,2.225,2.769,3.486c4.809,1.09,8.825,4.112,11.284,8.158
	c0.03-0.012,0.061-0.02,0.091-0.032C90.183,57.232,92.757,51.156,90.595,45.82z"/>
<path fill="#5588BB" d="M35.33,85.698c-1.566,2.028-7.852,4.216-9.656,7.344c-1.296,2.244-0.527,5.113,1.717,6.408
	s5.112,0.526,6.408-1.719C35.684,94.467,34.292,88.103,35.33,85.698"/>
<path fill="#5588BB" d="M51.488,85.698c-1.568,2.028-7.852,4.216-9.656,7.344c-1.296,2.244-0.528,5.111,1.717,6.408
	c2.244,1.295,5.112,0.526,6.408-1.719C51.842,94.467,50.449,88.102,51.488,85.698"/>
<path fill="#5588BB" d="M67.646,85.698c-1.567,2.028-7.851,4.216-9.655,7.344c-1.297,2.244-0.528,5.111,1.716,6.408
	c2.245,1.296,5.112,0.525,6.408-1.719C67.999,94.466,66.607,88.102,67.646,85.698"/>
<path opacity="0.15" d="M34.999,61.682c1.296-9.338,9.267-16.219,19.103-16.219c7.079,0,13.657,3.951,17.017,10.138
	c6.906,0.853,12.293,6.634,12.548,13.706c0.005-0.161,0.024-0.318,0.024-0.48c0-7.309-5.497-13.353-12.572-14.226
	c-3.36-6.187-9.938-10.138-17.017-10.138c-9.836,0-17.807,6.881-19.103,16.219c-4.946,1.113-8.653,5.538-8.653,10.815
	c0,0.156,0.017,0.309,0.023,0.464C26.612,66.923,30.222,62.757,34.999,61.682z"/>
<path opacity="0.15" d="M91.912,58.875c0.008,0.008,0.02,0.016,0.029,0.023l4.938,4.93c0.14,0.139,0.239,0.305,0.303,0.484
	c0.169-0.538,0.077-1.105-0.303-1.484l-4.938-4.93c-0.01-0.008-0.021-0.016-0.029-0.023c-0.738,0.901-1.551,1.74-2.424,2.51
	L90,60.896C90.676,60.26,91.323,59.594,91.912,58.875z"/>
<path opacity="0.15" d="M101.468,48.719c0.673-0.002,1.235,0.525,1.419,1.245c0.041-0.159,0.069-0.325,0.069-0.501
	c0-0.965-0.666-1.746-1.488-1.744l-6.977,0.006c-0.012,0-0.023,0.004-0.035,0.004c0.033,0.329,0.058,0.661,0.076,0.996
	L101.468,48.719z"/>
<path opacity="0.15" d="M94.549,50.253c-0.008,0.323-0.014,0.647-0.034,0.966h0.035c0.003-0.134,0.014-0.265,0.014-0.398
	C94.564,50.63,94.554,50.442,94.549,50.253z"/>
<path opacity="0.15" d="M94.031,34.789c0.58-0.58,1.602-0.5,2.285,0.183c0.237,0.237,0.397,0.517,0.487,0.804
	c0.203-0.568,0.031-1.284-0.487-1.804c-0.684-0.683-1.705-0.763-2.285-0.183l-4.932,4.936c-0.006,0.012-0.012,0.02-0.02,0.031
	c0.18,0.148,0.347,0.312,0.522,0.466L94.031,34.789z"/>
<path opacity="0.15" d="M65.177,35.354c0.682-0.684,1.705-0.766,2.285-0.186l4.411,4.402c0.172-0.161,0.335-0.333,0.513-0.488
	l-4.924-4.914c-0.58-0.58-1.604-0.498-2.285,0.186c-0.344,0.342-0.533,0.77-0.564,1.18c-0.018,0.218,0.009,0.429,0.078,0.623
	C64.779,35.871,64.938,35.591,65.177,35.354z"/>
<path opacity="0.15" d="M80.667,28.711c0.965,0,1.746,0.664,1.744,1.486l0.008,5.957c0,0,0.001,0,0.001,0l-0.01-6.957
	c0.002-0.822-0.779-1.486-1.744-1.486c-0.967,0.001-1.746,0.668-1.746,1.488l0.001,0.99C78.929,29.374,79.705,28.712,80.667,28.711z
	"/>
<path opacity="0.15" d="M77.023,41.073c1.281-0.521,2.607-0.765,3.91-0.767c4.119,0,8.021,2.461,9.662,6.514
	c0.454,1.12,0.688,2.272,0.742,3.415c0.072-1.465-0.155-2.967-0.742-4.415c-1.641-4.053-5.543-6.514-9.662-6.514
	c-1.303,0.002-2.629,0.246-3.91,0.767c-3.402,1.378-5.675,4.352-6.317,7.707c0.069,0.071,0.129,0.153,0.198,0.226
	C71.728,44.975,73.887,42.344,77.023,41.073z"/>
<path opacity="0.15" d="M25.674,94.042c1.7-2.947,7.375-5.06,9.336-6.99c0.065-0.523,0.163-0.988,0.32-1.354
	c-1.566,2.028-7.852,4.216-9.656,7.344c-0.511,0.885-0.69,1.864-0.595,2.809C25.15,95.231,25.342,94.616,25.674,94.042z"/>
<path opacity="0.15" d="M41.832,94.042c1.7-2.947,7.373-5.06,9.335-6.99c0.065-0.523,0.163-0.988,0.321-1.354
	c-1.568,2.028-7.852,4.216-9.656,7.344c-0.511,0.885-0.69,1.864-0.595,2.809C41.308,95.231,41.5,94.616,41.832,94.042z"/>
<path opacity="0.15" d="M57.99,94.042c1.7-2.947,7.374-5.06,9.335-6.99c0.065-0.523,0.163-0.988,0.32-1.354
	c-1.567,2.028-7.851,4.216-9.655,7.344c-0.511,0.885-0.69,1.864-0.596,2.809C57.466,95.231,57.658,94.616,57.99,94.042z"/>
</svg>
