<?xml version="1.0" encoding="utf-8"?>
<!-- Generator: Adobe Illustrator 16.0.0, SVG Export Plug-In . SVG Version: 6.00 Build 0)  -->
<!DOCTYPE svg PUBLIC "-//W3C//DTD SVG 1.1//EN" "http://www.w3.org/Graphics/SVG/1.1/DTD/svg11.dtd">
<svg version="1.1" id="Ebene_1" xmlns="http://www.w3.org/2000/svg" xmlns:xlink="http://www.w3.org/1999/xlink" x="0px" y="0px"
	 width="128px" height="128px" viewBox="0 0 128 128" enable-background="new 0 0 128 128" xml:space="preserve">
<path fill="#F7C80B" d="M88.384,58.047l-0.029-0.021c-0.224,0.327-0.469,0.639-0.711,0.953c0.743,1.372,1.305,2.85,1.668,4.4
	l2.178,1.824c0.629,0.526,1.642,0.356,2.262-0.386c0.621-0.738,0.612-1.764-0.017-2.291L88.384,58.047z"/>
<path fill="#F7C80B" d="M98.624,48.684c-0.086-0.959-0.816-1.682-1.635-1.607L90.04,47.69c-0.013,0.002-0.023,0.007-0.035,0.008
	c0.127,0.676,0.227,1.367,0.289,2.072c0.04,0.47,0.061,0.938,0.072,1.398l6.932-0.611C98.115,50.485,98.708,49.647,98.624,48.684z"
	/>
<path fill="#F7C80B" d="M91.042,36.092c0.529-0.627,0.354-1.642-0.385-2.262c-0.74-0.619-1.766-0.611-2.293,0.018l-4.482,5.347
	c-0.004,0.013-0.01,0.021-0.018,0.033c0.961,0.659,1.87,1.394,2.711,2.198L91.042,36.092z"/>
<path fill="#F7C80B" d="M59.67,36.925c-0.312,0.371-0.464,0.812-0.459,1.224c0.004,0.42,0.161,0.807,0.475,1.069l0.824,0.691
	c2.109,0.356,4.141,0.998,6.041,1.906c0.235-0.272,0.464-0.549,0.711-0.808L61.93,36.54C61.303,36.013,60.289,36.184,59.67,36.925z"
	/>
<path fill="#F7C80B" d="M73.534,37.577c0.68-0.127,1.369-0.227,2.074-0.287c0.469-0.041,0.937-0.062,1.398-0.073l-0.615-6.931
	c-0.07-0.818-0.908-1.412-1.869-1.328c-0.964,0.086-1.681,0.817-1.609,1.636l0.615,6.95C73.527,37.556,73.532,37.567,73.534,37.577z
	"/>
<path fill="#F7C80B" d="M75.798,40.487c-1.298,0.115-2.596,0.475-3.827,1.104c-0.973,0.497-1.833,1.126-2.572,1.854
	c2.563,1.715,4.794,3.944,6.513,6.607c3.937,0.892,7.344,3.078,9.801,6.059c1.719-2.96,1.952-6.701,0.279-9.977
	C84.003,42.238,79.901,40.127,75.798,40.487z"/>
<path fill="#CCCCCC" d="M74.141,54.801c-3.36-6.187-9.938-10.138-17.017-10.138c-9.836,0-17.807,6.881-19.103,16.219
	c-4.946,1.113-8.653,5.538-8.653,10.815c0,6.113,4.974,11.087,11.088,11.087c2.572,0,4.965-0.836,6.89-2.379
	c3.103,1.988,6.315,2.959,9.778,2.959c3.274,0,5.5-0.521,8.06-1.938c2.179,1.268,4.642,1.938,7.191,1.938
	c7.906,0,14.338-6.432,14.338-14.338C86.713,61.718,81.216,55.674,74.141,54.801"/>
<path opacity="0.15" d="M88.354,59.027l0.029,0.021l5.351,4.48c0.189,0.159,0.315,0.366,0.392,0.594
	c0.182-0.595,0.054-1.22-0.392-1.594l-5.351-4.48l-0.029-0.021c-0.224,0.327-0.469,0.639-0.711,0.953
	c0.106,0.196,0.2,0.399,0.299,0.599C88.082,59.396,88.225,59.216,88.354,59.027z"/>
<path opacity="0.15" d="M96.989,48.077c0.725-0.066,1.379,0.495,1.579,1.291c0.055-0.214,0.077-0.445,0.056-0.684
	c-0.086-0.959-0.816-1.682-1.635-1.607L90.04,47.69c-0.013,0.002-0.023,0.007-0.035,0.008c0.06,0.321,0.09,0.656,0.137,0.983
	L96.989,48.077z"/>
<path opacity="0.15" d="M88.364,34.848c0.527-0.629,1.553-0.637,2.293-0.018c0.293,0.246,0.493,0.553,0.6,0.874
	c0.222-0.605,0.001-1.369-0.6-1.874c-0.74-0.619-1.766-0.611-2.293,0.018l-4.482,5.347c-0.004,0.013-0.01,0.021-0.018,0.033
	c0.175,0.12,0.338,0.255,0.51,0.38L88.364,34.848z"/>
<path opacity="0.15" d="M59.67,37.925c0.619-0.741,1.633-0.912,2.26-0.386l4.826,4.043c0.167-0.194,0.331-0.391,0.506-0.576
	L61.93,36.54c-0.627-0.526-1.641-0.355-2.26,0.386c-0.312,0.371-0.464,0.812-0.459,1.224c0.001,0.166,0.034,0.323,0.083,0.474
	C59.369,38.379,59.489,38.141,59.67,37.925z"/>
<path opacity="0.15" d="M74.522,29.958c0.961-0.084,1.799,0.51,1.869,1.328l0.527,5.936c0.029-0.001,0.059-0.004,0.088-0.005
	l-0.615-6.931c-0.07-0.818-0.908-1.412-1.869-1.328c-0.964,0.086-1.681,0.817-1.609,1.636l0.049,0.55
	C73.13,30.523,73.741,30.027,74.522,29.958z"/>
<path opacity="0.15" d="M71.971,42.59c1.231-0.629,2.529-0.988,3.827-1.104c4.104-0.359,8.205,1.751,10.193,5.646
	c0.707,1.384,1.055,2.851,1.112,4.308c0.101-1.779-0.243-3.605-1.112-5.308c-1.988-3.896-6.09-6.006-10.193-5.646
	c-1.298,0.115-2.596,0.475-3.827,1.104c-0.973,0.497-1.833,1.126-2.572,1.854c0.217,0.146,0.417,0.315,0.629,0.468
	C70.619,43.415,71.253,42.957,71.971,42.59z"/>
<path opacity="0.15" d="M38.021,61.882c1.296-9.338,9.267-16.219,19.103-16.219c7.078,0,13.656,3.951,17.017,10.138
	c6.906,0.852,12.293,6.634,12.548,13.706c0.005-0.161,0.024-0.318,0.024-0.48c0-7.309-5.497-13.353-12.572-14.226
	c-3.36-6.187-9.938-10.138-17.017-10.138c-9.836,0-17.807,6.881-19.103,16.219c-4.946,1.113-8.653,5.538-8.653,10.815
	c0,0.156,0.017,0.309,0.023,0.463C29.634,67.124,33.245,62.958,38.021,61.882z"/>
</svg>
