<?xml version="1.0" encoding="utf-8"?>
<!-- Generator: Adobe Illustrator 19.1.0, SVG Export Plug-In . SVG Version: 6.00 Build 0)  -->
<svg version="1.1" id="Layer_2" xmlns="http://www.w3.org/2000/svg" xmlns:xlink="http://www.w3.org/1999/xlink" x="0px" y="0px"
	 width="205.3px" height="44.5px" viewBox="0 0 205.3 44.5" style="enable-background:new 0 0 205.3 44.5;" xml:space="preserve">
<style type="text/css">
	.st0{fill:#C4CDD3;}
	.st1{clip-path:url(#SVGID_2_);fill:#C4CDD3;}
	.st2{clip-path:url(#SVGID_2_);fill:#FFFFFF;}
	.st3{fill:#FFFFFF;}
	.st4{clip-path:url(#SVGID_4_);fill:#FFFFFF;}
	.st5{clip-path:url(#SVGID_6_);fill:#FFFFFF;}
	.st6{clip-path:url(#SVGID_8_);fill:#C4CDD3;}
	.st7{clip-path:url(#SVGID_10_);fill:#C4CDD3;}
	.st8{clip-path:url(#SVGID_12_);fill:#C4CDD3;}
</style>
<polygon class="st0" points="134.3,29.8 134.3,32.4 127.2,32.4 127.2,35.6 133.5,35.6 133.5,38.2 127.2,38.2 127.2,41.6 134.3,41.6 
	134.3,44.2 124,44.2 124,29.8 "/>
<polygon class="st0" points="146.7,33.6 142.6,44.2 139.3,44.2 135.2,33.6 135.2,33.4 138.2,33.4 140.9,41.1 141,41.1 143.7,33.4 
	146.7,33.4 "/>
<g>
	<defs>
		<rect id="SVGID_1_" y="0" width="205.3" height="44.5"/>
	</defs>
	<clipPath id="SVGID_2_">
		<use xlink:href="#SVGID_1_"  style="overflow:visible;"/>
	</clipPath>
	<path class="st1" d="M154.8,37.7c0-0.1,0-0.2,0-0.3c0-1.2-0.6-2.2-2.3-2.2c-1.5,0-2.3,1.2-2.4,2.5H154.8z M150.2,39.6
		c0.1,1.5,1.1,2.4,2.7,2.4c1.3,0,2.4-0.3,3.5-0.7l0.7,2.2c-1.1,0.5-2.6,0.9-4.4,0.9c-3.7,0-5.6-2.6-5.6-5.8c0-3.1,1.9-5.7,5.4-5.7
		c3.5,0,5,2.1,5,4.7c0,0.7-0.1,1.6-0.2,2H150.2z"/>
	<path class="st1" d="M161.7,33.4l0.4,1.1h0c0.6-0.6,1.7-1.4,3.5-1.4c2.5,0,4,1.7,4,4.3v6.8h-3v-6.5c0-1.4-0.6-2.2-1.9-2.2
		c-1,0-1.9,0.6-2.3,0.9v7.7h-3V33.4H161.7z"/>
	<path class="st1" d="M175.9,30.8v2.5h3.1v2.3h-3.1v5.1c0,0.8,0.4,1.2,1.3,1.2c0.5,0,1.2-0.2,1.7-0.3v2.5c-0.4,0.1-1.5,0.3-2.5,0.3
		c-2.4,0-3.5-1-3.5-3.2v-5.7h-2V34l2-0.7v-2.5H175.9z"/>
	<path class="st2" d="M131.7,20.9c5.5,0,6.6-2.3,6.6-7.2s-1.1-7.2-6.6-7.2H130v14.4H131.7z M124,1.6h8.1c9.2,0,12.4,4.3,12.4,12.1
		s-3.2,12.1-12.4,12.1H124V1.6z"/>
	<path class="st2" d="M152.3,8.6l0.9,2h0.1c0.6-1.4,1.7-2.5,4.1-2.5c0.6,0,1.2,0.1,1.6,0.2l-0.4,5.3c-0.5-0.1-1.2-0.1-1.7-0.1
		c-1.8,0-3.1,0.5-3.6,1v11.3h-5.8V8.6H152.3z"/>
	<path class="st2" d="M161,8.6h5.8v17.1H161V8.6z M163.9,0.3c2.2,0,3.2,1.4,3.2,3.1c0,1.7-1.1,3.1-3.2,3.1c-2.2,0-3.2-1.4-3.2-3.1
		C160.7,1.6,161.8,0.3,163.9,0.3"/>
</g>
<polygon class="st3" points="187.8,9 181.4,25.7 174.9,25.7 168.6,9 168.6,8.6 174.4,8.6 178.1,20.1 178.2,20.1 181.9,8.6 
	187.8,8.6 "/>
<g>
	<defs>
		<rect id="SVGID_3_" y="0" width="205.3" height="44.5"/>
	</defs>
	<clipPath id="SVGID_4_">
		<use xlink:href="#SVGID_3_"  style="overflow:visible;"/>
	</clipPath>
	<path class="st4" d="M194.2,15.3h5.9c0-0.2,0-0.4,0-0.5c0-1.6-0.8-2.7-2.9-2.7C195.5,12.2,194.5,13.2,194.2,15.3 M194.2,18.9
		c0.3,2.2,1.5,2.8,4.1,2.8c1.5,0,3.3-0.4,5-1l1.2,4.3c-1.7,0.7-4.3,1.3-6.9,1.3c-6.4,0-9.3-3.7-9.3-9.1c0-5,2.9-9.1,9-9.1
		c5.5,0,8.1,3.3,8.1,7.4c0,1.2-0.1,2.8-0.2,3.4H194.2z"/>
	<path class="st4" d="M55.8,8.8l0.6,1.6h0.1c1-1,2.7-2.2,5.4-2.2c4.1,0,6.4,2.6,6.4,7.1V26h-5.8V15.7c0-1.8-0.7-2.8-2.5-2.8
		c-1.3,0-2.4,0.6-3,1.3V26H51V8.8H55.8z"/>
	<path class="st4" d="M23.9,0.5c2.1,0,3.1,1.3,3.1,3s-1,3-3.1,3c-2.1,0-3.1-1.3-3.1-3S21.8,0.5,23.9,0.5"/>
	<path class="st4" d="M1.7,19.6c2.2,1.1,4.4,2,7,2c2.4,0,3.4-0.9,3.4-2.3c0-1.3-0.8-1.9-3.3-2.7l-2.5-0.8c-4-1.2-5.7-3.6-5.7-6.9
		c0-4.7,3.1-7.7,9.4-7.7c3.1,0,5.6,0.7,7.5,1.6l-1.7,4.8c-1.7-0.8-4-1.5-6-1.5c-2,0-3,0.9-3,2.2c0,1,0.4,1.7,2,2.2l2.5,0.8
		c4.9,1.6,7.1,3.2,7.1,7.1c0,5.2-3.7,8-9.8,8c-2.7,0-6-0.9-8.5-2.1L1.7,19.6z"/>
</g>
<rect x="21" y="8.8" class="st3" width="5.8" height="17.2"/>
<g>
	<defs>
		<rect id="SVGID_5_" y="0" width="205.3" height="44.5"/>
	</defs>
	<clipPath id="SVGID_6_">
		<use xlink:href="#SVGID_5_"  style="overflow:visible;"/>
	</clipPath>
	<path class="st5" d="M41.7,13.9C41,13.3,40,12.9,39,12.9c-2.2,0-3.5,1.5-3.5,4.3c0,2.8,1.2,4.2,3.5,4.2c1.1,0,2-0.4,2.8-0.9V13.9z
		 M47.6,24.1c0,6.6-3.4,9.4-9.5,9.4c-3,0-5.4-0.9-7.1-1.9l1.7-4.2c1.4,0.9,3.1,1.4,5.3,1.4c2.5,0,3.7-1,3.7-3.6v-0.9h-0.1
		c-0.9,0.7-2.3,1.7-4.5,1.7c-4.9,0-7.6-3.8-7.6-8.8s2.7-9,7.6-9c2.5,0,3.8,1,5,2.2h0.1l0.6-1.6h4.8V24.1z"/>
</g>
<polygon class="st0" points="33.5,0.2 31.9,5 30.3,5 28.7,0.2 28.7,0.1 30,0.1 31.1,3.8 31.1,3.8 32.2,0.1 33.5,0.1 "/>
<g>
	<defs>
		<rect id="SVGID_7_" y="0" width="205.3" height="44.5"/>
	</defs>
	<clipPath id="SVGID_8_">
		<use xlink:href="#SVGID_7_"  style="overflow:visible;"/>
	</clipPath>
	<path class="st6" d="M35.2,4.1c0.4,0,0.7-0.2,0.7-0.9c0-0.6-0.3-0.9-0.7-0.9c-0.4,0-0.7,0.2-0.7,0.9C34.5,3.9,34.8,4.1,35.2,4.1
		 M35.2,5.1c-1.3,0-1.9-0.8-1.9-1.8c0-1,0.6-1.8,1.9-1.8c1.3,0,1.9,0.8,1.9,1.8C37.1,4.2,36.5,5.1,35.2,5.1"/>
	<path class="st6" d="M38.8,0v4.1c0,0.1,0,0.1,0.1,0.1h0.3V5C39,5,38.8,5,38.6,5c-0.7,0-0.9-0.3-0.9-1V0H38.8z"/>
</g>
<polygon class="st0" points="40.9,3.4 40.9,5 39.7,5 39.7,0 40.9,0 40.9,3.1 40.9,3.1 41.9,1.5 43.2,1.5 43.2,1.6 42,3.2 43.3,4.9 
	43.3,5 42,5 40.9,3.4 "/>
<g>
	<defs>
		<rect id="SVGID_9_" y="0" width="205.3" height="44.5"/>
	</defs>
	<clipPath id="SVGID_10_">
		<use xlink:href="#SVGID_9_"  style="overflow:visible;"/>
	</clipPath>
	<path class="st7" d="M43.7,3.9c0.4,0.2,0.8,0.3,1.2,0.3c0.3,0,0.4-0.1,0.4-0.2c0-0.1-0.1-0.2-0.4-0.2l-0.4-0.1
		c-0.6-0.1-1-0.4-1-1.1c0-0.7,0.6-1.2,1.5-1.2c0.5,0,0.9,0.1,1.3,0.3l-0.3,0.9c-0.3-0.1-0.7-0.2-1-0.2c-0.3,0-0.4,0.1-0.4,0.2
		c0,0.1,0.1,0.2,0.4,0.2l0.4,0.1c0.6,0.1,1,0.4,1,1.1c0,0.8-0.6,1.2-1.5,1.2c-0.6,0-1.1-0.1-1.5-0.3L43.7,3.9z"/>
</g>
<polygon class="st0" points="52.5,1.6 51.6,5 50.3,5 49.6,2.6 49.6,2.6 48.9,5 47.6,5 46.7,1.6 46.7,1.5 47.8,1.5 48.3,3.8 
	48.3,3.8 48.9,1.5 50.2,1.5 50.9,3.8 50.9,3.8 51.4,1.5 52.5,1.5 "/>
<g>
	<defs>
		<rect id="SVGID_11_" y="0" width="205.3" height="44.5"/>
	</defs>
	<clipPath id="SVGID_12_">
		<use xlink:href="#SVGID_11_"  style="overflow:visible;"/>
	</clipPath>
	<path class="st8" d="M54.5,3.5c-0.5,0-0.6,0.1-0.6,0.3c0,0.2,0.1,0.3,0.4,0.3c0.2,0,0.5-0.1,0.6-0.2V3.5H54.5z M56.3,5
		c-0.2,0-0.3,0.1-0.6,0.1c-0.4,0-0.6-0.1-0.8-0.4h0c-0.2,0.2-0.7,0.4-1.1,0.4c-0.8,0-1.1-0.5-1.1-1.1c0-0.7,0.5-1.2,1.7-1.2h0.4V2.7
		c0-0.3-0.2-0.4-0.5-0.4c-0.4,0-0.7,0.1-1.1,0.2l-0.3-0.9c0.4-0.2,0.9-0.3,1.5-0.3c1,0,1.6,0.4,1.6,1.4v1.2c0,0.1,0,0.1,0.1,0.1h0.2
		V5z"/>
	<path class="st8" d="M59.1,2.6c-0.1-0.1-0.3-0.2-0.6-0.2c-0.4,0-0.7,0.3-0.7,0.9c0,0.6,0.2,0.8,0.7,0.8c0.2,0,0.4-0.1,0.6-0.2V2.6z
		 M60.2,4.6c0,1.3-0.7,1.9-1.9,1.9c-0.6,0-1.1-0.2-1.4-0.4l0.3-0.8c0.3,0.2,0.6,0.3,1.1,0.3c0.5,0,0.7-0.2,0.7-0.7V4.7h0
		C58.9,4.8,58.6,5,58.1,5c-1,0-1.5-0.8-1.5-1.8c0-1,0.5-1.8,1.5-1.8c0.5,0,0.8,0.2,1,0.4h0l0.1-0.3h1V4.6z"/>
	<path class="st8" d="M62,2.9h1.2c0,0,0-0.1,0-0.1c0-0.3-0.2-0.5-0.6-0.5C62.2,2.3,62,2.5,62,2.9 M62,3.6C62,4,62.3,4.2,62.8,4.2
		c0.3,0,0.7-0.1,1-0.2L64,4.8c-0.3,0.1-0.9,0.3-1.4,0.3c-1.3,0-1.9-0.7-1.9-1.8c0-1,0.6-1.8,1.8-1.8c1.1,0,1.6,0.7,1.6,1.5
		c0,0.2,0,0.6,0,0.7H62z"/>
	<path class="st8" d="M65.7,1.5l0.1,0.3h0c0.2-0.2,0.5-0.4,1.1-0.4c0.8,0,1.3,0.5,1.3,1.4V5H67v-2c0-0.4-0.1-0.6-0.5-0.6
		c-0.3,0-0.5,0.1-0.6,0.3V5h-1.2V1.5H65.7z"/>
	<path class="st8" d="M3.5,31.7h-3c-0.2,0-0.4-0.2-0.4-0.4s0.2-0.4,0.4-0.4h3C3.8,30.8,4,31,4,31.2S3.8,31.7,3.5,31.7 M9.6,31.7h-3
		c-0.2,0-0.4-0.2-0.4-0.4s0.2-0.4,0.4-0.4h3c0.2,0,0.4,0.2,0.4,0.4S9.8,31.7,9.6,31.7 M15.6,31.7h-3c-0.2,0-0.4-0.2-0.4-0.4
		s0.2-0.4,0.4-0.4h3c0.2,0,0.4,0.2,0.4,0.4S15.9,31.7,15.6,31.7 M21.7,31.7h-3c-0.2,0-0.4-0.2-0.4-0.4s0.2-0.4,0.4-0.4h3
		c0.2,0,0.4,0.2,0.4,0.4S22,31.7,21.7,31.7 M27.8,31.7h-3c-0.2,0-0.4-0.2-0.4-0.4s0.2-0.4,0.4-0.4h3c0.2,0,0.4,0.2,0.4,0.4
		S28,31.7,27.8,31.7"/>
	<path class="st8" d="M76.4,11.3v2.8h3.5v3.1h-3.5v4.6c0,0.8,0.4,1.3,1.5,1.3c0.5,0,1.3-0.1,2-0.4v3.2c-0.5,0.1-1.8,0.4-3.2,0.4
		c-2.6,0-4.2-1-4.2-3.8v-5.4h-2.2v-2.4l2.2-0.6v-2.8H76.4z"/>
	<path class="st8" d="M93.6,18.6V26h-4v-7.1c0-1.2-0.5-1.9-1.7-1.9c-0.9,0-1.6,0.4-2.1,0.9V26h-4V8.7h4V15h0
		c0.6-0.5,1.7-1.3,3.4-1.3C92,13.7,93.6,15.6,93.6,18.6"/>
	<path class="st8" d="M99.4,18.8h4.1c0-0.1,0-0.2,0-0.3c0-1.1-0.5-1.9-2-1.9C100.4,16.6,99.7,17.3,99.4,18.8 M99.4,21.2
		c0.2,1.5,1,1.9,2.8,1.9c1.1,0,2.3-0.2,3.5-0.7l0.8,3c-1.2,0.5-3,0.9-4.8,0.9c-4.5,0-6.5-2.5-6.5-6.3c0-3.5,2-6.3,6.2-6.3
		c3.8,0,5.6,2.3,5.6,5.1c0,0.9-0.1,1.9-0.2,2.4H99.4z"/>
	<path class="st8" d="M112.3,14.1l0.4,1.1h0c0.7-0.7,1.9-1.5,3.7-1.5c2.9,0,4.4,1.8,4.4,4.9V26h-4v-7.1c0-1.2-0.5-1.9-1.7-1.9
		c-0.9,0-1.6,0.4-2.1,0.9V26h-4V14.1H112.3z"/>
	<path class="st8" d="M52.8,31.7h-3c-0.2,0-0.4-0.2-0.4-0.4s0.2-0.4,0.4-0.4h3c0.2,0,0.4,0.2,0.4,0.4S53.1,31.7,52.8,31.7
		 M58.9,31.7h-3c-0.2,0-0.4-0.2-0.4-0.4s0.2-0.4,0.4-0.4h3c0.2,0,0.4,0.2,0.4,0.4S59.1,31.7,58.9,31.7 M65,31.7h-3
		c-0.2,0-0.4-0.2-0.4-0.4s0.2-0.4,0.4-0.4h3c0.2,0,0.4,0.2,0.4,0.4S65.2,31.7,65,31.7 M71,31.7h-3c-0.2,0-0.4-0.2-0.4-0.4
		s0.2-0.4,0.4-0.4h3c0.2,0,0.4,0.2,0.4,0.4S71.3,31.7,71,31.7 M77.1,31.7h-3c-0.2,0-0.4-0.2-0.4-0.4s0.2-0.4,0.4-0.4h3
		c0.2,0,0.4,0.2,0.4,0.4S77.3,31.7,77.1,31.7 M83.1,31.7h-3c-0.2,0-0.4-0.2-0.4-0.4s0.2-0.4,0.4-0.4h3c0.2,0,0.4,0.2,0.4,0.4
		S83.4,31.7,83.1,31.7 M89.2,31.7h-3c-0.2,0-0.4-0.2-0.4-0.4s0.2-0.4,0.4-0.4h3c0.2,0,0.4,0.2,0.4,0.4S89.4,31.7,89.2,31.7
		 M95.3,31.7h-3c-0.2,0-0.4-0.2-0.4-0.4s0.2-0.4,0.4-0.4h3c0.2,0,0.4,0.2,0.4,0.4S95.5,31.7,95.3,31.7 M101.3,31.7h-3
		c-0.2,0-0.4-0.2-0.4-0.4s0.2-0.4,0.4-0.4h3c0.2,0,0.4,0.2,0.4,0.4S101.6,31.7,101.3,31.7 M107.4,31.7h-3c-0.2,0-0.4-0.2-0.4-0.4
		s0.2-0.4,0.4-0.4h3c0.2,0,0.4,0.2,0.4,0.4S107.6,31.7,107.4,31.7 M113.4,31.7h-3c-0.2,0-0.4-0.2-0.4-0.4s0.2-0.4,0.4-0.4h3
		c0.2,0,0.4,0.2,0.4,0.4S113.7,31.7,113.4,31.7 M119.5,31.7h-3c-0.2,0-0.4-0.2-0.4-0.4s0.2-0.4,0.4-0.4h3c0.2,0,0.4,0.2,0.4,0.4
		S119.8,31.7,119.5,31.7"/>
</g>
<g>
</g>
<g>
</g>
<g>
</g>
<g>
</g>
<g>
</g>
<g>
</g>
<g>
</g>
<g>
</g>
<g>
</g>
<g>
</g>
<g>
</g>
<g>
</g>
<g>
</g>
<g>
</g>
<g>
</g>
</svg>
