<?xml version="1.0" encoding="utf-8"?>
<!-- Generator: Adobe Illustrator 19.1.0, SVG Export Plug-In . SVG Version: 6.00 Build 0)  -->
<svg version="1.1" id="Layer_1" xmlns="http://www.w3.org/2000/svg" xmlns:xlink="http://www.w3.org/1999/xlink" x="0px" y="0px"
	 width="23.5px" height="23.5px" viewBox="0 0 23.5 23.5" style="enable-background:new 0 0 23.5 23.5;" xml:space="preserve">
<style type="text/css">
	.st0{clip-path:url(#SVGID_2_);fill:#FFFFFF;}
</style>
<g>
	<defs>
		<rect id="SVGID_1_" width="23.5" height="23.5"/>
	</defs>
	<clipPath id="SVGID_2_">
		<use xlink:href="#SVGID_1_"  style="overflow:visible;"/>
	</clipPath>
	<path class="st0" d="M16.8,8.8l-2-2L20,1.6c0.6-0.6,1.4-0.6,2,0c0.6,0.6,0.6,1.4,0,2L16.8,8.8z M16.1,9.4L5.5,20.1
		c-0.6,0.6-1.4,0.6-2,0c-0.6-0.6-0.6-1.4,0-2L14.1,7.4l0,0L16.1,9.4L16.1,9.4z M22.8,4.4c1-1,1-2.6,0-3.6c-1-1-2.5-1-3.5-0.1
		l-0.1-0.1c-0.6-0.6-1.6-0.6-2.2,0l-4.6,4.6c-0.2,0.2-0.2,0.6,0,0.8c0.2,0.2,0.6,0.2,0.8,0l4.6-4.6c0.2-0.2,0.5-0.2,0.7,0l0.1,0.1
		L2.6,17.3c-0.3,0.3-0.5,0.6-0.6,0.9l0,0L0,23.5l5.4-2.1l0,0c0.3-0.1,0.6-0.3,0.9-0.6L22.8,4.4z"/>
</g>
<g>
</g>
<g>
</g>
<g>
</g>
<g>
</g>
<g>
</g>
<g>
</g>
<g>
</g>
<g>
</g>
<g>
</g>
<g>
</g>
<g>
</g>
<g>
</g>
<g>
</g>
<g>
</g>
<g>
</g>
</svg>
