<?xml version="1.0" encoding="utf-8"?>
<!-- Generator: Adobe Illustrator 16.0.0, SVG Export Plug-In . SVG Version: 6.00 Build 0)  -->
<!DOCTYPE svg PUBLIC "-//W3C//DTD SVG 1.1//EN" "http://www.w3.org/Graphics/SVG/1.1/DTD/svg11.dtd">
<svg version="1.1" id="Layer_1" xmlns="http://www.w3.org/2000/svg" xmlns:xlink="http://www.w3.org/1999/xlink" x="0px" y="0px"
	 width="205.354px" height="29.5px" viewBox="0 -0.5 205.354 29.5" enable-background="new 0 -0.5 205.354 29.5"
	 xml:space="preserve">
<line fill="none" stroke="#000000" stroke-width="3" stroke-miterlimit="10" x1="0" y1="11.65" x2="29.876" y2="11.65"/>
<line fill="none" stroke="#000000" stroke-miterlimit="10" x1="0" y1="17.395" x2="29.876" y2="17.395"/>
<g enable-background="new    ">
	<path d="M79.44,19.568c-2.845,0-5.438-2.053-5.438-6.176c0-4.123,2.683-6.14,5.527-6.14c1.585,0,3.17,0.63,3.674,1.225h0.054
		l0.306-0.702h0.145v4.303h-0.198c-0.684-2.772-1.836-4.483-4.033-4.483c-0.773,0-1.674,0.307-2.376,1.261
		c-0.667,0.9-1.151,2.341-1.151,4.537c0,2.755,0.863,4.177,1.943,5.005c0.504,0.379,1.352,0.559,2.053,0.559
		c1.369,0,2.989-0.576,3.745-3.583l0.181,0.056C83.456,17.875,81.637,19.568,79.44,19.568z"/>
	<path d="M84.406,19.316v-0.09c0.144-0.02,0.378-0.056,0.558-0.108c0.36-0.126,0.666-0.36,0.81-0.774
		c0.217-0.666,0.271-1.943,0.271-3.223V11.7c0-1.297-0.054-2.557-0.271-3.223c-0.144-0.433-0.449-0.667-0.81-0.793
		c-0.18-0.054-0.414-0.09-0.558-0.107v-0.09h5.042v0.09c-0.162,0.018-0.396,0.054-0.559,0.107c-0.378,0.126-0.685,0.36-0.829,0.793
		c-0.216,0.666-0.252,1.926-0.252,3.223v3.421c0,1.277,0.036,2.557,0.252,3.223c0.145,0.414,0.45,0.648,0.829,0.774
		c0.162,0.054,0.396,0.09,0.559,0.108v0.09H84.406z"/>
	<path d="M99.889,10.835c-0.18-0.522-0.756-1.639-1.565-2.322c-0.595-0.505-1.171-0.738-1.999-0.738h-0.738v7.346
		c0,1.277,0.054,2.539,0.27,3.205c0.145,0.414,0.45,0.666,0.828,0.792c0.162,0.054,0.396,0.071,0.559,0.09v0.108h-5.096v-0.108
		c0.162-0.019,0.396-0.036,0.559-0.09c0.378-0.126,0.684-0.378,0.828-0.792c0.216-0.666,0.287-1.928,0.287-3.205V7.775h-0.737
		c-0.811,0-1.422,0.233-2.018,0.738c-0.81,0.684-1.35,1.8-1.548,2.322H89.41l0.594-3.349h9.397l0.595,3.349H99.889z"/>
	<path d="M108.69,10.313l-1.943,3.709v1.099c0,1.277,0.054,2.539,0.27,3.223c0.126,0.414,0.45,0.648,0.811,0.774
		c0.18,0.054,0.414,0.09,0.558,0.108v0.09h-5.042v-0.09c0.162-0.02,0.378-0.056,0.558-0.108c0.36-0.126,0.686-0.36,0.812-0.774
		c0.233-0.684,0.27-1.943,0.27-3.223v-0.504l-2.809-5.113c-0.72-1.314-1.134-1.801-2.106-1.927v-0.09h5.097v0.09
		c-0.181,0.018-0.522,0.071-0.702,0.144c-0.864,0.324-0.56,1.171-0.198,1.873l2.197,4.015h0.09l1.818-3.421
		c0.396-0.756,0.558-1.242,0.558-1.692c0-0.396-0.145-0.648-0.468-0.774c-0.181-0.072-0.595-0.126-0.774-0.144v-0.09h3.781v0.09
		C110.257,7.739,109.735,8.369,108.69,10.313z"/>
	<path d="M125.683,10.835c-0.18-0.522-0.756-1.639-1.565-2.322c-0.595-0.505-1.171-0.738-1.999-0.738h-0.738v7.346
		c0,1.277,0.054,2.539,0.27,3.205c0.145,0.414,0.45,0.666,0.828,0.792c0.162,0.054,0.396,0.071,0.559,0.09v0.108h-5.096v-0.108
		c0.162-0.019,0.396-0.036,0.559-0.09c0.378-0.126,0.684-0.378,0.828-0.792c0.216-0.666,0.288-1.928,0.288-3.205V7.775h-0.738
		c-0.811,0-1.422,0.233-2.018,0.738c-0.81,0.684-1.35,1.8-1.548,2.322h-0.107l0.594-3.349h9.397l0.595,3.349H125.683z"/>
	<path d="M125.77,19.227c0.162-0.02,0.396-0.056,0.559-0.108c0.378-0.126,0.684-0.36,0.828-0.774
		c0.216-0.684,0.252-1.943,0.252-3.24v-3.421c0-1.278-0.036-2.557-0.252-3.223c-0.145-0.414-0.45-0.648-0.828-0.774
		c-0.162-0.054-0.396-0.09-0.559-0.107v-0.09h4.97v0.09c-0.145,0.018-0.307,0.054-0.486,0.107c-0.36,0.126-0.667,0.36-0.812,0.774
		c-0.216,0.666-0.27,1.944-0.27,3.223v1.441h4.934v-1.441c0-1.278-0.054-2.557-0.27-3.223c-0.145-0.414-0.45-0.648-0.812-0.774
		c-0.18-0.054-0.342-0.09-0.485-0.107v-0.09h4.969v0.09c-0.162,0.018-0.396,0.054-0.558,0.107c-0.379,0.126-0.685,0.36-0.828,0.774
		c-0.216,0.666-0.252,1.944-0.252,3.223v3.421c0,1.297,0.036,2.558,0.252,3.24c0.144,0.414,0.449,0.648,0.828,0.774
		c0.161,0.054,0.396,0.09,0.558,0.108v0.09h-4.969v-0.09c0.144-0.02,0.306-0.056,0.485-0.108c0.36-0.126,0.667-0.36,0.812-0.774
		c0.216-0.684,0.27-1.943,0.27-3.24v-1.621h-4.934v1.621c0,1.297,0.054,2.558,0.27,3.24c0.145,0.414,0.45,0.648,0.812,0.774
		c0.18,0.054,0.342,0.09,0.486,0.108v0.09h-4.97V19.227z"/>
	<path d="M137.866,19.316v-0.09c0.144-0.02,0.378-0.056,0.558-0.108c0.36-0.126,0.666-0.36,0.81-0.774
		c0.217-0.666,0.271-1.943,0.271-3.223V11.7c0-1.297-0.054-2.557-0.271-3.223c-0.144-0.433-0.449-0.667-0.81-0.793
		c-0.18-0.054-0.414-0.09-0.558-0.107v-0.09h5.042v0.09c-0.162,0.018-0.396,0.054-0.559,0.107c-0.378,0.126-0.685,0.36-0.829,0.793
		c-0.216,0.666-0.252,1.926-0.252,3.223v3.421c0,1.277,0.036,2.557,0.252,3.223c0.145,0.414,0.45,0.648,0.829,0.774
		c0.162,0.054,0.396,0.09,0.559,0.108v0.09H137.866z"/>
	<path d="M153.943,7.684c-0.306,0.091-0.63,0.36-0.792,0.757c-0.162,0.432-0.306,0.99-0.306,2.143v8.877h-0.252l-6.878-10.029
		h-0.054v6.789c0,1.17,0.126,1.709,0.306,2.143c0.144,0.378,0.486,0.666,0.792,0.756c0.18,0.054,0.342,0.09,0.594,0.107v0.09h-3.763
		v-0.09c0.252-0.019,0.432-0.055,0.63-0.107c0.306-0.09,0.612-0.378,0.756-0.756c0.18-0.434,0.342-0.973,0.342-2.143v-4.845
		c0-1.296-0.18-2.215-0.396-2.646c-0.18-0.396-0.702-0.847-1.116-1.009c-0.162-0.072-0.378-0.107-0.54-0.126V7.487h3.439
		l5.762,8.625h0.036v-5.527c0-1.152-0.145-1.711-0.307-2.143c-0.161-0.396-0.485-0.666-0.792-0.757
		c-0.18-0.054-0.359-0.09-0.594-0.107v-0.09h3.745v0.09C154.321,7.594,154.141,7.63,153.943,7.684z"/>
	<path d="M165.481,7.577c-0.378,0.054-0.702,0.18-1.098,0.432c-0.541,0.343-1.351,1.045-1.891,1.621l-2.63,2.755v0.054
		c1.243,0.054,2.054,0.378,2.611,0.937c0.648,0.666,0.9,1.674,1.044,3.007c0.162,1.566,0.54,2.196,0.937,2.484
		c0.252,0.18,0.647,0.324,0.899,0.359v0.09h-3.007c-0.306-0.342-0.647-1.188-0.756-2.395c-0.108-1.261-0.234-2.179-0.414-2.809
		c-0.234-0.793-0.702-1.045-1.386-1.045c-0.36,0-0.667,0.181-0.955,0.433c-0.198,0.18-0.396,0.396-0.559,0.612v1.008
		c0,1.277,0.055,2.557,0.271,3.223c0.144,0.414,0.432,0.648,0.811,0.774c0.162,0.054,0.324,0.09,0.486,0.108v0.09h-4.969v-0.09
		c0.162-0.02,0.396-0.056,0.558-0.108c0.378-0.126,0.685-0.36,0.828-0.774c0.216-0.666,0.252-1.943,0.252-3.223v-3.439
		c0-1.278-0.036-2.557-0.252-3.223c-0.144-0.414-0.45-0.648-0.828-0.774c-0.162-0.054-0.396-0.09-0.558-0.107v-0.09h4.969v0.09
		c-0.162,0.018-0.324,0.054-0.486,0.107c-0.378,0.126-0.667,0.36-0.811,0.774c-0.216,0.666-0.271,1.944-0.271,3.223v2.071
		l3.331-3.511c0.721-0.757,1.099-1.152,1.099-1.783c0-0.432-0.181-0.648-0.45-0.756c-0.18-0.072-0.396-0.108-0.63-0.126v-0.09h3.853
		L165.481,7.577L165.481,7.577z"/>
</g>
<line fill="none" stroke="#000000" stroke-miterlimit="10" x1="175.478" y1="16.841" x2="205.353" y2="16.841"/>
<line fill="none" stroke="#000000" stroke-width="3" stroke-miterlimit="10" x1="175.477" y1="11.097" x2="205.354" y2="11.097"/>
<g>
	<path fill="#ABC050" d="M67.976,14.001c0,7.729-6.266,13.993-13.995,13.993c-7.729,0-13.995-6.266-13.995-13.993
		c0-7.729,6.268-13.996,13.995-13.996C61.71,0.005,67.976,6.271,67.976,14.001L67.976,14.001z"/>
	<path fill="#FFFFFF" d="M47.431,24.143c0,0.235,0.575,0.428,1.283,0.428s1.285-0.191,1.285-0.428v-0.397
		c0-0.163-0.272-0.317-0.672-0.397l0.125-0.287c0.712-0.092,1.31-0.008,2.101,0.269c0.846,0.295,1.39,0.624,1.922,1.202
		l-0.024,0.814c-0.41,0.078-0.691,0.236-0.691,0.401v0.397c0,0.235,0.575,0.429,1.283,0.429c0.709,0,1.286-0.19,1.286-0.429v-0.397
		c0-0.181-0.336-0.351-0.811-0.422l-0.021-0.833c0.556-0.628,1.108-0.977,1.994-1.281c0.812-0.283,1.423-0.365,2.163-0.261
		l0.174,0.394c-0.407,0.082-0.687,0.237-0.687,0.401v0.397c0,0.235,0.574,0.428,1.283,0.428c0.708,0,1.285-0.191,1.285-0.428v-0.397
		c0-0.216-0.479-0.416-1.099-0.45c-0.982-2.158-1.537-3.559-2.364-5.936c-1.402-4.033-2.043-6.447-2.78-10.533
		c0.189-0.133,0.312-0.355,0.312-0.604c0-0.41-0.33-0.74-0.738-0.74c-0.409,0-0.74,0.33-0.74,0.74c0,0.277,0.153,0.52,0.38,0.646
		c-0.758,4.056-1.396,6.462-2.77,10.491c-0.733,2.149-1.244,3.5-2.041,5.345c-0.082,0.188-0.167,0.384-0.257,0.584
		c-0.66,0.021-1.184,0.229-1.184,0.456L47.431,24.143L47.431,24.143z"/>
	<path fill="#ABC050" d="M58.244,21.992c-0.259-0.611-0.484-1.184-0.706-1.771l-0.895,1.18L58.244,21.992L58.244,21.992z"/>
	<path fill="#ABC050" d="M55.251,23.24c0.332-0.203,0.704-0.365,1.161-0.516c0.685-0.229,1.218-0.316,1.812-0.279l-1.84-0.699
		L55.251,23.24L55.251,23.24z"/>
	<polygon fill="#ABC050" points="57.174,19.546 55.625,18.55 54.581,20.148 	"/>
	<path fill="#ABC050" d="M57.107,19.029c-0.189-0.545-0.386-1.129-0.599-1.786l-0.01-0.03l-0.657,1.006L57.107,19.029L57.107,19.029
		z"/>
	<path fill="#ABC050" d="M56.083,15.907c-0.139-0.438-0.265-0.856-0.381-1.265l-0.327,0.631L56.083,15.907L56.083,15.907z"/>
	<polygon fill="#ABC050" points="56.195,16.498 55.194,15.625 54.55,16.873 	"/>
	<path fill="#ABC050" d="M54.414,21.001c0.018,0.881,0.037,1.688,0.059,2.58l1.503-1.988L54.414,21.001L54.414,21.001z"/>
	<path fill="#ABC050" d="M54.305,14.843c0.008,0.528,0.016,1.074,0.025,1.642l0.578-1.111L54.305,14.843L54.305,14.843z"/>
	<path fill="#ABC050" d="M54.252,9.954l0.001,0.203l0.266,0.39l0.114-0.287c-0.024-0.123-0.049-0.25-0.073-0.377L54.252,9.954
		L54.252,9.954z"/>
	<polygon fill="#ABC050" points="54.352,17.734 54.371,18.757 54.389,19.753 55.309,18.35 	"/>
	<polygon fill="#ABC050" points="54.206,9.613 54.574,9.536 54.361,9.066 	"/>
	<polygon fill="#ABC050" points="54.256,10.515 54.262,11.196 54.433,10.763 	"/>
	<polygon fill="#ABC050" points="54.192,8.863 54.194,9.075 54.254,8.966 	"/>
	<polygon fill="#ABC050" points="55.476,14.28 54.512,14.503 55.091,15.021 	"/>
	<path fill="#ABC050" d="M54.273,12.397c0.004,0.394,0.011,0.786,0.016,1.185l0.296-0.748L54.273,12.397L54.273,12.397z"/>
	<polygon fill="#ABC050" points="54.542,9.093 54.508,8.79 54.438,8.943 	"/>
	<polygon fill="#ABC050" points="54.34,7.291 54.337,7.263 54.269,7.072 54.214,7.304 	"/>
	<polygon fill="#ABC050" points="54.375,7.451 54.188,7.474 54.302,7.716 	"/>
	<polygon fill="#FFFFFF" points="60.081,7.948 58.586,7.539 59.068,7.005 57.418,6.943 58.076,6.224 55.762,6.302 57.021,6.722 
		56.433,7.419 58.141,7.503 57.657,8.163 	"/>
	<polygon fill="#FFFFFF" points="58.483,1.826 57.363,2.897 57.153,2.208 56.25,3.591 55.973,2.658 54.848,4.679 55.856,3.817 
		56.151,4.681 57.103,3.259 57.418,4.013 	"/>
	<polygon fill="#FFFFFF" points="48.765,7.005 49.248,7.539 47.754,7.948 50.177,8.163 49.693,7.503 51.401,7.419 50.812,6.722 
		52.071,6.302 49.759,6.224 50.416,6.943 	"/>
	<polygon fill="#FFFFFF" points="52.985,4.679 51.86,2.658 51.583,3.591 50.681,2.208 50.471,2.897 49.351,1.826 50.416,4.013 
		50.73,3.259 51.683,4.681 51.977,3.817 	"/>
	<path fill="#ABC050" d="M55.375,13.466c-0.102-0.379-0.196-0.752-0.286-1.125l-0.175,0.449L55.375,13.466L55.375,13.466z"/>
	<polygon fill="#ABC050" points="54.615,20.645 56.236,21.247 57.12,20.079 	"/>
	<polygon fill="#ABC050" points="54.974,11.853 54.945,11.73 54.293,11.882 54.716,12.501 	"/>
	<polygon fill="#ABC050" points="54.766,10.906 54.702,10.601 54.648,10.736 	"/>
	<polygon fill="#ABC050" points="54.874,11.409 54.866,11.372 54.564,10.951 54.336,11.541 	"/>
	<polygon fill="#ABC050" points="54.538,17.38 55.527,18.016 56.18,17.021 	"/>
	<polygon fill="#ABC050" points="54.436,14.015 55.278,13.81 54.786,13.118 	"/>
	<polygon fill="#ABC050" points="54.443,8.22 54.307,7.849 54.21,8.243 	"/>
	<polygon fill="#ABC050" points="53.76,10.845 53.762,10.597 53.696,10.688 	"/>
	<polygon fill="#ABC050" points="53.753,11.525 53.754,11.361 53.563,10.875 53.188,11.404 	"/>
	<polygon fill="#ABC050" points="53.765,10.244 53.768,9.931 53.478,9.876 53.444,10.054 53.609,10.47 	"/>
	<polygon fill="#ABC050" points="53.853,9.623 53.696,9.075 53.482,9.546 	"/>
	<polygon fill="#ABC050" points="53.928,8.257 53.826,7.864 53.669,8.227 	"/>
	<polygon fill="#ABC050" points="53.899,9.153 53.919,8.781 53.805,8.976 	"/>
	<path fill="#ABC050" d="M53.729,13.386c0.005-0.356,0.013-0.711,0.017-1.062l-0.281,0.396L53.729,13.386L53.729,13.386z"/>
	<path fill="#ABC050" d="M50.121,22.555c0.478,0.006,0.939,0.098,1.509,0.284c0.534,0.179,0.955,0.369,1.329,0.625l-1.277-1.698
		L50.121,22.555L50.121,22.555z"/>
	<path fill="#ABC050" d="M49.801,22.232l1.625-0.808l-0.858-1.143C50.332,20.925,50.084,21.55,49.801,22.232L49.801,22.232z"/>
	<path fill="#ABC050" d="M53.505,23.514c0.028-0.934,0.052-1.779,0.075-2.705l-1.523,0.768L53.505,23.514L53.505,23.514z"/>
	<polygon fill="#ABC050" points="53.603,19.826 53.631,18.525 53.651,17.587 52.657,18.384 	"/>
	<path fill="#ABC050" d="M53.679,16.307c0.009-0.483,0.018-0.951,0.025-1.404l-0.558,0.504L53.679,16.307L53.679,16.307z"/>
	<polygon fill="#ABC050" points="53.967,7.484 53.764,7.464 53.853,7.724 	"/>
	<polygon fill="#ABC050" points="54.188,8.513 54.188,8.563 54.321,8.845 54.468,8.486 	"/>
	<polygon fill="#ABC050" points="51.94,16.498 53.575,16.869 52.867,15.661 	"/>
	<polygon fill="#ABC050" points="52.498,14.3 52.948,15.066 53.556,14.505 	"/>
	<path fill="#ABC050" d="M52.345,14.768c-0.108,0.379-0.223,0.771-0.346,1.178l0.671-0.621L52.345,14.768L52.345,14.768z"/>
	<polygon fill="#ABC050" points="51.743,16.989 52.438,18.05 53.338,17.326 	"/>
	<path fill="#ABC050" d="M51.554,17.38c-0.22,0.688-0.42,1.302-0.617,1.871l1.208-0.967L51.554,17.38L51.554,17.38z"/>
	<polygon fill="#ABC050" points="53.334,20.104 52.363,18.619 51.125,19.611 	"/>
	<polygon fill="#ABC050" points="50.948,20.091 51.805,21.239 53.154,20.57 	"/>
	<path fill="#ABC050" d="M52.984,12.291c-0.07,0.311-0.146,0.618-0.225,0.93l0.374-0.547L52.984,12.291L52.984,12.291z"/>
	<path fill="#ABC050" d="M53.381,10.4c-0.037,0.193-0.074,0.383-0.112,0.57l0.212-0.312L53.381,10.4L53.381,10.4z"/>
	<polygon fill="#ABC050" points="53.576,8.857 53.549,9.054 53.619,8.952 	"/>
	<polygon fill="#ABC050" points="52.687,13.806 53.655,14.015 53.261,13.001 	"/>
	<polygon fill="#ABC050" points="53.625,8.5 53.616,8.56 53.735,8.855 53.891,8.525 	"/>
	<polygon fill="#ABC050" points="53.914,7.304 53.86,7.072 53.791,7.265 53.788,7.291 	"/>
	<polygon fill="#ABC050" points="53.108,11.736 53.096,11.794 53.331,12.384 53.695,11.849 	"/>
</g>
</svg>
