<?xml version="1.0" encoding="utf-8"?>
<!-- Generator: Adobe Illustrator 16.0.0, SVG Export Plug-In . SVG Version: 6.00 Build 0)  -->
<!DOCTYPE svg PUBLIC "-//W3C//DTD SVG 1.1//EN" "http://www.w3.org/Graphics/SVG/1.1/DTD/svg11.dtd">
<svg version="1.1" id="Layer_1" xmlns="http://www.w3.org/2000/svg" xmlns:xlink="http://www.w3.org/1999/xlink" x="0px" y="0px"
	 width="186.48px" height="29.5px" viewBox="0 -0.5 186.48 29.5" enable-background="new 0 -0.5 186.48 29.5" xml:space="preserve">
<line fill="none" stroke="#000000" stroke-width="3" stroke-miterlimit="10" x1="0" y1="11.65" x2="29.876" y2="11.65"/>
<line fill="none" stroke="#000000" stroke-miterlimit="10" x1="0" y1="17.395" x2="29.876" y2="17.395"/>
<g enable-background="new    ">
	<path d="M78.845,19.279c-2.845,0-5.438-2.053-5.438-6.175c0-4.123,2.683-6.14,5.527-6.14c1.584,0,3.169,0.63,3.673,1.225h0.056
		l0.306-0.702h0.144v4.303h-0.196c-0.686-2.772-1.836-4.483-4.033-4.483c-0.774,0-1.674,0.307-2.376,1.261
		c-0.667,0.9-1.152,2.341-1.152,4.537c0,2.754,0.864,4.177,1.944,5.004c0.504,0.38,1.351,0.56,2.053,0.56
		c1.368,0,2.988-0.576,3.745-3.583l0.18,0.057C82.859,17.588,81.041,19.279,78.845,19.279z"/>
	<path d="M94.344,7.397c-0.324,0.091-0.648,0.36-0.792,0.738c-0.181,0.433-0.306,0.99-0.306,2.161v4.771
		c0,1.009-0.182,1.892-0.56,2.594c-0.468,0.882-1.621,1.619-3.223,1.619c-1.872,0-3.277-0.559-3.836-2.18
		c-0.233-0.646-0.271-1.765-0.271-2.431v-3.295c0-1.278-0.054-2.539-0.27-3.205c-0.127-0.414-0.45-0.648-0.812-0.774
		c-0.18-0.054-0.413-0.09-0.558-0.107v-0.09h5.061v0.09C88.634,7.306,88.4,7.342,88.22,7.395c-0.36,0.126-0.666,0.36-0.811,0.774
		c-0.216,0.666-0.271,1.927-0.271,3.205v3.942c0,0.521,0.019,1.261,0.198,1.836c0.342,1.152,1.044,1.658,2.196,1.658
		c1.313,0,2.467-0.471,2.918-1.334c0.306-0.576,0.448-1.295,0.448-2.341v-4.844c0-1.171-0.144-1.729-0.323-2.161
		c-0.145-0.378-0.469-0.647-0.773-0.738c-0.198-0.054-0.378-0.09-0.63-0.107v-0.09h3.763v0.09
		C94.703,7.307,94.522,7.343,94.344,7.397z"/>
	<path d="M104.297,19.027h-9.094V18.92c0.162-0.02,0.396-0.036,0.559-0.09c0.378-0.126,0.684-0.378,0.828-0.792
		c0.216-0.666,0.27-1.929,0.27-3.205v-3.439c0-1.296-0.054-2.538-0.27-3.204c-0.146-0.433-0.45-0.667-0.828-0.793
		c-0.162-0.054-0.378-0.09-0.54-0.107V7.2h5.077v0.09c-0.162,0.018-0.379,0.054-0.54,0.107c-0.378,0.126-0.702,0.36-0.847,0.793
		c-0.216,0.666-0.271,1.908-0.271,3.204v4.25c0,1.008,0.055,1.639,0.162,2.018c0.107,0.359,0.306,0.63,0.54,0.792
		c0.306,0.216,0.846,0.288,1.241,0.288h0.541c1.009,0,1.621-0.414,2.035-0.848c0.737-0.756,1.151-1.765,1.387-2.483h0.106
		L104.297,19.027z"/>
	<path d="M113.566,10.548c-0.18-0.522-0.756-1.639-1.565-2.322c-0.594-0.505-1.17-0.738-1.998-0.738h-0.738v7.346
		c0,1.277,0.054,2.539,0.271,3.205c0.145,0.414,0.449,0.666,0.827,0.792c0.162,0.054,0.396,0.071,0.56,0.09v0.106h-5.096v-0.106
		c0.161-0.019,0.396-0.036,0.559-0.09c0.378-0.126,0.684-0.378,0.828-0.792c0.216-0.666,0.287-1.928,0.287-3.205V7.487h-0.737
		c-0.81,0-1.423,0.233-2.017,0.738c-0.812,0.684-1.352,1.8-1.55,2.322h-0.106l0.594-3.349h9.398l0.594,3.349L113.566,10.548
		L113.566,10.548z"/>
	<path d="M124.277,7.397c-0.323,0.091-0.647,0.36-0.792,0.738c-0.18,0.433-0.306,0.99-0.306,2.161v4.771
		c0,1.009-0.18,1.892-0.559,2.594c-0.469,0.882-1.621,1.619-3.224,1.619c-1.873,0-3.276-0.559-3.835-2.18
		c-0.232-0.646-0.271-1.765-0.271-2.431v-3.295c0-1.278-0.054-2.539-0.271-3.205c-0.126-0.414-0.448-0.648-0.811-0.774
		c-0.181-0.054-0.414-0.09-0.56-0.107v-0.09h5.062v0.09c-0.146,0.018-0.379,0.054-0.56,0.107c-0.358,0.126-0.666,0.36-0.81,0.774
		c-0.216,0.666-0.271,1.927-0.271,3.205v3.942c0,0.521,0.019,1.261,0.197,1.836c0.343,1.152,1.044,1.658,2.197,1.658
		c1.312,0,2.467-0.471,2.917-1.334c0.306-0.576,0.449-1.295,0.449-2.341v-4.844c0-1.171-0.145-1.729-0.323-2.161
		c-0.144-0.378-0.468-0.647-0.774-0.738c-0.196-0.054-0.378-0.09-0.63-0.107v-0.09h3.764v0.09
		C124.638,7.307,124.457,7.343,124.277,7.397z"/>
	<path d="M132.953,19.027c-0.396-0.449-0.793-1.387-0.884-2.413c-0.106-1.134-0.286-2.213-0.792-2.844
		c-0.396-0.486-0.988-0.576-1.908-0.576h-0.811v1.639c0,1.276,0.054,2.558,0.271,3.224c0.144,0.414,0.432,0.666,0.81,0.793
		c0.162,0.055,0.522,0.07,0.686,0.09v0.09h-5.187v-0.09c0.162-0.02,0.396-0.035,0.558-0.09c0.379-0.127,0.666-0.379,0.811-0.793
		c0.217-0.666,0.271-1.943,0.271-3.224v-3.457c0-1.278-0.054-2.539-0.271-3.205c-0.145-0.414-0.432-0.648-0.811-0.774
		c-0.16-0.054-0.396-0.09-0.558-0.107V7.2h5.131c2.359,0,4.033,1.134,4.033,2.988c0,1.099-0.504,1.801-1.297,2.358
		c-0.305,0.217-0.918,0.396-1.674,0.522v0.054c0.504,0.072,0.937,0.181,1.369,0.486c0.558,0.396,0.937,1.099,1.17,2.324
		c0.287,1.584,0.629,2.357,1.024,2.646c0.252,0.18,0.702,0.342,0.974,0.358v0.09h-2.916V19.027z M129.928,7.487
		c-0.504,0-0.936,0.09-1.152,0.449c-0.196,0.324-0.216,0.883-0.216,1.657v3.259h1.044c1.388,0,1.836-0.216,2.214-0.721
		c0.324-0.449,0.506-1.098,0.506-1.872c0-1.585-0.506-2.772-2.307-2.772H129.928z"/>
	<path d="M145.164,19.154h-8.913v-0.09c0.162-0.021,0.396-0.058,0.559-0.109c0.377-0.125,0.685-0.359,0.828-0.773
		c0.215-0.666,0.271-1.942,0.271-3.223v-3.421c0-1.297-0.056-2.557-0.271-3.223c-0.145-0.433-0.451-0.667-0.828-0.793
		c-0.162-0.054-0.396-0.09-0.559-0.107v-0.09h8.391l0.45,3.295h-0.108c-0.286-1.009-0.772-1.837-1.402-2.413
		c-0.307-0.288-0.812-0.594-1.53-0.594h-0.521c-0.396,0-0.757,0.054-1.046,0.252c-0.81,0.558-0.81,1.98-0.81,2.826v2.179h0.647
		c1.026,0,1.403-0.071,1.745-0.396c0.47-0.433,0.774-1.207,0.849-1.801h0.106v4.683h-0.106c-0.072-0.576-0.324-1.314-0.773-1.711
		c-0.307-0.27-0.793-0.486-1.817-0.486h-0.648v2.63c0,0.812-0.072,2.269,0.702,2.81c0.324,0.217,0.847,0.271,1.242,0.271h0.396
		c1.008,0,1.62-0.324,2.035-0.757c0.738-0.758,1.116-1.692,1.35-2.413h0.092L145.164,19.154z"/>
</g>
<g>
	<path fill="#47C5DD" d="M46.307,25.703c-3.807-2.5-6.32-6.809-6.32-11.703c0-7.729,6.267-13.994,13.995-13.994
		c7.729,0,13.995,6.266,13.995,13.994c0,7.729-6.266,13.995-13.995,13.995c-2.413,0-4.683-0.61-6.665-1.687"/>
	<path fill="#FFFFFF" d="M47.646,25.531V14.835l0.681-0.127l0.509,0.594l2.715,1.483c0.532,0.283,0.884,0.382,1.485,0.425
		c0.757,0.054,1.229-0.043,1.907-0.382c0.48-0.335,0.723-0.598,1.02-1.104c0.522-0.896,0.631-1.624,0.382-2.629l0.976,0.51
		c0.123,0.22,0.198,0.342,0.341,0.552c0.196,0.293,0.318,0.452,0.551,0.722l2.164,1.145c0.507,0.283,0.829,0.4,1.398,0.512
		c0.65,0.123,1.047,0.123,1.697,0c0.551-0.146,0.864-0.322,1.272-0.723c0.541-0.525,0.765-0.987,0.849-1.737
		c0.166-0.59,0.166-0.981,0-1.569c-0.176-0.623-0.401-0.978-0.891-1.4l-1.272-0.721l-1.869-0.85c-0.396-0.129-0.641-0.167-1.06-0.17
		c-0.437-0.003-0.688,0.036-1.104,0.17l-2.503-1.019c-0.227-0.062-0.358-0.079-0.594-0.086C56.1,8.425,55.986,8.436,55.79,8.472
		c-0.417-0.17-0.703-0.2-1.146-0.127c-0.452,0.074-0.718,0.203-1.06,0.51c-0.185,0.127-0.275,0.229-0.382,0.424
		c-0.206,0.378-0.221,0.71-0.042,1.104l-0.936-0.34c-0.363-0.132-0.589-0.171-0.975-0.171c-0.422,0.003-0.67,0.054-1.062,0.214
		l-2.291-0.977c-0.221-0.098-0.354-0.137-0.594-0.169c-0.378-0.054-0.612-0.033-0.975,0.084c-0.266-0.11-0.438-0.142-0.723-0.128
		c-0.387,0.02-0.626,0.105-0.934,0.34c-0.382,0.264-0.566,0.525-0.679,0.977c-0.146,0.575-0.041,1.028,0.339,1.484l0.637,0.466
		L45.48,12.8c-0.068,0.441-0.049,0.719,0.085,1.146c0.192,0.609,0.449,0.953,0.978,1.313v9.611v1.928l1.103,0.336L47.646,25.531
		L47.646,25.531z"/>
	<path fill="#47C5DD" d="M62.472,16.532c-1.698,0-3.075-1.378-3.075-3.075c0-1.699,1.377-3.076,3.075-3.076
		c1.699,0,3.076,1.377,3.076,3.076C65.548,15.154,64.171,16.532,62.472,16.532L62.472,16.532z M57.381,12.608
		c0-1.698,1.377-3.075,3.076-3.075c0.419,0,1.01,0.13,1.377,0.283l0.521,0.236c-1.831,0.062-3.299,1.558-3.299,3.403
		c0,0.74,0.241,1.421,0.644,1.979l-1.282-0.707C57.812,14.408,57.381,13.513,57.381,12.608L57.381,12.608z M63.571,10.239
		c-0.005-0.003-0.005-0.01-0.011-0.013l-1.594-0.723c-0.405-0.168-1.042-0.312-1.51-0.312c-1.888,0-3.415,1.528-3.415,3.415
		c0,0.98,0.46,2.018,1.211,2.419l2.606,1.438c0.016,0.011,0.026,0.002,0.04,0.004c0.474,0.246,1,0.399,1.569,0.399
		c1.886,0,3.415-1.53,3.415-3.415C65.887,11.958,64.915,10.699,63.571,10.239L63.571,10.239z"/>
	<path fill="#47C5DD" d="M44.785,12.287c-0.692-0.292-1.079-0.898-1.079-1.684c0-1.055,0.854-1.909,1.909-1.909
		c0.31,0,0.604,0.075,0.861,0.206c0.201,0.104,0.048,0.404-0.152,0.303c-0.215-0.107-0.454-0.169-0.709-0.169
		c-0.867,0-1.569,0.702-1.569,1.569c0,0.656,0.312,1.136,0.872,1.371C45.125,12.061,44.994,12.375,44.785,12.287L44.785,12.287z"/>
	<path fill="#47C5DD" d="M52.917,10.447c-0.021-0.116-0.031-0.236-0.031-0.363c0-1.054,0.854-1.908,1.908-1.908
		c0.311,0,0.604,0.074,0.863,0.205c0.2,0.104,0.048,0.406-0.153,0.305c-0.213-0.108-0.454-0.17-0.71-0.17
		c-0.866,0-1.569,0.701-1.569,1.568c0,0.107,0.009,0.209,0.026,0.309C53.289,10.614,52.954,10.669,52.917,10.447L52.917,10.447z"/>
	<path fill="#47C5DD" d="M57.199,13.714l-0.902-0.468c-0.202-0.104-0.046-0.405,0.155-0.302l0.901,0.467
		C57.556,13.515,57.399,13.816,57.199,13.714L57.199,13.714z"/>
	<path fill="#47C5DD" d="M55.558,10.341c-0.14,0-0.252,0.112-0.252,0.252c0,0.14,0.112,0.252,0.252,0.252
		c0.142,0,0.253-0.112,0.253-0.252C55.811,10.453,55.696,10.341,55.558,10.341L55.558,10.341z M55.558,10.001
		c0.327,0,0.592,0.266,0.592,0.592c0,0.326-0.266,0.593-0.592,0.593s-0.592-0.267-0.592-0.593
		C54.966,10.265,55.23,10.001,55.558,10.001L55.558,10.001z"/>
	<path fill="#47C5DD" d="M54.588,9.958c-0.13,0.156-0.218,0.352-0.218,0.57c0,0.109,0.024,0.211,0.062,0.309
		c-0.038-0.016-0.071-0.035-0.107-0.048c-0.006-0.003-0.006-0.009-0.012-0.012l-1.016-0.461c0.314-0.142,0.638-0.255,0.963-0.323
		c0.003-0.001,0.004,0,0.006-0.001C54.373,9.968,54.48,9.972,54.588,9.958L54.588,9.958z M55.28,9.957
		c0.317,0,0.574,0.258,0.574,0.572c0,0.316-0.257,0.572-0.574,0.572c-0.313,0-0.57-0.256-0.57-0.572
		C54.709,10.214,54.966,9.957,55.28,9.957L55.28,9.957z M56.3,14.007c0,1.699-1.377,3.076-3.075,3.076
		c-1.699,0-3.076-1.377-3.076-3.076c0-1.697,1.377-3.074,3.076-3.074C54.923,10.931,56.3,12.308,56.3,14.007L56.3,14.007z
		 M49.169,15.279c-0.604-0.32-1.035-1.213-1.035-2.12c0-1.698,1.377-3.075,3.076-3.075c0.419,0,1.01,0.131,1.376,0.285l0.521,0.236
		c-1.831,0.062-3.299,1.557-3.299,3.402c0,0.74,0.242,1.423,0.645,1.979L49.169,15.279L49.169,15.279z M46.818,11.292
		c-0.857,0-1.363,0.512-1.564,1.178c-0.294-0.279-0.3-0.688-0.3-1.213c0-1.158,0.938-2.097,2.097-2.097
		c0.285,0,0.691,0.089,0.941,0.193l1.712,0.755c-0.55,0.271-1.018,0.678-1.351,1.186c-0.001,0-0.002-0.002-0.003-0.002H46.818
		L46.818,11.292z M59.381,9.376l-2.01-0.887c-0.289-0.12-0.739-0.221-1.074-0.221c-0.981,0-1.82,0.582-2.206,1.417
		c-0.406,0.096-0.808,0.237-1.198,0.438c-0.003,0.002-0.003,0.006-0.006,0.006l-0.167-0.074c-0.404-0.17-1.042-0.312-1.51-0.312
		c-0.377,0-0.733,0.075-1.072,0.188c-0.002,0-0.002-0.004-0.004-0.004l-2.01-0.887c-0.288-0.121-0.74-0.223-1.074-0.223
		c-1.346,0-2.438,1.092-2.438,2.438c0,0.689,0.053,1.467,0.604,1.761c0.452,0.239,0.177-1.386,1.602-1.386h1.354
		c-0.232,0.461-0.376,0.976-0.376,1.526c0,0.981,0.46,2.019,1.212,2.419l2.609,1.44c0.014,0.01,0.024,0.002,0.039,0.004
		c0.472,0.248,1.001,0.399,1.568,0.399c1.886,0,3.415-1.528,3.415-3.416c0-0.959-0.399-1.818-1.041-2.435
		c0.567-0.062,1.093,0.188,1.382,0.694c0.11,0.193,0.344,0.115,0.316-0.104l-0.035-0.295c0.161,0.039,0.298-0.175,0.134-0.29
		c-0.434-0.306-0.914-0.458-1.415-0.482c0.127-0.156,0.214-0.35,0.214-0.566c0-0.214-0.085-0.402-0.208-0.559
		c0.621,0.11,1.229,0.347,1.79,0.722c0.188,0.125,0.376-0.158,0.188-0.282c-1.062-0.706-2.271-0.967-3.457-0.795
		c0.368-0.604,1.031-1.006,1.789-1.006c0.286,0,0.692,0.089,0.942,0.193l2.005,0.886C59.451,9.779,59.587,9.468,59.381,9.376
		L59.381,9.376z"/>
	<path fill="#47C5DD" d="M46.933,13.122c0.195,0.089,0.332,0.29,0.332,0.526c0,0.314-0.247,0.572-0.551,0.572
		c-0.202,0-0.378-0.113-0.477-0.281c0.067,0.029,0.144,0.048,0.222,0.048c0.304,0,0.551-0.257,0.551-0.573
		C47.01,13.306,46.981,13.208,46.933,13.122L46.933,13.122z"/>
	<path fill="#47C5DD" d="M60.055,13.457c0,0.375,0.093,0.727,0.246,1.043c0.005,0.01,0.002,0.016,0.008,0.021
		c0.003,0.004,0.007,0.006,0.009,0.01c0.397,0.793,1.208,1.344,2.154,1.344c1.335,0,2.417-1.084,2.417-2.418
		c0-1.336-1.082-2.416-2.417-2.416C61.138,11.04,60.055,12.121,60.055,13.457L60.055,13.457z"/>
	<path fill="#FFFFFF" d="M60.395,13.457c0,0.311,0.072,0.602,0.194,0.865c0.377,0.418,0.89,0.661,1.501,0.661
		c1.146,0,2.078-0.931,2.078-2.078c0-0.33-0.077-0.622-0.214-0.899c-0.001-0.002,0-0.002-0.001-0.004
		c-0.377-0.384-0.901-0.623-1.481-0.623C61.324,11.378,60.395,12.308,60.395,13.457L60.395,13.457z"/>
	<path fill="#47C5DD" d="M50.808,14.007c0,0.377,0.093,0.729,0.246,1.045c0.005,0.009,0.001,0.015,0.008,0.021
		c0.003,0.003,0.006,0.004,0.009,0.008c0.396,0.795,1.207,1.344,2.155,1.344c1.334,0,2.417-1.082,2.417-2.418
		c0-1.334-1.083-2.416-2.417-2.416C51.89,11.591,50.808,12.673,50.808,14.007L50.808,14.007z"/>
	<path fill="#FFFFFF" d="M51.146,14.007c0,0.311,0.073,0.603,0.194,0.865c0.378,0.42,0.89,0.662,1.502,0.662
		c1.147,0,2.078-0.931,2.078-2.078c0-0.33-0.077-0.621-0.215-0.9c-0.001-0.002,0-0.002,0-0.004
		c-0.377-0.383-0.901-0.621-1.481-0.621C52.077,11.929,51.146,12.86,51.146,14.007L51.146,14.007z"/>
</g>
<line fill="none" stroke="#000000" stroke-miterlimit="10" x1="156.606" y1="16.868" x2="186.481" y2="16.868"/>
<line fill="none" stroke="#000000" stroke-width="3" stroke-miterlimit="10" x1="156.605" y1="11.186" x2="186.482" y2="11.186"/>
</svg>
