<?xml version="1.0" encoding="utf-8"?>
<!-- Generator: Adobe Illustrator 18.0.0, SVG Export Plug-In . SVG Version: 6.00 Build 0)  -->
<!DOCTYPE svg PUBLIC "-//W3C//DTD SVG 1.1//EN" "http://www.w3.org/Graphics/SVG/1.1/DTD/svg11.dtd">
<svg version="1.1" id="Layer_1" xmlns="http://www.w3.org/2000/svg" xmlns:xlink="http://www.w3.org/1999/xlink" x="0px" y="0px"
	 viewBox="283.7 370.5 44.6 51" enable-background="new 283.7 370.5 44.6 51" xml:space="preserve">
<path id="note-4-icon_2_" fill="none" d="M307.8,409.5c-2.2,0.3-4.5,0.4-6.7,0.5c-0.6,0-1.1,0-1.7,0c-0.6,0-1.1-0.1-1.7-0.1
	c-1.1-0.1-2.2-0.2-3.4-0.2h-0.2v-0.2c0-1.2-0.1-2.4-0.1-3.6l0-0.3l0.4,0c1.1-0.1,2.2-0.2,3.4-0.2l3.4-0.1c1.1,0,2.2,0,3.4,0l1.7,0.1
	c0.6,0,1.1,0,1.7,0.1l0.5,0l0,0.4C308.1,407,308,408.2,307.8,409.5L307.8,409.5L307.8,409.5z M307.7,409.4c-0.1-1-0.2-2.1-0.3-3.1
	c0-0.2-0.7,0-1.3,0.1l-1.7,0.1c-1.1,0-2.2,0-3.4,0l-3.4-0.1c-1,0-2-0.1-3-0.2c-0.1,0-0.1,1.9-0.1,3.1c0,0.1,2.1-0.1,3.2-0.2
	c0.6,0,1.1-0.1,1.7-0.1c0.6,0,1.1,0,1.7,0C303.3,408.9,305.5,409,307.7,409.4z M317.8,401.6c-2,0.2-3.9,0.3-5.9,0.4
	c-2,0.1-3.9,0.1-5.9,0.1c-2,0-3.9-0.1-5.9-0.2c-2-0.1-3.9-0.1-5.9-0.1h-0.2v-0.2c0-1.2-0.1-2.4-0.1-3.6l0-0.3l0.3,0
	c2-0.1,3.9-0.2,5.9-0.2c2,0,3.9-0.1,5.9-0.1c2,0,3.9,0,5.9,0.1l2.9,0.1c1,0,2,0.1,2.9,0.1l0.3,0l0,0.3
	C318.1,399.1,318,400.3,317.8,401.6L317.8,401.6L317.8,401.6z M317.7,401.5c-0.1-1.1-0.2-2.1-0.2-3.2c0-0.1-1.6,0.1-2.6,0.1
	l-2.9,0.1c-2,0.1-3.9,0.1-5.9,0.1c-2,0-3.9-0.1-5.9-0.1c-1.8,0-3.7-0.1-5.5-0.2c-0.1,0-0.1,1.8-0.1,3.1c0,0.1,3.7,0,5.7-0.1
	c2-0.1,3.9-0.2,5.9-0.2c2,0,3.9,0,5.9,0.1C313.9,401.2,315.8,401.3,317.7,401.5z M317.8,393.7c-2,0.2-3.9,0.3-5.9,0.4
	c-2,0.1-3.9,0.1-5.9,0.1c-2,0-3.9-0.1-5.9-0.2c-2-0.1-3.9-0.1-5.9-0.1h-0.2v-0.2c0-1.2-0.1-2.4-0.1-3.6l0-0.3l0.3,0
	c2-0.1,3.9-0.2,5.9-0.2c2,0,3.9-0.1,5.9-0.1c2,0,3.9,0,5.9,0.1l2.9,0.1c1,0,2,0.1,2.9,0.1l0.3,0l0,0.3
	C318.1,391.2,318,392.4,317.8,393.7L317.8,393.7L317.8,393.7z M317.7,393.6c-0.1-1.1-0.2-2.1-0.2-3.2c0-0.1-1.6,0.1-2.6,0.1
	l-2.9,0.1c-2,0.1-3.9,0.1-5.9,0.1c-2,0-3.9-0.1-5.9-0.1c-1.8,0-3.7-0.1-5.5-0.2c-0.1,0-0.1,1.9-0.1,3.1c0,0.1,3.7,0,5.7-0.1
	c2-0.1,3.9-0.2,5.9-0.2c2,0,3.9,0,5.9,0.1C313.9,393.3,315.8,393.4,317.7,393.6z M289.1,416.1c-0.1-2.8-0.2-5.6-0.3-8.3
	c0-2.8-0.1-5.6-0.1-8.3l-0.1-8.3c0-2.8,0-5.6,0-8.3l0-0.5l0.5,0l8.4,0.2c2.8,0.1,5.6,0.1,8.4,0.1c2.8,0,5.6,0,8.4,0l8.4-0.1l0.3,0
	l0,0.4c0.1,5.4,0.2,10.7,0.2,16.1l0,2l0,1c0,0.2,0,0.3,0,0.6l0,0.5c0,0.6-0.2,1.4-0.5,2.1c-0.2,0.3-0.3,0.7-0.6,1
	c-0.3,0.3-0.5,0.6-0.8,0.8c-0.3,0.2-0.6,0.5-1,0.6l-0.5,0.2l-0.5,0.1c-0.7,0.2-1.4,0.2-2.2,0.3c-0.7,0-1.4-0.1-2.1-0.2
	c-0.3,0-0.6-0.2-1-0.2c-0.1,0,0.1,0.3,0.2,1c0.1,0.7,0.2,1.4,0.1,2.1c0,0.4,0,0.7-0.1,1.1c0,0.4-0.1,0.7-0.2,1.1
	c-0.2,0.7-0.6,1.4-1,2c-0.3,0.3-0.5,0.6-0.9,0.8c-0.3,0.2-0.7,0.4-1,0.5c-0.4,0.1-0.7,0.2-1.1,0.3l-1.1,0.1l-4-0.1l-8.1-0.2
	C294.6,416.3,291.9,416.2,289.1,416.1L289.1,416.1L289.1,416.1z M289.2,416c2.7-0.1,5.3-0.2,8-0.2l8.1-0.2l4-0.1l0.9-0.1
	c0.3,0,0.6-0.2,0.9-0.2c0.3-0.1,0.5-0.3,0.8-0.4c0.2-0.2,0.4-0.4,0.6-0.6c0.3-0.5,0.6-1,0.7-1.6c0.1-0.3,0.1-0.6,0.2-0.9
	c0-0.3,0-0.6,0.1-0.9c0-0.6-0.1-1.3-0.2-1.9c-0.1-0.6-0.2-1.3-0.4-1.9l-0.3-1.1l1.1,0.3c0.6,0.2,1.2,0.3,1.9,0.4
	c0.6,0.1,1.3,0.2,1.9,0.2c0.6,0,1.2-0.1,1.8-0.2l0.4-0.1l0.4-0.2c0.3-0.1,0.5-0.3,0.7-0.4c0.3-0.1,0.4-0.4,0.6-0.6
	c0.2-0.2,0.3-0.5,0.4-0.7c0.2-0.5,0.4-1,0.4-1.8l0-0.5l0-0.4l0-1l0-2c0-5.2,0.1-10.5,0.2-15.7c0-0.1-8.1-0.1-8.1-0.1
	c-2.8,0-5.6-0.1-8.4,0c-2.8,0-5.6,0-8.4,0.1l-7.9,0.2c0,0,0,5.1,0,7.8l-0.1,8.3c0,2.8-0.1,5.6-0.1,8.3
	C289.4,410.5,289.3,413.2,289.2,416z M327.7,402.7l-0.1-7.9c0-2.6-0.1-5.3-0.1-7.9l-0.2-7.9c-0.1-2.5-0.1-4.9-0.1-7.4
	c0-0.2-6.7,0-10.4,0c-3.6,0-7.2-0.1-10.9-0.1c-3.6,0-7.2-0.1-10.9-0.1c-3.6,0-7.1-0.1-10.7,0c-0.1,0,0.2,16.4,0.3,24.7
	c0.1,8.1,0.1,16.2,0.2,24.3c0,0.2,12.6,0,12.6,0c2.2,0,4.4,0,6.6,0l3.3,0l1.7,0c0.5,0,1.1-0.1,1.6-0.1c0.5-0.1,1-0.2,1.5-0.3
	c0.5-0.1,1-0.3,1.5-0.5c1-0.4,2-0.8,2.9-1.4c0.5-0.2,0.9-0.6,1.4-0.9c0.5-0.3,0.9-0.6,1.3-1c0.4-0.3,0.9-0.7,1.2-1
	c0.4-0.4,0.8-0.7,1.2-1.1c0.4-0.4,0.8-0.8,1.1-1.2l1-1.3l0.9-1.3c0.3-0.5,0.6-0.9,0.8-1.4c0.5-1,1-2,1.3-3c0.2-0.5,0.3-1.1,0.4-1.6
	C327.7,403.8,327.7,403.2,327.7,402.7z M327.9,402.7c-0.1,0.5-0.1,1.1-0.2,1.7c-0.1,0.5-0.2,1.1-0.4,1.6c-0.3,1.1-0.8,2.1-1.3,3.1
	c-0.3,0.5-0.5,1-0.8,1.4l-0.9,1.4l-1,1.3c-0.3,0.4-0.7,0.8-1.1,1.2c-0.4,0.4-0.8,0.8-1.2,1.2c-0.4,0.4-0.8,0.8-1.2,1.1
	c-0.4,0.4-0.8,0.7-1.3,1s-0.9,0.7-1.4,1c-0.9,0.6-1.9,1.1-3,1.6c-0.5,0.2-1,0.4-1.6,0.6c-0.6,0.1-1.1,0.3-1.7,0.4
	c-0.6,0-1.1,0.1-1.7,0.1l-1.7,0l-3.3,0c-2.2,0-4.4,0-6.6,0l-13.2,0h-0.6v-0.6c0.1-8.3,0.1-16.6,0.2-24.9c0.1-8.3,0.2-16.6,0.3-24.9
	v-0.2h0.2c3.6,0,7.2,0,10.9,0c3.6,0,7.2-0.1,10.9-0.1c3.6,0,7.2-0.1,10.9-0.1c3.6,0,7.2-0.1,10.9,0l0.5,0l0,0.5c0,2.6,0,5.3-0.1,7.9
	l-0.2,7.9c0,2.6-0.1,5.3-0.1,7.9L327.9,402.7z"/>
</svg>
