<?xml version="1.0" encoding="utf-8"?>
<!-- Generator: Adobe Illustrator 16.0.0, SVG Export Plug-In . SVG Version: 6.00 Build 0)  -->
<!DOCTYPE svg PUBLIC "-//W3C//DTD SVG 1.1//EN" "http://www.w3.org/Graphics/SVG/1.1/DTD/svg11.dtd">
<svg version="1.1" id="Layer_1" xmlns="http://www.w3.org/2000/svg" xmlns:xlink="http://www.w3.org/1999/xlink" x="0px" y="0px"
	 width="143.92px" height="21.54px" viewBox="0 0 143.92 21.54" enable-background="new 0 0 143.92 21.54" xml:space="preserve">
<path fill="#F26F21" d="M25.702,5.95h0.057l2.538,7.104h-5.217 M15.861,20.538h4.483l1.58-4.312h7.529l1.523,4.312h4.596
	l-7.529-19.36h-4.54L15.861,20.538z M1,20.538h14.241v-3.579H5.427V1.178H1V20.538z"/>
<path fill="#231F20" d="M142.688,20.609l0.232-4.076h-1.392l-0.231,2.863h-8.029l0.115-16.852h2.319V1.333h-6.377v1.211h2.435
	l-0.115,16.852h-2.319v1.213 M120.688,11.357h-6.552l3.074-7.215c0.145-0.358,0.289-0.688,0.348-1.046h0.057
	c0.059,0.358,0.203,0.688,0.348,1.046L120.688,11.357z M107.182,20.609h6.261v-1.213h-2.696l2.87-6.828h7.536l2.637,6.828h-2.521
	v1.213h6.376v-1.213h-2.116l-6.956-18.062h-1.623l-7.826,18.062h-1.941V20.609z M105.297,20.609v-1.213h-2.435l0.116-16.852h2.318
	V1.333H98.92v1.211h2.436l-0.116,16.852H98.92v1.213H105.297z M93.646,16.203l-0.029,2.974c-1.014,0.22-2.464,0.44-4.116,0.44
	c-5.42,0-8.84-3.166-8.84-8.48c0-5.453,3.594-8.812,9.014-8.812c1.652,0,2.986,0.193,4.262,0.523l-0.059,2.891h1.508l0.058-3.855
	c-1.565-0.55-3.651-0.881-5.651-0.881c-6.349,0-10.754,3.663-10.754,9.968c0,6.719,4.348,9.969,10.26,9.969
	c2.436,0,4.465-0.496,5.826-0.743l0.029-3.993H93.646z M74.168,10.97c0,5.508-2.928,8.646-7.74,8.646
	c-4.811,0-7.739-3.139-7.739-8.646c0-5.507,2.928-8.646,7.739-8.646C71.24,2.325,74.168,5.463,74.168,10.97 M75.791,10.97
	c0-5.672-2.695-9.968-9.363-9.968c-6.579,0-9.362,4.571-9.362,9.968c0,5.672,2.696,9.969,9.362,9.969
	C73.008,20.939,75.791,16.368,75.791,10.97 M40.922,16.257l0.058,3.772c1.391,0.413,3.797,0.909,6,0.909
	c4.319,0,6.898-2.203,6.898-5.287c0-7.379-11.188-3.717-11.188-9.583c0-2.01,1.826-3.745,4.956-3.745c1.711,0,3.015,0.22,4,0.551
	l0.058,2.533h1.392l-0.058-3.525c-1.102-0.385-2.986-0.881-5.276-0.881c-4.695,0-6.695,2.781-6.695,5.37
	c0,6.855,11.188,3.387,11.188,9.252c0,2.12-1.565,3.992-5.42,3.992c-1.536,0-3.275-0.33-4.348-0.717l-0.058-2.643H40.922z"/>
</svg>
