<?xml version="1.0" encoding="utf-8"?>
<!-- Generator: Adobe Illustrator 19.1.0, SVG Export Plug-In . SVG Version: 6.00 Build 0)  -->
<svg version="1.1" id="Layer_1" xmlns="http://www.w3.org/2000/svg" xmlns:xlink="http://www.w3.org/1999/xlink" x="0px" y="0px"
	 viewBox="0 0 97 11" style="enable-background:new 0 0 97 11;" xml:space="preserve">
<style type="text/css">
	.st0{fill:#F2F2F2;}
</style>
<g>
	<path class="st0" d="M2.9,4.7C3.1,4.6,3.4,4.5,4,4.5c0,0,0,0,0,0c1.3,0,1.5,1,1.7,1.4l0,0l1.2-0.3l0,0c0-0.3,0-0.4-0.1-0.5
		C6.5,4.4,5.9,3.8,5.1,3.5C4.6,3.4,4.2,3.4,4,3.4c-1.2,0-2.2,0.5-2.9,1.4C0.9,5.1,0.7,5.3,0.5,5.6C0.2,6.3,0,7.1,0,7.9
		c0,2,1.2,2.7,1.9,2.9C2.4,11,2.8,11,3.1,11c1.2,0,2-0.3,2.8-1.2c0.3-0.4,0.5-0.7,0.7-1.2l0-0.1L5.2,8.4l0,0c0,0,0,0.1,0,0.1
		C5.1,8.6,5,8.9,4.9,9.1C4.6,9.5,4.1,9.8,3.7,10C3.4,10,3.3,10,3.1,10c-0.1,0-0.3,0-0.6-0.1C2,9.8,1.3,9.1,1.3,7.9
		C1.3,7.8,1.3,5.7,2.9,4.7z"/>
	<path class="st0" d="M12.8,3.6c-0.4-0.2-0.8-0.2-1.2-0.2c-1.1,0-1.9,0.5-2.1,0.6C9,4.3,8.7,4.7,8.4,5.1C7.6,6.2,7.6,7.5,7.6,7.8
		c0,2.1,1.3,2.8,1.9,3C9.9,11,10.4,11,10.6,11c0.9,0,2.1-0.3,3-1.5h0c0.8-1.1,1-2.2,1-3C14.6,4.6,13.5,3.9,12.8,3.6z M13.3,6.4
		c0,1.1-0.3,2.1-1,2.8C11.7,10,10.7,10,10.6,10c-0.2,0-0.6,0-1-0.3C9.1,9.3,8.9,8.8,8.9,7.9c0-1.1,0.4-2.6,1.7-3.2
		c0.3-0.2,0.7-0.3,1-0.3c0.7,0,1.3,0.4,1.5,1.1l0,0C13.3,5.8,13.3,6.1,13.3,6.4z"/>
	<path class="st0" d="M25.7,3.8c-0.3-0.3-0.9-0.4-1.3-0.4c-0.9,0-1.6,0.4-1.9,0.7c-0.2,0.2-0.5,0.5-0.6,0.6c0-0.2-0.1-0.3-0.1-0.3
		c-0.3-0.7-1-0.9-1.6-0.9c-0.3,0-1.1,0.1-1.8,0.7c-0.2,0.2-0.3,0.3-0.4,0.5l0.2-0.9l0-0.1H17l-1.7,7.2h1.3l0.9-3.7
		c0.1-0.4,0.2-0.8,0.4-1.2c0.3-0.8,0.9-1.2,1.2-1.3c0.2-0.1,0.5-0.2,0.8-0.2c0.1,0,0.3,0,0.5,0.1c0.3,0.1,0.5,0.4,0.5,0.9
		c0,0.3-0.1,0.6-0.2,1.2c0,0.2-0.1,0.3-0.1,0.5l-0.8,3.6l0,0.1h1.3l0.9-4.1c0.2-0.8,0.4-1.5,1.2-2c0.4-0.2,0.8-0.3,1-0.3
		c0.5,0,1.1,0.2,1.1,0.9c0,0.3-0.1,0.7-0.2,1.1l-1,4.4h1.3l1-4.2l0-0.1c0.1-0.4,0.2-0.9,0.2-1.3C26.3,4.3,25.9,3.9,25.7,3.8z"/>
	<path class="st0" d="M31.4,3.4c-1.3,0-2.1,0.6-2.5,1c-1.4,1.2-1.5,3-1.5,3.5c0,1.5,0.7,2.5,1.9,2.9c0.5,0.1,0.9,0.2,1.1,0.2
		c1.9,0,2.8-1.1,3.2-1.6c0.1-0.1,0.2-0.3,0.3-0.6l0-0.1l-1.2-0.2l0,0c-0.1,0.1-0.2,0.4-0.4,0.7c-0.4,0.4-1,0.7-1.6,0.7
		c-0.4,0-0.8-0.1-1.2-0.4c-0.6-0.4-0.9-1.2-0.8-2.3l5.3,0l0,0c0.1-0.5,0.1-0.7,0.1-1c0-1.2-0.4-1.8-0.7-2.2
		C32.9,3.7,32.2,3.4,31.4,3.4z M29,6.4C29,6.3,29,6.1,29.1,6c0.1-0.2,0.2-0.4,0.3-0.5c0.3-0.5,0.8-0.8,1.3-1c0.1,0,0.4-0.1,0.6-0.1
		c0.2,0,1,0,1.4,0.9l0,0c0.2,0.5,0.2,0.9,0.2,1.1H29z"/>
	<path class="st0" d="M42.1,1.4L42.1,1.4l-1.2-0.1l-0.5,2.3h-1.1l-0.2,1h1.2l-1,4.1C39,9.2,39,9.5,39,9.8c0,0.7,0.4,1.1,1.2,1.1
		c0.2,0,0.7,0,0.9-0.1c0.1,0,0.1,0,0.2-0.1c0,0,0,0,0.1,0l0,0l0.2-1l-0.1,0c-0.1,0-0.2,0-0.3,0.1c-0.2,0-0.3,0.1-0.5,0.1
		c-0.4,0-0.5-0.1-0.5-0.4c0-0.1,0.1-0.4,0.1-0.7l0.9-4.1h1.3l0.2-1h-1.3L42.1,1.4z"/>
	<polygon class="st0" points="45.6,9.4 45.2,3.6 45.2,3.6 44,3.6 44.7,10.8 46,10.8 50.4,3.6 50.4,3.6 49,3.6 	"/>
	<polygon class="st0" points="64.8,3.6 63.4,3.6 60.4,9.3 59.9,3.6 59.8,3.6 58.6,3.6 55.6,9.3 55.2,3.6 55.2,3.6 53.9,3.6 
		54.7,10.8 55.9,10.8 58.9,5.1 59.4,10.8 59.4,10.8 60.6,10.8 64.8,3.6 	"/>
	<path class="st0" d="M71.6,1.4L71.6,1.4l-1.2-0.1l-0.5,2.3h-1.1l-0.2,1h1.2l-1,4.1c-0.1,0.6-0.2,0.9-0.2,1.1c0,0.7,0.4,1.1,1.2,1.1
		c0.2,0,0.7,0,0.9-0.1c0.1,0,0.1,0,0.2-0.1c0,0,0,0,0.1,0l0,0l0.2-1l-0.1,0c-0.1,0-0.2,0-0.3,0.1c-0.2,0-0.3,0.1-0.5,0.1
		c-0.4,0-0.5-0.1-0.5-0.4c0-0.1,0.1-0.4,0.1-0.7l0.9-4.1h1.3l0.2-1h-1.3L71.6,1.4z"/>
	<polygon class="st0" points="64.4,10.8 65.7,10.8 67.4,3.6 67.4,3.6 66.1,3.6 	"/>
	<circle class="st0" cx="67.1" cy="1.7" r="0.8"/>
	<path class="st0" d="M77.5,3.4c-1.1,0-1.7,0.5-1.9,0.7c-0.2,0.2-0.4,0.3-0.5,0.5L76.1,0h-1.3l-2.5,10.8h1.3l0.8-3.4
		c0-0.1,0-0.1,0-0.2c0.1-0.2,0.1-0.5,0.2-0.7c0-0.1,0.2-0.4,0.3-0.6c0.5-0.8,0.9-1,1.3-1.2c0.4-0.1,0.6-0.1,0.8-0.1
		c0.5,0,1.1,0.3,1.1,1c0,0.2,0,0.3-0.1,0.7L77,10.8h1.3l1-4.5c0,0,0.2-0.7,0.2-1.2c0-0.5-0.2-0.8-0.3-1C79,3.8,78.5,3.4,77.5,3.4z"
		/>
	<path class="st0" d="M88.4,6.8c0,0.1,0,0.2-0.1,0.2c-0.2,0.8-0.4,1.6-0.9,2.2c-0.6,0.6-1.4,0.7-1.7,0.7c-0.6,0-1-0.3-1.1-0.5
		c-0.1-0.1-0.1-0.3-0.1-0.5c0-0.4,0-0.5,0.2-1l1-4.3h-1.3l-1,4.3c0,0.1,0,0.1,0,0.2c-0.1,0.4-0.2,0.8-0.2,1.1c0,0.4,0.1,1.2,1.1,1.6
		c0.4,0.1,0.7,0.1,0.9,0.1c0.8,0,1.7-0.3,2.2-0.8c0.1-0.1,0.2-0.2,0.3-0.3l-0.2,1h1.2l1.7-7.2h-1.2L88.4,6.8z"/>
	<path class="st0" d="M96.8,4.5C96.6,4,96,3.4,94.4,3.4c-1.1,0-1.9,0.3-2.5,1c-0.3,0.4-0.4,0.8-0.4,1.2c0,0.6,0.3,1.1,0.9,1.5
		c0.2,0.1,0.5,0.2,0.6,0.3c0,0,0,0,0,0l1.3,0.5c0.8,0.3,1,0.6,1,1c0,0.3-0.2,0.6-0.2,0.7c-0.2,0.2-0.6,0.5-1.5,0.5h0c0,0,0,0,0,0
		c-0.5,0-0.9-0.1-1.2-0.3c-0.3-0.2-0.5-0.6-0.5-1c0-0.2,0-0.4,0.1-0.5c0,0,0-0.1,0-0.1l0-0.1l-1.3,0.2l0,0c0,0.2,0,0.4,0,0.5
		c0,1.6,1.3,2,1.8,2.1c0.3,0.1,0.6,0.1,1.1,0.1c0.8,0,1.6-0.1,2.3-0.6c0.6-0.4,0.9-1.1,0.9-1.8c0-0.7-0.4-1.2-1.1-1.6
		c-0.1,0-0.1,0-0.2-0.1c-0.1-0.1-0.2-0.1-0.3-0.1l-1.2-0.5l-0.1,0c-0.4-0.2-0.9-0.3-0.9-0.9c0-0.4,0.3-0.7,0.5-0.8
		c0.3-0.1,0.7-0.2,1-0.2c0.8,0,1.1,0.4,1.2,0.6c0.1,0.1,0.1,0.2,0.1,0.4c0,0.2,0,0.4,0,0.4l0,0.1L97,5.6l0-0.1c0-0.1,0-0.1,0-0.2
		C97,4.9,96.9,4.6,96.8,4.5z"/>
</g>
</svg>
