<?xml version="1.0" encoding="utf-8"?>
<!DOCTYPE svg PUBLIC "-//W3C//DTD SVG 1.0//EN" "http://www.w3.org/TR/2001/REC-SVG-20010904/DTD/svg10.dtd">
<svg version="1.0" id="Layer_1" xmlns="http://www.w3.org/2000/svg" xmlns:xlink="http://www.w3.org/1999/xlink" width="2500px" height="820px" viewBox="0 0 250 82" xml:space="preserve">
<g>
	<path fill="#66aa33" d="M39.296,25.588H26.562c-4.466,0-6.711,1.199-6.711,1.199V0H0v82h19.851V48.911
		c0-2.926,2.384-5.297,5.32-5.297h11.554c2.941,0,5.318,2.371,5.318,5.297V82H61.9V46.349C61.9,31.358,51.863,25.588,39.296,25.588
		 M230.143,25.588v33.084c0,2.929-2.378,5.3-5.317,5.3h-11.551c-2.94,0-5.32-2.371-5.32-5.3V25.588h-19.86v34.734
		c0,14.198,9.125,21.678,22.609,21.678h19.442v-0.101c12.419,0,19.854-8.802,19.854-21.577V25.588H230.143z M118.14,58.672
		c0,2.929-2.379,5.3-5.318,5.3h-11.553c-2.941,0-5.319-2.371-5.319-5.3V25.588H76.092v34.734C76.092,74.52,85.217,82,98.7,82h19.441
		v-0.101c12.42,0,19.857-8.802,19.857-21.577V25.588H118.14V58.672z M153.131,82h19.86V0h-19.86V82z"/>
</g>
</svg>
