<?xml version="1.0" encoding="utf-8"?>
<!-- Generator: Adobe Illustrator 17.0.0, SVG Export Plug-In . SVG Version: 6.00 Build 0)  -->
<!DOCTYPE svg PUBLIC "-//W3C//DTD SVG 1.1//EN" "http://www.w3.org/Graphics/SVG/1.1/DTD/svg11.dtd">
<svg version="1.1" id="Layer_1" xmlns="http://www.w3.org/2000/svg" xmlns:xlink="http://www.w3.org/1999/xlink" x="0px" y="0px"
	 width="24px" height="24px" viewBox="0 0 24 24" enable-background="new 0 0 24 24" xml:space="preserve">
<path fill="#FFFFFF" d="M17.653,11.263l-8.475-5.09C8.51,5.77,7.858,6.096,7.858,6.901v10.198c0,0.806,0.651,1.131,1.32,0.728
	l8.458-5.09C18.304,12.334,18.313,11.666,17.653,11.263z"/>
<path fill="#FFFFFF" d="M12,2.182c-5.422,0-9.818,4.396-9.818,9.818S6.578,21.818,12,21.818s9.818-4.396,9.818-9.818
	S17.422,2.182,12,2.182z M12,24C5.367,24,0,18.633,0,12S5.367,0,12,0s12,5.367,12,12S18.633,24,12,24z"/>
</svg>
