<?xml version="1.0" encoding="utf-8"?>
<!-- Generator: Adobe Illustrator 16.0.0, SVG Export Plug-In . SVG Version: 6.00 Build 0)  -->
<!DOCTYPE svg PUBLIC "-//W3C//DTD SVG 1.1//EN" "http://www.w3.org/Graphics/SVG/1.1/DTD/svg11.dtd">
<svg version="1.1" id="Layer_1" xmlns="http://www.w3.org/2000/svg" xmlns:xlink="http://www.w3.org/1999/xlink" x="0px" y="0px"
	 width="157.877px" height="27.99px" viewBox="0 0 157.877 27.99" enable-background="new 0 0 157.877 27.99" xml:space="preserve">
<line fill="none" stroke="#000000" stroke-width="3" stroke-miterlimit="10" x1="0" y1="11.645" x2="29.876" y2="11.645"/>
<line fill="none" stroke="#000000" stroke-miterlimit="10" x1="0" y1="17.389" x2="29.876" y2="17.389"/>
<g enable-background="new    ">
	<path d="M82.249,10.776c-0.306-1.009-0.774-1.783-1.422-2.377c-0.288-0.271-0.882-0.63-1.584-0.63h-0.198
		c-1.134,0-1.638,0.252-1.873,1.386c-0.108,0.522-0.108,1.297-0.108,2.215v1.513h0.63c1.026,0,1.422-0.072,1.782-0.396
		c0.45-0.432,0.774-1.206,0.828-1.801h0.09v4.682h-0.09c-0.054-0.576-0.306-1.314-0.756-1.71c-0.306-0.271-0.828-0.486-1.854-0.486
		h-0.63v1.944c0,1.278,0.072,2.557,0.288,3.223c0.144,0.414,0.45,0.648,0.81,0.774c0.18,0.054,0.396,0.09,0.541,0.108v0.09h-5.06
		v-0.09c0.144-0.019,0.378-0.055,0.558-0.108c0.36-0.126,0.684-0.36,0.81-0.774c0.216-0.666,0.288-1.944,0.288-3.223v-3.421
		c0-1.297-0.072-2.557-0.288-3.223c-0.126-0.433-0.45-0.667-0.81-0.793c-0.18-0.054-0.414-0.09-0.558-0.107v-0.09h8.39l0.324,3.295
		H82.249z"/>
	<path d="M88.278,19.562c-3.295,0-5.474-2.539-5.474-6.14c0-3.619,2.179-6.176,5.474-6.176s5.474,2.557,5.474,6.176
		C93.751,17.023,91.573,19.562,88.278,19.562z M89.935,8.021c-0.558-0.433-1.152-0.486-1.657-0.486
		c-0.522,0-1.116,0.054-1.656,0.486c-1.081,0.846-1.765,2.25-1.765,5.401c0,3.133,0.684,4.501,1.765,5.365
		c0.54,0.414,1.134,0.486,1.656,0.486c0.504,0,1.116-0.054,1.657-0.486c1.08-0.846,1.764-2.232,1.764-5.365
		C91.699,10.271,90.997,8.867,89.935,8.021z"/>
	<path d="M100.302,19.562c-3.295,0-5.474-2.539-5.474-6.14c0-3.619,2.179-6.176,5.474-6.176s5.474,2.557,5.474,6.176
		C105.776,17.023,103.597,19.562,100.302,19.562z M101.959,8.021c-0.558-0.433-1.152-0.486-1.657-0.486
		c-0.522,0-1.116,0.054-1.656,0.486c-1.081,0.846-1.765,2.25-1.765,5.401c0,3.133,0.684,4.501,1.765,5.365
		c0.54,0.414,1.134,0.486,1.656,0.486c0.504,0,1.116-0.054,1.657-0.486c1.08-0.846,1.764-2.232,1.764-5.365
		C103.723,10.271,103.021,8.867,101.959,8.021z"/>
	<path d="M115.189,8.184c1.621,0.882,2.737,2.629,2.737,5.221c0,2.594-1.116,4.322-2.737,5.204
		c-0.756,0.396-1.638,0.702-2.665,0.702h-6.032v-0.108c0.162-0.018,0.396-0.036,0.558-0.09c0.378-0.126,0.684-0.36,0.828-0.774
		c0.216-0.666,0.288-1.944,0.288-3.223v-3.439c0-1.278-0.072-2.557-0.288-3.223c-0.144-0.414-0.45-0.648-0.828-0.774
		c-0.162-0.054-0.396-0.071-0.558-0.09V7.481h6.032C113.551,7.481,114.433,7.787,115.189,8.184z M111.876,7.77
		c-0.396,0-0.918,0.054-1.224,0.27c-0.811,0.559-0.72,1.963-0.72,2.809v5.096c0,0.847-0.09,2.251,0.72,2.809
		c0.306,0.217,0.828,0.271,1.224,0.271h0.396c0.792,0,1.548-0.288,2.196-0.9c0.918-0.9,1.549-2.431,1.549-4.718
		c0-2.286-0.63-3.853-1.549-4.735c-0.648-0.611-1.404-0.899-2.196-0.899H111.876z"/>
</g>
<line fill="none" stroke="#000000" stroke-miterlimit="10" x1="128.001" y1="16.9" x2="157.876" y2="16.9"/>
<line fill="none" stroke="#000000" stroke-width="3" stroke-miterlimit="10" x1="128" y1="11.156" x2="157.877" y2="11.156"/>
<g>
	<path fill="#FCB316" d="M39.914,14.028c0,0,6.266,0,13.995,0c7.729,0,13.995,0,13.995,0s-2.261,0-5.742,0l0,0
		c1.422,0,2.447,0,2.447,0s-1.602,0-3.578,0c-1.977,0-3.579,0-3.579,0s1.114,0,2.63,0l0,0c-1.429,0-2.996,0-4.649,0l0,0h-0.856
		h0.856h-0.489c0.071,0-0.56,0-1.285,0c-0.675,0-1.195,0-1.162,0h-0.367h0.918h-0.612l0,0c-1.609,0-3.137,0-4.536,0l0,0
		c1.283,0,2.192,0,2.141,0h-0.973c-0.172,0-0.392,0-0.604,0h0.354c0.08,0-0.091,0-0.306,0c-0.177,0-0.321,0-0.336,0h-0.486
		c-0.167,0-0.34,0-0.519,0h0.057c0.003,0-0.198,0-0.397,0c-0.176,0-0.294,0-0.275,0h-0.228c-0.195,0-0.386,0-0.571,0h-0.057
		c-0.016,0-0.206,0-0.398,0c-0.158,0-0.263,0-0.275,0h-0.029c-0.199,0-0.354,0-0.528,0h-0.635c0.104,0,1.03,0,2.263,0l0,0
		C42.366,14.028,39.914,14.028,39.914,14.028L39.914,14.028z"/>
</g>
<g>
	<path fill="#FCB316" d="M39.867,14.034C39.867,6.283,46.132,0,53.862,0c7.729,0,13.995,6.283,13.995,14.034
		c0,4.656-2.261,8.782-5.742,11.334v-7.597c1.422-0.678,2.447-2.598,2.447-4.86c0-2.829-1.602-5.122-3.578-5.122
		c-1.977,0-3.579,2.293-3.579,5.122c0,2.359,1.114,4.345,2.63,4.94v8.781c-1.429,0.706-2.996,1.174-4.649,1.353v-8.725l-0.856-0.675
		l0.856-0.797L54.896,4.783c0.071-0.724-0.56-1.387-1.285-1.35c-0.675,0.035-1.195,0.612-1.162,1.289l-0.367,12.82L53,18.462
		l-0.612,0.797v8.731c-1.609-0.169-3.137-0.611-4.536-1.279v-8.82c1.283-0.348,2.192-1.41,2.141-2.702L49.021,6.2
		c-0.172,0.143-0.392,0.109-0.604,0.219l0.354,7.452c0.08,0.2-0.091,0.458-0.306,0.46c-0.177,0.002-0.321-0.13-0.336-0.307
		l-0.486-7.307c-0.167,0.045-0.34,0.082-0.519,0.107l0.057,7.292c0.003,0.204-0.198,0.374-0.397,0.337
		c-0.176-0.032-0.294-0.189-0.275-0.368l-0.228-7.217c-0.195-0.007-0.386-0.026-0.571-0.057l-0.057,7.274
		c-0.016,0.196-0.206,0.343-0.398,0.307c-0.158-0.029-0.263-0.146-0.275-0.307l-0.029-7.47c-0.199-0.072-0.354-0.077-0.528-0.176
		l-0.635,8.689c0.104,1.352,1.03,2.413,2.263,2.761v7.788C42.319,23.157,39.867,18.882,39.867,14.034L39.867,14.034z"/>
</g>
</svg>
