<?xml version="1.0" encoding="utf-8"?>
<!-- Generator: Adobe Illustrator 16.2.0, SVG Export Plug-In . SVG Version: 6.00 Build 0)  -->
<!DOCTYPE svg PUBLIC "-//W3C//DTD SVG 1.1//EN" "http://www.w3.org/Graphics/SVG/1.1/DTD/svg11.dtd">
<svg version="1.1" id="Layer_1" xmlns="http://www.w3.org/2000/svg" xmlns:xlink="http://www.w3.org/1999/xlink" x="0px" y="0px"
	 width="211.555px" height="29.021px" viewBox="0 -0.144 211.555 29.021" enable-background="new 0 -0.144 211.555 29.021"
	 xml:space="preserve">
<line fill="none" stroke="#000000" stroke-width="3" stroke-miterlimit="10" x1="0" y1="11.645" x2="29.876" y2="11.645"/>
<line fill="none" stroke="#000000" stroke-miterlimit="10" x1="0" y1="17.389" x2="29.876" y2="17.389"/>
<g enable-background="new    ">
	<path d="M82.735,19.311h-9.093v-0.107c0.162-0.018,0.396-0.036,0.558-0.09c0.378-0.126,0.684-0.379,0.828-0.792
		c0.216-0.666,0.27-1.927,0.27-3.205v-3.439c0-1.296-0.054-2.538-0.27-3.204C74.884,8.04,74.578,7.806,74.2,7.68
		c-0.162-0.054-0.378-0.09-0.54-0.107v-0.09h5.077v0.09c-0.162,0.018-0.378,0.054-0.54,0.107c-0.378,0.126-0.702,0.36-0.846,0.793
		c-0.217,0.666-0.271,1.908-0.271,3.204v4.25c0,1.009,0.054,1.64,0.162,2.017c0.108,0.36,0.306,0.631,0.54,0.793
		c0.306,0.216,0.846,0.287,1.242,0.287h0.541c1.008,0,1.62-0.414,2.035-0.847c0.737-0.756,1.151-1.764,1.386-2.483h0.108
		L82.735,19.311z"/>
	<path d="M83.092,19.311v-0.09c0.145-0.019,0.379-0.055,0.559-0.107c0.359-0.126,0.666-0.36,0.81-0.774
		c0.216-0.666,0.271-1.944,0.271-3.223v-3.421c0-1.297-0.055-2.557-0.271-3.223c-0.144-0.433-0.45-0.667-0.81-0.793
		c-0.18-0.054-0.414-0.09-0.559-0.106v-0.09h5.042v0.09c-0.161,0.018-0.396,0.054-0.558,0.106c-0.378,0.126-0.685,0.36-0.829,0.793
		c-0.216,0.666-0.252,1.926-0.252,3.223v3.421c0,1.278,0.036,2.557,0.252,3.223c0.145,0.414,0.45,0.648,0.829,0.774
		c0.162,0.054,0.396,0.09,0.558,0.107v0.09H83.092z"/>
	<path d="M97.099,10.776c-0.307-1.009-0.774-1.783-1.423-2.377c-0.287-0.271-0.882-0.63-1.584-0.63h-0.197
		c-1.135,0-1.639,0.252-1.873,1.386c-0.108,0.521-0.108,1.297-0.108,2.215v1.513h0.63c1.026,0,1.422-0.072,1.782-0.396
		c0.45-0.432,0.774-1.206,0.828-1.801h0.09v4.682h-0.09c-0.054-0.576-0.306-1.314-0.756-1.71c-0.307-0.271-0.828-0.486-1.854-0.486
		h-0.63v1.944c0,1.278,0.072,2.557,0.288,3.223c0.145,0.414,0.45,0.648,0.811,0.774c0.18,0.054,0.396,0.09,0.541,0.107v0.09h-5.061
		v-0.09c0.145-0.019,0.378-0.055,0.558-0.107c0.36-0.126,0.685-0.36,0.811-0.774c0.216-0.666,0.288-1.944,0.288-3.223v-3.421
		c0-1.297-0.072-2.557-0.288-3.223c-0.126-0.433-0.45-0.667-0.811-0.793c-0.18-0.054-0.413-0.09-0.558-0.106v-0.09h8.39l0.324,3.295
		L97.099,10.776L97.099,10.776z"/>
	<path d="M106.387,19.311h-8.913v-0.09c0.161-0.019,0.396-0.055,0.558-0.107c0.378-0.126,0.684-0.36,0.828-0.774
		c0.216-0.666,0.27-1.944,0.27-3.223v-3.421c0-1.297-0.054-2.557-0.27-3.223c-0.145-0.433-0.45-0.667-0.828-0.793
		c-0.162-0.054-0.396-0.09-0.558-0.106v-0.09h8.391l0.45,3.295h-0.108c-0.288-1.009-0.773-1.837-1.404-2.413
		c-0.306-0.288-0.811-0.594-1.529-0.594h-0.522c-0.396,0-0.756,0.054-1.044,0.252c-0.81,0.558-0.81,1.98-0.81,2.826v2.179h0.647
		c1.026,0,1.404-0.071,1.746-0.396c0.468-0.433,0.774-1.207,0.848-1.801h0.107v4.682h-0.107c-0.072-0.576-0.324-1.313-0.774-1.711
		c-0.306-0.27-0.792-0.486-1.818-0.486h-0.647v2.628c0,0.812-0.072,2.27,0.702,2.81c0.323,0.217,0.846,0.271,1.241,0.271h0.396
		c1.008,0,1.62-0.323,2.035-0.756c0.737-0.757,1.116-1.691,1.35-2.412h0.09L106.387,19.311z"/>
	<path d="M114.953,13.417v3.151h-0.576v-3.151h-3.133v-0.54h3.133V9.708h0.576v3.169h3.151v0.54H114.953z"/>
	<path d="M126.725,19.563c-1.278,0-2.396-0.612-2.882-1.152h-0.071l-0.468,0.773h-0.072l-0.145-3.871h0.108
		c0.594,2.09,1.495,3.961,3.529,3.961c1.565,0,2.069-1.205,2.069-2.377c0-1.494-0.863-2.033-2.646-2.79
		c-1.621-0.685-3.115-1.621-3.115-3.745c0-1.675,1.369-3.115,3.277-3.115c1.044,0,2.088,0.396,2.502,0.954h0.018l0.396-0.685h0.144
		l0.252,3.313h-0.107c-0.217-0.864-0.774-2.035-1.261-2.521c-0.414-0.414-0.936-0.793-1.943-0.793c-0.864,0-1.64,0.631-1.64,1.891
		c0,1.711,1.226,2.125,2.485,2.755c1.873,0.937,3.277,1.314,3.277,3.89C130.434,18.284,128.525,19.563,126.725,19.563z"/>
	<path d="M141.019,10.83c-0.181-0.522-0.756-1.639-1.566-2.322c-0.594-0.505-1.17-0.738-1.999-0.738h-0.738v7.346
		c0,1.278,0.055,2.539,0.271,3.205c0.144,0.413,0.45,0.666,0.828,0.792c0.162,0.054,0.396,0.072,0.558,0.09v0.107h-5.095v-0.107
		c0.162-0.018,0.396-0.036,0.558-0.09c0.378-0.126,0.685-0.379,0.828-0.792c0.216-0.666,0.288-1.927,0.288-3.205V7.77h-0.738
		c-0.81,0-1.422,0.233-2.017,0.738c-0.811,0.684-1.351,1.8-1.548,2.322h-0.108l0.594-3.349h9.399l0.594,3.349H141.019z"/>
	<path d="M149.82,10.308l-1.944,3.709v1.099c0,1.278,0.055,2.539,0.271,3.223c0.126,0.414,0.45,0.648,0.81,0.774
		c0.18,0.054,0.414,0.09,0.559,0.107v0.09h-5.042v-0.09c0.161-0.019,0.378-0.055,0.558-0.107c0.36-0.126,0.685-0.36,0.811-0.774
		c0.234-0.684,0.271-1.944,0.271-3.223v-0.504l-2.81-5.113c-0.72-1.314-1.134-1.801-2.105-1.927v-0.09h5.096v0.09
		c-0.18,0.018-0.521,0.071-0.703,0.144c-0.863,0.324-0.558,1.171-0.197,1.873l2.196,4.015h0.091l1.817-3.421
		c0.396-0.756,0.56-1.242,0.56-1.692c0-0.396-0.146-0.648-0.469-0.774c-0.18-0.072-0.594-0.126-0.773-0.144v-0.09h3.78v0.09
		C151.385,7.733,150.864,8.363,149.82,10.308z"/>
	<path d="M161.772,19.311h-9.093v-0.107c0.161-0.018,0.396-0.036,0.558-0.09c0.378-0.126,0.684-0.379,0.828-0.792
		c0.216-0.666,0.27-1.927,0.27-3.205v-3.439c0-1.296-0.054-2.538-0.27-3.204c-0.145-0.433-0.45-0.667-0.828-0.793
		c-0.162-0.054-0.378-0.09-0.54-0.107v-0.09h5.077v0.09c-0.162,0.018-0.378,0.054-0.54,0.107c-0.378,0.126-0.702,0.36-0.846,0.793
		c-0.217,0.666-0.271,1.908-0.271,3.204v4.25c0,1.009,0.054,1.64,0.162,2.017c0.108,0.36,0.306,0.631,0.54,0.793
		c0.306,0.216,0.846,0.287,1.242,0.287h0.541c1.008,0,1.62-0.414,2.034-0.847c0.737-0.756,1.151-1.764,1.387-2.483h0.107
		L161.772,19.311z"/>
	<path d="M171.042,19.311h-8.913v-0.09c0.162-0.019,0.396-0.055,0.559-0.107c0.378-0.126,0.684-0.36,0.828-0.774
		c0.216-0.666,0.27-1.944,0.27-3.223v-3.421c0-1.297-0.054-2.557-0.27-3.223c-0.145-0.433-0.45-0.667-0.828-0.793
		c-0.162-0.054-0.396-0.09-0.559-0.106v-0.09h8.392l0.45,3.295h-0.108c-0.288-1.009-0.774-1.837-1.404-2.413
		c-0.306-0.288-0.811-0.594-1.529-0.594h-0.522c-0.396,0-0.756,0.054-1.044,0.252c-0.811,0.558-0.811,1.98-0.811,2.826v2.179h0.648
		c1.026,0,1.404-0.071,1.746-0.396c0.468-0.433,0.774-1.207,0.847-1.801h0.108v4.682h-0.108c-0.071-0.576-0.324-1.313-0.773-1.711
		c-0.307-0.27-0.792-0.486-1.818-0.486h-0.647v2.628c0,0.812-0.072,2.27,0.701,2.81c0.324,0.217,0.847,0.271,1.242,0.271h0.396
		c1.008,0,1.62-0.323,2.035-0.756c0.737-0.757,1.115-1.691,1.35-2.412h0.09L171.042,19.311z"/>
</g>
<line fill="none" stroke="#000000" stroke-miterlimit="10" x1="181.677" y1="16.867" x2="211.552" y2="16.867"/>
<line fill="none" stroke="#000000" stroke-width="3" stroke-miterlimit="10" x1="181.677" y1="11.123" x2="211.554" y2="11.123"/>
<g>
	<path fill="#FCB316" d="M39.914,14.028c0,0,6.267,0,13.995,0c7.729,0,13.995,0,13.995,0s-2.261,0-5.742,0l0,0
		c1.422,0,2.447,0,2.447,0s-1.603,0-3.578,0c-1.977,0-3.579,0-3.579,0s1.114,0,2.63,0l0,0c-1.429,0-2.996,0-4.648,0l0,0h-0.856
		h0.856h-0.489c0.071,0-0.561,0-1.285,0c-0.675,0-1.195,0-1.162,0H52.13h0.918h-0.611l0,0c-1.609,0-3.138,0-4.536,0l0,0
		c1.283,0,2.191,0,2.141,0h-0.973c-0.172,0-0.393,0-0.604,0h0.354c0.08,0-0.091,0-0.306,0c-0.178,0-0.321,0-0.337,0H47.69
		c-0.167,0-0.34,0-0.52,0h0.058c0.003,0-0.198,0-0.397,0c-0.176,0-0.294,0-0.274,0h-0.229c-0.195,0-0.386,0-0.571,0H45.7
		c-0.016,0-0.206,0-0.398,0c-0.157,0-0.263,0-0.274,0h-0.029c-0.199,0-0.354,0-0.527,0h-0.636c0.104,0,1.03,0,2.264,0l0,0
		C42.366,14.028,39.914,14.028,39.914,14.028L39.914,14.028z"/>
</g>
<g>
	<circle fill="#B22D33" cx="54.381" cy="14.09" r="13.79"/>
	<g>
		<g>
			<g>
				<path fill="#FFFFFF" d="M49.618,6.743c0.359-1.087,1.645-1.583,3.171-1.297c0.89,0.167,1.777,0.337,2.64,0.502
					c0.196-0.626,0.214-1.415,0.596-1.681c0.368-0.256,1.127-0.038,1.688,0.087c1.368,0.306,0.41,1.33,0.625,2.147
					c1.317,0.259,2.709,0.542,4.104,0.807c2.012,0.379,2.072,0.371,2.192,2.408c0.239,3.987-0.274,7.896-1.426,11.722
					c-0.27,0.896-0.832,1.416-1.648,1.905c-1.377,0.826-2.645,0.845-4.144,0.384c-3.3-1.018-6.647-1.886-9.985-2.775
					c-0.652-0.174-1.063-0.5-1.364-1.094c-1.863-3.686-2.483-7.545-1.607-11.596c0.327-1.509,1.655-2.244,3.216-1.931
					C48.307,6.459,48.935,6.599,49.618,6.743z M57.476,10.237c-0.284-0.076-0.506-0.146-0.733-0.194
					c-3.408-0.728-6.818-1.452-10.227-2.178c-1.179-0.251-1.248-0.262-1.438,0.908c-0.617,3.814-0.119,7.473,1.75,10.89
					c0.142,0.259,0.514,0.463,0.819,0.549c3.438,0.968,6.887,1.909,10.333,2.851c0.171,0.047,0.356,0.041,0.62,0.066
					C56.712,18.922,56.407,14.682,57.476,10.237z M59.412,9.996c-0.822,0.031-1.201,0.391-1.385,1.187
					c-0.539,2.324-0.462,4.645-0.167,6.98c0.233,1.85,0.839,3.565,1.753,5.208c1.411-0.48,2.504-1.084,2.967-2.674
					c0.799-2.749,1.342-5.521,1.376-8.376c0.015-1.188-0.13-2.376-0.202-3.563c-0.11-0.047-0.223-0.093-0.334-0.139
					c-0.255,0.313-0.69,0.602-0.737,0.943c-0.513,3.772-0.955,7.555-1.443,11.331c-0.055,0.424-0.279,0.827-0.424,1.24
					c-0.165-0.421-0.438-0.832-0.477-1.265C60.006,17.254,59.716,13.635,59.412,9.996z M50.585,6.674
					c-0.021,0.077-0.044,0.155-0.065,0.233c0.296,0.075,0.589,0.164,0.888,0.227c2.575,0.541,5.145,1.104,7.729,1.598
					c0.753,0.145,0.999,0.486,1.047,1.221c0.146,2.306,0.358,4.607,0.552,6.911c0.01,0.114,0.082,0.224,0.208,0.556
					c0.356-2.955,0.684-5.666,1.015-8.398C58.063,8.217,54.324,7.445,50.585,6.674z M58.252,9.607
					c0.019-0.092,0.035-0.183,0.053-0.273c-3.75-0.785-7.5-1.57-11.25-2.355C47.04,7.052,47.025,7.126,47.01,7.2
					C50.757,8.003,54.504,8.806,58.252,9.607z M57.258,7.224c0.108-0.724,0.208-1.397,0.314-2.106
					c-0.393-0.075-0.701-0.135-1.078-0.207c-0.052,0.761-0.1,1.465-0.151,2.202C56.695,7.155,56.946,7.185,57.258,7.224z
					 M62.575,8.378c0.016-0.094,0.033-0.188,0.049-0.281c-1.481-0.28-2.964-0.562-4.447-0.843c-0.013,0.071-0.026,0.145-0.039,0.216
					C59.616,7.772,61.095,8.075,62.575,8.378z"/>
			</g>
		</g>
	</g>
</g>
</svg>
