<?xml version="1.0" encoding="utf-8"?>
<!-- Generator: Adobe Illustrator 16.0.0, SVG Export Plug-In . SVG Version: 6.00 Build 0)  -->
<!DOCTYPE svg PUBLIC "-//W3C//DTD SVG 1.1//EN" "http://www.w3.org/Graphics/SVG/1.1/DTD/svg11.dtd">
<svg version="1.1" id="Layer_1" xmlns="http://www.w3.org/2000/svg" xmlns:xlink="http://www.w3.org/1999/xlink" x="0px" y="0px"
	 width="393px" height="58px" viewBox="-2.062 -0.237 393 58" enable-background="new -2.062 -0.237 393 58" xml:space="preserve">
<g>
	<rect x="52.323" y="24.392" width="68.405" height="5.855"/>
</g>
<g>
	<rect x="52.323" y="39.5" width="68.405" height="1.95"/>
</g>
<g>
	<g>
		<rect x="266.672" y="39.5" width="68.404" height="1.95"/>
	</g>
</g>
<g>
	<g>
		<rect x="266.681" y="24.392" width="68.403" height="5.855"/>
	</g>
</g>
<g>
	<path d="M391.094,58.182H-2.219V0h393.312V58.182z M1.884,54.346h385.104V3.836H1.884V54.346z"/>
</g>
<g>
	<path fill="#FF5615" d="M167.839,18.103c-0.56,0.075-2.053,0.447-2.874,0.821c-1.123,0.523-2.28,1.605-3.285,2.915
		c-5.118,6.462-10.12,12.808-15.647,20.017h-3.808V20.607c0-1.046-0.114-1.684-0.859-2.055c-0.56-0.298-1.53-0.409-2.243-0.446
		l0.561-1.98h13.331l-0.562,1.977c-1.156,0.075-1.605,0.225-2.239,0.447c-0.972,0.374-1.195,1.195-1.195,1.942v14.043l5.676-7.433
		c2.165-2.837,2.986-3.771,3.771-4.892c0.674-1.01,1.347-1.868,1.347-2.279c0-1.12-1.457-1.68-2.69-1.829l0.598-1.979h10.716
		L167.839,18.103z"/>
	<path fill="#FF5615" d="M166.448,35.956c0,2.464,1.083,3.471,2.913,3.471c1.683,0,3.847-1.793,5.268-4.29l1.493,0.819
		c-2.317,4.405-5.193,6.049-8.366,6.049c-4.817,0-7.804-2.802-7.804-6.797c0-5.302,4.891-12.511,12.919-12.511
		c2.69,0,4.258,1.308,4.258,3.136c0,4.521-5.004,7.394-10.567,8.215C166.485,34.686,166.448,35.318,166.448,35.956z M172.275,26.281
		c0-0.97-0.186-1.456-0.598-1.456c-1.53,0-3.808,3.286-4.78,7.32C170.856,31.25,172.275,28.521,172.275,26.281z"/>
	<path fill="#FF5615" d="M198.076,19.371c1.044,0,2.094,0.822,2.094,2.056c0,1.083-0.974,2.314-2.018,2.314
		c-0.747,0-1.496-0.225-1.793-1.157c-0.336,0.074-1.084,0.784-1.756,1.791c0.932,0.821,1.309,1.905,1.309,3.139
		c0,4.145-3.438,6.313-9.264,6.313h-2.428c-0.562,0.072-1.009,0.221-1.083,0.521c-0.298,1.156,0.672,1.156,2.689,1.455
		c1.12,0.188,3.547,0.636,4.48,0.784c2.95,0.522,4.819,1.867,4.819,4.444c0,4.782-6.051,7.058-12.475,7.058
		c-5.416,0-8.4-1.716-8.4-4.106c0-2.241,1.979-4.182,6.422-4.406l0.074-0.188c-1.566-0.335-2.804-1.38-2.804-2.95
		c0-2.13,2.319-2.875,4.56-2.949v-0.187c-2.203-1.122-3.362-2.987-3.362-4.97c0-4.332,4.966-5.824,8.739-5.824
		c2.54,0,4.406,0.41,5.678,1.121C194.68,20.682,196.545,19.371,198.076,19.371z M187.844,40.997
		c-0.671-0.186-2.536-0.484-5.303-0.82c-0.784,0.447-2.091,1.757-2.091,3.433c0,1.273,1.119,2.392,3.509,2.392
		c2.354,0,5.042-1.196,5.042-3.473C189.001,41.893,188.702,41.408,187.844,40.997z M188.292,24.377c-1.643,0-2.84,3.248-2.84,5.49
		c-0.037,1.305,0.411,2.166,1.307,2.166c1.495,0,2.952-2.653,2.952-5.529C189.711,25.272,189.301,24.377,188.292,24.377z"/>
	<path fill="#FF5615" d="M212.671,41.931c-2.576,0-4.929-0.898-4.966-3.399l-0.113-0.037c-1.343,2.2-2.727,3.51-5.079,3.51
		c-3.137,0-5.564-1.941-5.564-6.647c0-4.409,4.482-12.662,10.831-12.662c1.979,0,3.248,0.822,3.548,2.766h0.112l0.86-2.354h6.31
		l-4.256,12.436c-0.336,0.97-0.563,1.907-0.563,2.352c0,0.785,0.224,1.31,0.899,1.31c1.195,0,2.165-1.231,3.023-3.437l1.568,0.525
		C217.976,39.651,216.444,41.931,212.671,41.931z M208.713,25.087c-2.762,0-5.188,6.536-5.188,10.793
		c0,2.092,0.408,3.175,1.195,3.175c1.155,0,2.201-1.271,3.357-3.099l2.651-8.179C210.395,25.534,209.571,25.087,208.713,25.087z"/>
	<path fill="#FF5615" d="M234.771,30.392c-1.307,0-2.8-0.524-2.8-2.132c0-1.345,0.896-2.016,2.389-2.764
		c-0.299-0.411-1.269-0.747-2.054-0.747c-1.604,0-3.248,0.41-3.248,2.276c0,1.121,1.158,1.944,2.539,2.84
		c1.908,1.271,4.222,2.802,4.222,5.788c0,3.14-2.354,6.352-8.48,6.352c-4.779,0-7.616-2.578-7.616-5.006
		c0-2.164,1.496-3.695,3.062-3.695c1.345,0,2.652,0.709,2.652,2.275c0,1.312-0.522,2.433-2.802,2.544
		c0.224,0.896,2.052,1.793,3.922,1.793c1.978,0,3.212-0.636,3.212-2.39c0-1.196-1.161-1.979-2.501-2.837
		c-1.905-1.234-4.222-2.652-4.222-5.753c0-3.734,2.911-6.237,7.655-6.237c4.294,0,6.871,2.278,6.871,4.183
		C237.573,28.935,236.377,30.392,234.771,30.392z"/>
	<path fill="#FF5615" d="M238.54,38.607c0-1.793,1.492-3.289,3.285-3.289c1.792,0,3.287,1.496,3.287,3.289
		c0,1.828-1.455,3.211-3.287,3.211C239.996,41.818,238.54,40.436,238.54,38.607z M244.142,33.75l-2.093-0.41
		c0.932-7.656,1.231-12.288,1.491-14.528c0.303-2.463,2.204-3.398,4.149-3.398c1.641,0,3.246,1.232,3.246,3.326
		C250.938,20.942,248.362,24.229,244.142,33.75z"/>
</g>
</svg>
