<?xml version="1.0" encoding="utf-8"?>
<!-- Generator: Adobe Illustrator 14.0.0, SVG Export Plug-In . SVG Version: 6.00 Build 43363)  -->
<!DOCTYPE svg PUBLIC "-//W3C//DTD SVG 1.1//EN" "http://www.w3.org/Graphics/SVG/1.1/DTD/svg11.dtd">
<svg version="1.1" id="Layer_3" xmlns="http://www.w3.org/2000/svg" xmlns:xlink="http://www.w3.org/1999/xlink" x="0px" y="0px"
	 width="581px" height="156.5px" viewBox="-143.25 -65.281 581 156.5" enable-background="new -143.25 -65.281 581 156.5"
	 xml:space="preserve">
<g>
	<path fill="#1B3A70" d="M205.562,84.569l3.719,5.172c0.384,0.142,0.789,0.26,1.226,0.35l-3.743-5.198
		C206.338,84.811,205.939,84.702,205.562,84.569z"/>
	<path fill="#1B3A70" d="M233.904,73.356l3.781,5.253c0.196-0.175,0.404-0.35,0.596-0.523l-3.78-5.253
		C234.309,73.01,234.101,73.184,233.904,73.356z"/>
	<path fill="#1B3A70" d="M211.897,84.801l3.771,5.235c0.285-0.046,0.568-0.088,0.864-0.146l-3.768-5.235
		C212.465,84.712,212.185,84.752,211.897,84.801z"/>
	<path fill="#1B3A70" d="M222.834,80.934l3.774,5.246c0.233-0.12,0.468-0.252,0.701-0.379l-3.778-5.246
		C223.298,80.682,223.064,80.814,222.834,80.934z"/>
	<path fill="#1B3A70" d="M232.504,74.556l3.783,5.25c0.203-0.169,0.407-0.336,0.607-0.504l-3.783-5.252
		C232.913,74.22,232.709,74.387,232.504,74.556z"/>
	<path fill="#1B3A70" d="M236.464,70.935l3.783,5.256c0.19-0.195,0.369-0.39,0.551-0.584l-3.783-5.253
		C236.83,70.549,236.653,70.743,236.464,70.935z"/>
	<path fill="#1B3A70" d="M237.619,69.718l3.783,5.253c0.185-0.202,0.354-0.404,0.533-0.608l-3.783-5.259
		C237.973,69.309,237.803,69.51,237.619,69.718z"/>
	<path fill="#1B3A70" d="M235.223,72.149l3.782,5.253c0.195-0.185,0.387-0.366,0.574-0.551l-3.78-5.253
		C235.609,71.781,235.417,71.964,235.223,72.149z"/>
	<path fill="#1B3A70" d="M202.941,82.658l3.899,5.356l0.015-0.012c0.473,0.636,1.114,1.124,1.873,1.493l-3.732-5.186
		C204.147,83.913,203.439,83.377,202.941,82.658z"/>
	<path fill="#1B3A70" d="M229.436,76.898l3.781,5.25c0.214-0.152,0.424-0.31,0.637-0.466l-3.78-5.248
		C229.861,76.589,229.651,76.745,229.436,76.898z"/>
	<path fill="#1B3A70" d="M226.104,79.085l3.777,5.248c0.228-0.139,0.453-0.269,0.68-0.41l-3.777-5.248
		C226.556,78.82,226.332,78.947,226.104,79.085z"/>
	<path fill="#1B3A70" d="M207.266,84.952l3.758,5.221c0.343,0.048,0.687,0.094,1.056,0.111l-3.766-5.229
		C207.95,85.04,207.606,84.996,207.266,84.952z"/>
	<path fill="#1B3A70" d="M231.019,75.744l3.78,5.251c0.211-0.162,0.412-0.331,0.619-0.496l-3.783-5.25
		C231.431,75.413,231.23,75.58,231.019,75.744z"/>
	<path fill="#1B3A70" d="M224.461,80.052l3.775,5.246c0.232-0.129,0.46-0.261,0.69-0.394l-3.778-5.247
		C224.918,79.789,224.691,79.924,224.461,80.052z"/>
	<path fill="#1B3A70" d="M208.848,85.06l3.765,5.227c0.316,0.003,0.629,0.011,0.965-0.007l-3.768-5.234
		C209.477,85.063,209.163,85.06,208.848,85.06z"/>
	<path fill="#1B3A70" d="M227.764,78.036l3.778,5.248c0.219-0.147,0.439-0.288,0.659-0.438l-3.778-5.248
		C228.203,77.748,227.983,77.892,227.764,78.036z"/>
	<path fill="#1B3A70" d="M210.381,84.994l3.767,5.231c0.301-0.025,0.599-0.042,0.91-0.086l-3.77-5.235
		C210.977,84.948,210.682,84.967,210.381,84.994z"/>
	<path fill="#1B3A70" d="M238.688,68.477l3.783,5.256c0.174-0.21,0.354-0.419,0.521-0.627l-3.785-5.259
		C239.039,68.055,238.862,68.268,238.688,68.477z"/>
	<path fill="#1B3A70" d="M216.494,83.652l3.773,5.24c0.252-0.086,0.515-0.186,0.772-0.278l-3.774-5.241
		C217.007,83.467,216.747,83.568,216.494,83.652z"/>
	<path fill="#1B3A70" d="M241.391,64.699l3.788,5.264c0.154-0.25,0.298-0.499,0.438-0.743l-3.791-5.263
		C241.688,64.201,241.545,64.448,241.391,64.699z"/>
	<path fill="#1B3A70" d="M243.287,60.752l3.795,5.271c0.112-0.335,0.188-0.661,0.263-0.985l-3.793-5.271
		C243.476,60.09,243.398,60.416,243.287,60.752z"/>
	<path fill="#1B3A70" d="M214.95,84.123l3.772,5.242c0.261-0.076,0.531-0.162,0.799-0.247l-3.776-5.237
		C215.48,83.961,215.21,84.05,214.95,84.123z"/>
	<path fill="#1B3A70" d="M219.62,82.446l3.775,5.241c0.25-0.107,0.492-0.203,0.743-0.316l-3.775-5.243
		C220.115,82.239,219.867,82.34,219.62,82.446z"/>
	<path fill="#1B3A70" d="M242.129,63.426l3.79,5.266c0.145-0.272,0.264-0.54,0.392-0.806l-3.791-5.266
		C242.394,62.887,242.276,63.153,242.129,63.426z"/>
	<path fill="#1B3A70" d="M246.665,59.996l-3.69-5.089c0.526,0.756,0.771,1.665,0.81,2.67l3.795,5.274
		c-0.033-0.927-0.237-1.774-0.677-2.497l0.005-0.005l-0.035-0.051c-0.033-0.053-0.053-0.114-0.088-0.165
		C246.751,60.082,246.703,60.044,246.665,59.996z"/>
	<path fill="#1B3A70" d="M243.668,59.294l3.788,5.261c0.073-0.396,0.121-0.783,0.139-1.157l-3.793-5.266
		C243.785,58.506,243.744,58.895,243.668,59.294z"/>
	<path fill="#1B3A70" d="M218.047,83.087l3.773,5.242c0.252-0.099,0.502-0.193,0.76-0.297l-3.773-5.241
		C218.551,82.895,218.301,82.989,218.047,83.087z"/>
	<path fill="#1B3A70" d="M242.736,62.177l0.05-0.035l3.772,5.239c0.129-0.299,0.23-0.587,0.339-0.877l-3.793-5.266
		C242.991,61.545,242.875,61.856,242.736,62.177z"/>
	<path fill="#1B3A70" d="M240.575,65.97l3.788,5.261c0.16-0.235,0.321-0.47,0.465-0.702l-3.787-5.262
		C240.894,65.5,240.734,65.735,240.575,65.97z"/>
	<path fill="#1B3A70" d="M239.673,67.231l3.785,5.258c0.167-0.22,0.344-0.439,0.499-0.66l-3.786-5.258
		C240.014,66.789,239.837,67.011,239.673,67.231z"/>
	<path fill="#1B3A70" d="M221.214,81.728l3.774,5.244c0.24-0.113,0.48-0.229,0.723-0.349l-3.775-5.246
		C221.694,81.495,221.451,81.615,221.214,81.728z"/>
	<path fill="#1B3A70" d="M213.416,84.507l3.772,5.235c0.271-0.061,0.548-0.126,0.829-0.196l-3.773-5.238
		C213.964,84.381,213.691,84.445,213.416,84.507z"/>
	<path fill="#819BB2" d="M228.987,77.226c-0.187,0.131-0.376,0.247-0.564,0.373l3.778,5.248c0.2-0.134,0.397-0.257,0.597-0.394
		c0.141-0.099,0.278-0.205,0.419-0.306l-3.781-5.25C229.285,77.005,229.141,77.119,228.987,77.226z"/>
	<path fill="#819BB2" d="M230.073,76.434l3.78,5.248c0.316-0.229,0.639-0.454,0.945-0.687l-3.78-5.251
		C230.71,75.979,230.389,76.204,230.073,76.434z"/>
	<path fill="#819BB2" d="M231.635,75.249l3.783,5.25c0.291-0.227,0.584-0.459,0.869-0.692l-3.783-5.25
		C232.221,74.789,231.928,75.021,231.635,75.249z"/>
	<path fill="#819BB2" d="M233.11,74.051l3.783,5.252c0.268-0.23,0.53-0.464,0.791-0.693l-3.781-5.253
		C233.641,73.589,233.381,73.821,233.11,74.051z"/>
	<path fill="#819BB2" d="M234.5,72.833l3.78,5.253c0.25-0.227,0.485-0.457,0.725-0.685l-3.782-5.253
		C234.983,72.378,234.75,72.608,234.5,72.833z"/>
	<path fill="#819BB2" d="M240.17,66.572l3.786,5.258c0.146-0.202,0.27-0.399,0.406-0.599l-3.788-5.261
		C240.439,66.172,240.317,66.369,240.17,66.572z"/>
	<path fill="#819BB2" d="M239.206,67.847l3.785,5.259c0.164-0.208,0.311-0.412,0.467-0.617l-3.785-5.258
		C239.517,67.436,239.37,67.64,239.206,67.847z"/>
	<path fill="#819BB2" d="M238.152,69.103l3.783,5.259c0.182-0.211,0.362-0.42,0.536-0.629l-3.783-5.256
		C238.513,68.684,238.334,68.893,238.152,69.103z"/>
	<path fill="#819BB2" d="M237.015,70.354l3.783,5.253c0.203-0.212,0.412-0.425,0.604-0.637l-3.783-5.253
		C237.424,69.93,237.214,70.142,237.015,70.354z"/>
	<path fill="#819BB2" d="M235.799,71.598l3.78,5.253c0.225-0.22,0.451-0.438,0.667-0.659l-3.783-5.256
		C236.247,71.158,236.021,71.376,235.799,71.598z"/>
	<path fill="#819BB2" d="M241.826,63.956l3.791,5.263c0.099-0.177,0.209-0.356,0.303-0.528l-3.79-5.266
		C242.036,63.6,241.924,63.78,241.826,63.956z"/>
	<path fill="#819BB2" d="M241.219,64.995c-0.053,0.088-0.124,0.182-0.179,0.273l3.787,5.262c0.061-0.102,0.139-0.208,0.2-0.307
		c0.056-0.089,0.099-0.172,0.151-0.26l-3.788-5.264C241.331,64.798,241.28,64.894,241.219,64.995z"/>
	<path fill="#819BB2" d="M242.736,62.177c-0.066,0.145-0.147,0.296-0.215,0.442l3.791,5.266c0.081-0.167,0.174-0.338,0.248-0.504
		l-3.772-5.239L242.736,62.177z"/>
	<path fill="#819BB2" d="M243.104,61.238l3.793,5.266c0.058-0.16,0.134-0.324,0.184-0.481l-3.795-5.271
		C243.236,60.909,243.163,61.075,243.104,61.238z"/>
	<path fill="#819BB2" d="M243.552,59.767l3.793,5.271c0.041-0.162,0.081-0.323,0.111-0.483l-3.788-5.261
		C243.64,59.448,243.587,59.613,243.552,59.767z"/>
	<path fill="#819BB2" d="M243.802,58.132l3.793,5.266c0.007-0.187-0.007-0.364-0.015-0.545l-3.795-5.274
		C243.79,57.763,243.81,57.94,243.802,58.132z"/>
	<path fill="#819BB2" d="M226.783,78.675l3.777,5.248c0.329-0.203,0.655-0.426,0.981-0.639l-3.778-5.248
		C227.438,78.248,227.112,78.471,226.783,78.675z"/>
	<path fill="#819BB2" d="M225.148,79.657l3.778,5.247c0.318-0.182,0.637-0.379,0.955-0.571l-3.777-5.248
		C225.785,79.278,225.467,79.474,225.148,79.657z"/>
	<path fill="#819BB2" d="M223.531,80.555l3.778,5.246c0.308-0.167,0.619-0.329,0.927-0.503l-3.775-5.246
		C224.151,80.227,223.842,80.389,223.531,80.555z"/>
	<path fill="#819BB2" d="M221.937,81.377l3.775,5.246c0.298-0.147,0.596-0.286,0.896-0.443l-3.774-5.246
		C222.53,81.091,222.235,81.231,221.937,81.377z"/>
	<path fill="#819BB2" d="M214.245,84.308l3.773,5.238c0.235-0.062,0.465-0.116,0.705-0.181l-3.772-5.242
		C214.712,84.191,214.48,84.249,214.245,84.308z"/>
	<path fill="#819BB2" d="M215.745,83.881l3.776,5.237c0.248-0.074,0.493-0.143,0.746-0.227l-3.773-5.24
		C216.239,83.738,215.996,83.803,215.745,83.881z"/>
	<path fill="#819BB2" d="M217.265,83.372l3.774,5.241c0.258-0.091,0.519-0.188,0.782-0.284l-3.773-5.242
		C217.783,83.186,217.524,83.28,217.265,83.372z"/>
	<path fill="#819BB2" d="M218.808,82.791l3.773,5.241c0.268-0.105,0.543-0.23,0.814-0.346l-3.775-5.241
		C219.349,82.56,219.074,82.684,218.808,82.791z"/>
	<path fill="#819BB2" d="M220.362,82.127l3.775,5.243c0.283-0.126,0.568-0.265,0.851-0.398l-3.774-5.244
		C220.931,81.862,220.643,82,220.362,82.127z"/>
	<path fill="#819BB2" d="M211.288,84.905l3.77,5.235c0.197-0.025,0.407-0.071,0.61-0.104l-3.771-5.235
		C211.698,84.833,211.488,84.879,211.288,84.905z"/>
	<path fill="#819BB2" d="M212.891,84.631c-0.043,0.011-0.083,0.016-0.126,0.023l3.768,5.235c0.058-0.013,0.111-0.018,0.169-0.03
		c0.157-0.031,0.326-0.081,0.487-0.117l-3.772-5.235C213.244,84.546,213.06,84.599,212.891,84.631z"/>
	<path fill="#819BB2" d="M209.81,85.045l3.768,5.234c0.185-0.01,0.379-0.036,0.571-0.054l-3.767-5.231
		C210.191,85.013,209.995,85.032,209.81,85.045z"/>
	<path fill="#819BB2" d="M208.314,85.055l3.766,5.229c0.169,0.01,0.355,0,0.533,0.002l-3.765-5.227
		C208.67,85.058,208.486,85.063,208.314,85.055z"/>
	<path fill="#819BB2" d="M206.765,84.892l3.743,5.198c0.166,0.032,0.341,0.058,0.516,0.083l-3.758-5.221
		C207.101,84.93,206.922,84.923,206.765,84.892z"/>
	<path fill="#819BB2" d="M204.996,84.311l3.732,5.186c0.18,0.085,0.364,0.168,0.553,0.244l-3.719-5.172
		C205.357,84.497,205.183,84.397,204.996,84.311z"/>
	<path fill="#1B3A70" d="M232.913,53.012c-4.538,0.832-10.36,3.432-15.745,7.162c-5.62,3.896-10.095,8.438-12.584,12.475
		c-2.544,4.079-3.267,7.665-1.643,10.01c0.498,0.719,1.206,1.255,2.055,1.652c0.187,0.086,0.361,0.187,0.566,0.258
		c0.376,0.134,0.776,0.242,1.202,0.323c0.157,0.031,0.336,0.038,0.501,0.061c0.341,0.044,0.684,0.088,1.048,0.103
		c0.172,0.008,0.356,0.003,0.534,0.005c0.315,0,0.629,0.003,0.962-0.015c0.185-0.013,0.382-0.032,0.572-0.051
		c0.3-0.027,0.596-0.047,0.907-0.09c0.2-0.025,0.41-0.071,0.609-0.104c0.288-0.049,0.568-0.089,0.867-0.146
		c0.043-0.008,0.083-0.013,0.126-0.023c0.169-0.032,0.354-0.085,0.525-0.124c0.275-0.062,0.548-0.126,0.829-0.199
		c0.235-0.059,0.468-0.117,0.705-0.185c0.26-0.073,0.531-0.162,0.795-0.242c0.251-0.078,0.494-0.144,0.749-0.229
		c0.253-0.084,0.513-0.185,0.771-0.279c0.26-0.093,0.518-0.187,0.783-0.285c0.253-0.099,0.503-0.192,0.761-0.296
		c0.266-0.107,0.541-0.231,0.812-0.346c0.248-0.105,0.496-0.207,0.743-0.318c0.281-0.127,0.568-0.266,0.852-0.399
		c0.237-0.113,0.48-0.232,0.723-0.351c0.298-0.146,0.593-0.286,0.897-0.443c0.23-0.12,0.464-0.252,0.697-0.379
		c0.311-0.166,0.62-0.328,0.93-0.503c0.23-0.128,0.458-0.263,0.688-0.395c0.318-0.184,0.637-0.38,0.955-0.572
		c0.228-0.139,0.452-0.266,0.68-0.41c0.329-0.204,0.655-0.427,0.98-0.639c0.22-0.145,0.439-0.288,0.659-0.438
		c0.188-0.126,0.377-0.242,0.564-0.373c0.154-0.107,0.298-0.221,0.449-0.328c0.215-0.153,0.425-0.31,0.637-0.464
		c0.316-0.23,0.637-0.455,0.945-0.69c0.212-0.164,0.412-0.331,0.616-0.495c0.293-0.228,0.586-0.46,0.869-0.693
		c0.205-0.169,0.409-0.336,0.606-0.505c0.271-0.23,0.531-0.462,0.793-0.695c0.197-0.172,0.405-0.346,0.597-0.523
		c0.25-0.225,0.483-0.455,0.723-0.684c0.194-0.185,0.386-0.368,0.576-0.551c0.222-0.222,0.447-0.44,0.665-0.663
		c0.189-0.192,0.366-0.386,0.551-0.581c0.2-0.212,0.409-0.424,0.604-0.637c0.184-0.208,0.354-0.409,0.533-0.614
		c0.182-0.21,0.361-0.419,0.536-0.626c0.175-0.209,0.351-0.421,0.518-0.629c0.164-0.207,0.311-0.412,0.467-0.616
		c0.165-0.22,0.341-0.442,0.498-0.659c0.147-0.203,0.269-0.4,0.405-0.602c0.159-0.235,0.318-0.471,0.465-0.703
		c0.055-0.091,0.126-0.185,0.179-0.273c0.061-0.101,0.111-0.197,0.172-0.296c0.154-0.25,0.296-0.498,0.435-0.743
		c0.099-0.177,0.21-0.356,0.304-0.531c0.146-0.273,0.265-0.538,0.391-0.806c0.068-0.146,0.149-0.298,0.215-0.442
		c0.139-0.321,0.255-0.632,0.369-0.939c0.058-0.162,0.131-0.328,0.182-0.485c0.111-0.336,0.189-0.662,0.265-0.985
		c0.036-0.154,0.088-0.318,0.116-0.473c0.076-0.399,0.117-0.789,0.134-1.163c0.008-0.192-0.012-0.369-0.017-0.554
		c-0.038-1.005-0.283-1.915-0.81-2.67C241.353,52.562,237.624,52.06,232.913,53.012z"/>
</g>
<g>
	<path fill="#1B3A70" d="M-141.982,14.695c0.072-14.149,11.935-25.655,26.228-25.726c6.29,0,12.005,2.072,16.507,5.574
		c1.715,1.427,2.001,3.929,0.715,5.715c-1.429,1.787-4.074,2.074-5.717,0.789c-3.145-2.575-7.075-3.934-11.505-3.934
		c-4.931,0-9.505,2.002-12.863,5.146c-3.216,3.287-5.217,7.576-5.217,12.435c0,4.859,2.001,9.292,5.217,12.434
		c3.358,3.144,7.932,5.146,12.863,5.146c4.431,0,8.29-1.357,11.505-3.929c1.644-1.216,4.288-0.93,5.717,0.786
		c1.286,1.787,1,4.359-0.715,5.719c-4.502,3.499-10.218,5.572-16.507,5.572C-130.048,40.421-141.911,28.916-141.982,14.695z"/>
	<path fill="#1B3A70" d="M-90.035,36.489V-5.672c0-2.216,1.715-3.932,3.931-3.932s4.002,1.716,4.002,3.932v17.153h18.509V-5.672
		c0-2.216,1.715-3.932,3.93-3.932c2.217,0,4.001,1.716,4.001,3.932v42.161c0,2.216-1.785,3.932-4.001,3.932
		c-2.215,0-3.93-1.716-3.93-3.932v-17.15h-18.509v17.15c0,2.216-1.787,3.932-4.002,3.932S-90.035,38.705-90.035,36.489z"/>
	<path fill="#1B3A70" d="M-23.863,28.631h-17.365l-3.502,9.289c-0.644,1.572-2.144,2.502-3.716,2.502
		c-0.5,0-0.929-0.071-1.357-0.215c-2.072-0.785-3.073-3.072-2.358-5.145l15.793-42.09c0.643-1.572,2.215-2.575,3.788-2.502
		c1.644-0.073,3.144,0.93,3.787,2.502L-13,35.061c0.715,2.072-0.286,4.359-2.359,5.145c-0.357,0.145-0.858,0.215-1.358,0.215
		c-1.573,0-3.073-0.93-3.644-2.502L-23.863,28.631z M-26.793,20.769l-5.788-15.364l-5.789,15.364H-26.793z"/>
	<path fill="#1B3A70" d="M-0.714,36.489c0,2.145-1.787,3.932-3.858,3.932c-2.215,0-3.931-1.787-3.931-3.932V-5.028c0,0,0,0,0-0.073
		c-0.071-1.214,0.501-2.501,1.572-3.286C-5.145-9.604-2.714-9.245-1.5-7.529l23.082,31.941v-29.44c0-2.074,1.715-3.861,3.859-3.861
		s3.93,1.787,3.93,3.861v41.517c0,2.145-1.786,3.932-3.93,3.932c-1.144,0-2.214-0.572-2.93-1.428
		c-0.143-0.144-0.285-0.288-0.357-0.43L-0.714,6.834V36.489z"/>
	<path fill="#1B3A70" d="M46.661,36.489c0,2.145-1.786,3.932-3.859,3.932c-2.215,0-3.93-1.787-3.93-3.932V-5.028c0,0,0,0,0-0.073
		c-0.072-1.214,0.5-2.501,1.572-3.286c1.786-1.217,4.216-0.858,5.431,0.858l23.083,31.941v-29.44c0-2.074,1.715-3.861,3.859-3.861
		s3.931,1.787,3.931,3.861v41.517c0,2.145-1.787,3.932-3.931,3.932c-1.143,0-2.215-0.572-2.93-1.428
		c-0.143-0.144-0.285-0.288-0.357-0.43L46.661,6.834V36.489z"/>
	<path fill="#1B3A70" d="M83.89,36.489V-5.672c0-2.216,1.715-3.932,3.93-3.932h0.071c0,0,0,0,0.143,0h23.154
		c2.074,0,3.931,1.716,3.931,3.932s-1.857,4.003-3.931,4.003H91.822v13.077h16.649c2.145,0,3.931,1.859,3.931,3.929
		c0,2.216-1.787,4.003-3.931,4.003H91.822v13.15h19.366c2.074,0,3.931,1.786,3.931,4c0,2.145-1.857,3.932-3.931,3.932H88.034
		c-0.143,0-0.143-0.071-0.143-0.071l-0.071,0.071C85.605,40.421,83.89,38.634,83.89,36.489z"/>
	<path fill="#1B3A70" d="M120.902,36.489V-5.672c0-2.145,1.716-3.932,3.93-3.932c2.216,0,4.003,1.787,4.003,3.932v38.161h19.367
		c2.072,0,3.932,1.786,3.932,4c0,2.145-1.86,3.932-3.932,3.932h-23.155c-0.142,0-0.142,0-0.142,0c-0.073,0-0.073,0-0.073,0
		C122.618,40.421,120.902,38.634,120.902,36.489z"/>
	<path fill="#819BB2" stroke="#819BB2" stroke-width="0.9529" stroke-miterlimit="10" d="M159.416-2.243v40.948
		c0,0.93-0.785,1.716-1.715,1.716s-1.716-0.787-1.716-1.716v-45.88c-0.212-0.712,0-1.425,0.645-1.926
		c0.786-0.502,1.931-0.358,2.431,0.428l30.3,42.021V-7.388c0-0.928,0.786-1.714,1.716-1.714c1,0,1.787,0.786,1.787,1.714v46.093
		c0,0.93-0.787,1.716-1.787,1.716c-0.573,0-1-0.215-1.36-0.642c-0.07-0.073-0.214-0.145-0.285-0.288L159.416-2.243z"/>
	<path fill="#FFFFFF" stroke="#819BB2" stroke-width="0.9529" stroke-miterlimit="10" d="M223.873-10.316
		c13.364,0,23.869,11.363,23.939,25.37c-0.07,14.006-10.576,25.368-23.939,25.368c-13.507,0-24.084-11.361-24.155-25.368
		C199.788,1.047,210.366-10.316,223.873-10.316z"/>
	<path fill="#819BB2" stroke="#819BB2" stroke-width="0.9529" stroke-miterlimit="10" d="M293.04-2.457l-16.007,22.226
		c-0.356,0.571-0.93,0.786-1.428,0.786h-0.144c-0.642,0-1.146-0.215-1.501-0.786L257.953-2.385v41.089
		c0,0.93-0.786,1.716-1.716,1.716c-1,0-1.786-0.787-1.786-1.716V-7.602c0-0.571,0.288-1.071,0.715-1.357
		c0-0.071,0.071-0.071,0.144-0.143c0.786-0.502,1.857-0.358,2.428,0.428l17.794,24.654l17.724-24.654
		c0.501-0.786,1.645-0.93,2.431-0.428c0.215,0.213,0.357,0.357,0.501,0.572c0.141,0.286,0.285,0.642,0.285,0.928v46.307
		c0,0.93-0.786,1.716-1.716,1.716c-1,0-1.717-0.787-1.717-1.716V-2.457z"/>
	<path fill="#819BB2" stroke="#819BB2" stroke-width="0.9529" stroke-miterlimit="10" d="M309.9-7.888
		c0-0.927,0.786-1.716,1.716-1.716c1.001,0,1.786,0.789,1.786,1.716v46.593c0,0.93-0.785,1.716-1.786,1.716
		c-0.93,0-1.716-0.787-1.716-1.716V-7.888z"/>
	<path fill="#819BB2" stroke="#819BB2" stroke-width="0.9529" stroke-miterlimit="10" d="M349.633-10.316
		c6.146,0,11.791,2.143,16.15,5.504c0.786,0.641,0.929,1.857,0.285,2.499c-0.571,0.858-1.716,0.93-2.431,0.356
		c-3.859-3-8.716-4.857-14.005-4.857c-12.508,0-22.512,9.79-22.512,22.009c0,11.934,10.004,21.724,22.512,21.724
		c5.289,0,10.146-1.714,13.862-4.856c0.857-0.574,2.002-0.43,2.502,0.427c0.715,0.644,0.572,1.93-0.214,2.501
		c-4.359,3.358-10.004,5.431-16.15,5.431c-14.365,0-26.014-11.291-26.014-25.227C323.619,0.974,335.268-10.246,349.633-10.316z"/>
	<path fill="#819BB2" stroke="#819BB2" stroke-width="0.9529" stroke-miterlimit="10" d="M373.28,31.061
		c0.571-0.715,1.571-0.788,2.217-0.214c3.716,3.001,9.933,6.501,16.434,6.431c4.361,0,8.289-1.286,11.006-3.288
		c2.787-2.001,4.29-4.645,4.29-7.432c0-2.86-1.359-5.003-4.076-6.86c-2.716-1.786-6.717-3.143-11.576-4.073h-0.144
		c-4.644-0.857-8.718-2.144-11.79-4.217c-3.072-2.001-5.145-5.002-5.145-8.72c0-3.787,2.072-7.074,5.215-9.36
		c3.144-2.287,7.36-3.644,12.079-3.644c6.574,0,11.505,3.214,15.437,5.788c0.713,0.499,0.928,1.429,0.427,2.215
		c-0.427,0.712-1.428,0.93-2.142,0.43c-3.933-2.575-8.219-5.292-13.722-5.292c-4.076,0-7.72,1.218-10.22,3.004
		c-2.502,1.858-3.931,4.289-3.931,6.859c0.07,2.503,1.216,4.361,3.713,6.077c2.502,1.713,6.22,2.931,10.723,3.788h0.142
		c5.003,0.929,9.436,2.357,12.72,4.573c3.291,2.143,5.505,5.43,5.505,9.433c0,4-2.287,7.576-5.645,10.007
		c-3.361,2.428-7.862,3.927-12.866,3.927c-7.646-0.07-14.291-3.927-18.437-7.217C372.851,32.703,372.779,31.703,373.28,31.061z"/>
</g>
<g>
	<path fill="#1B3A70" d="M207.397-10.443l1.971,4.066c0.25,0.146,0.518,0.279,0.811,0.394l-1.981-4.088
		C207.91-10.18,207.642-10.304,207.397-10.443z"/>
	<path fill="#1B3A70" d="M228.567-14.827l2.003,4.129c0.159-0.096,0.324-0.192,0.48-0.292l-2.003-4.131
		C228.893-15.021,228.729-14.926,228.567-14.827z"/>
	<path fill="#1B3A70" d="M211.796-9.509l1.997,4.117c0.205,0.002,0.409,0.008,0.622,0.002l-1.997-4.119
		C212.206-9.503,212.001-9.508,211.796-9.509z"/>
	<path fill="#1B3A70" d="M219.91-10.88l1.999,4.126c0.176-0.057,0.356-0.122,0.536-0.181l-2.001-4.126
		C220.264-10.998,220.084-10.935,219.91-10.88z"/>
	<path fill="#1B3A70" d="M227.445-14.16l2.001,4.129c0.164-0.093,0.326-0.185,0.487-0.278l-2.004-4.131
		C227.771-14.345,227.607-14.254,227.445-14.16z"/>
	<path fill="#1B3A70" d="M230.652-16.208l2.004,4.133c0.157-0.111,0.306-0.227,0.455-0.34l-2.003-4.133
		C230.956-16.434,230.806-16.319,230.652-16.208z"/>
	<path fill="#1B3A70" d="M231.607-16.919l2.004,4.131c0.154-0.119,0.297-0.239,0.447-0.358l-2.003-4.137
		C231.906-17.161,231.761-17.041,231.607-16.919z"/>
	<path fill="#1B3A70" d="M229.636-15.511l2.004,4.131c0.16-0.104,0.316-0.209,0.471-0.315l-2.004-4.13
		C229.952-15.721,229.795-15.616,229.636-15.511z"/>
	<path fill="#1B3A70" d="M205.797-12.098l2.075,4.22l0.01-0.008c0.253,0.503,0.642,0.92,1.127,1.271l-1.976-4.079
		C206.487-11.074,206.061-11.534,205.797-12.098z"/>
	<path fill="#1B3A70" d="M225.015-12.896l2.001,4.129c0.169-0.081,0.336-0.165,0.506-0.248l-2.004-4.129
		C225.351-13.06,225.184-12.978,225.015-12.896z"/>
	<path fill="#1B3A70" d="M222.419-11.775l2.001,4.127c0.174-0.068,0.349-0.132,0.523-0.202l-2-4.127
		C222.768-11.906,222.593-11.844,222.419-11.775z"/>
	<path fill="#1B3A70" d="M208.539-9.968l1.994,4.106c0.232,0.076,0.468,0.149,0.722,0.207l-1.993-4.112
		C209.009-9.823,208.774-9.894,208.539-9.968z"/>
	<path fill="#1B3A70" d="M226.26-13.51l2.003,4.129c0.167-0.087,0.329-0.18,0.493-0.271l-2.004-4.129
		C226.588-13.693,226.43-13.599,226.26-13.51z"/>
	<path fill="#1B3A70" d="M221.153-11.298l2.001,4.125c0.177-0.062,0.352-0.126,0.528-0.19l-2.001-4.125
		C221.507-11.426,221.331-11.36,221.153-11.298z"/>
	<path fill="#1B3A70" d="M209.633-9.7l1.995,4.112c0.222,0.041,0.437,0.083,0.674,0.111l-1.994-4.117
		C210.071-9.62,209.854-9.659,209.633-9.7z"/>
	<path fill="#1B3A70" d="M223.708-12.305l2.001,4.126c0.169-0.073,0.341-0.146,0.513-0.225l-2.002-4.127
		C224.049-12.454,223.877-12.38,223.708-12.305z"/>
	<path fill="#1B3A70" d="M210.712-9.558l1.997,4.115c0.215,0.018,0.424,0.042,0.647,0.049l-1.999-4.117
		C211.134-9.519,210.927-9.54,210.712-9.558z"/>
	<path fill="#1B3A70" d="M232.504-17.655l2.006,4.131c0.147-0.124,0.296-0.247,0.438-0.374l-2.004-4.137
		C232.802-17.907,232.653-17.781,232.504-17.655z"/>
	<path fill="#1B3A70" d="M215.147-9.753l1.998,4.122c0.188-0.029,0.384-0.066,0.576-0.102l-2.001-4.121
		C215.528-9.821,215.333-9.78,215.147-9.753z"/>
	<path fill="#1B3A70" d="M234.854-19.966l2.006,4.139c0.14-0.156,0.268-0.311,0.396-0.466l-2.009-4.141
		C235.122-20.277,234.993-20.122,234.854-19.966z"/>
	<path fill="#1B3A70" d="M236.661-22.495l2.011,4.146c0.116-0.22,0.21-0.44,0.3-0.655l-2.008-4.146
		C236.873-22.933,236.779-22.716,236.661-22.495z"/>
	<path fill="#1B3A70" d="M214.013-9.612l1.999,4.122c0.189-0.02,0.389-0.048,0.586-0.073l-1.999-4.122
		C214.401-9.66,214.202-9.632,214.013-9.612z"/>
	<path fill="#1B3A70" d="M217.479-10.216l1.999,4.123c0.188-0.044,0.371-0.082,0.559-0.131l-1.999-4.124
		C217.851-10.3,217.666-10.26,217.479-10.216z"/>
	<path fill="#1B3A70" d="M235.524-20.766l2.009,4.141c0.134-0.172,0.25-0.344,0.374-0.515l-2.009-4.142
		C235.776-21.111,235.66-20.939,235.524-20.766z"/>
	<path fill="#1B3A70" d="M239.112-22.61l-1.958-4.007c0.275,0.594,0.336,1.258,0.24,1.966l2.012,4.146
		c0.091-0.652,0.05-1.269-0.172-1.827l0.005-0.002l-0.018-0.038c-0.018-0.043-0.023-0.089-0.043-0.128
		C239.163-22.539,239.132-22.572,239.112-22.61z"/>
	<path fill="#1B3A70" d="M237.103-23.466l2.006,4.137c0.101-0.269,0.182-0.533,0.24-0.792l-2.012-4.142
		C237.28-24.003,237.205-23.737,237.103-23.466z"/>
	<path fill="#1B3A70" d="M216.302-9.959l1.999,4.123c0.189-0.038,0.376-0.073,0.568-0.113l-1.999-4.124
		C216.678-10.031,216.491-9.997,216.302-9.959z"/>
	<path fill="#1B3A70" d="M236.1-21.565l0.041-0.019l1.999,4.12c0.126-0.193,0.233-0.38,0.343-0.571l-2.008-4.143
		C236.355-21.975,236.239-21.771,236.1-21.565z"/>
	<path fill="#1B3A70" d="M234.129-19.177l2.006,4.138c0.142-0.145,0.283-0.291,0.409-0.436l-2.003-4.138
		C234.409-19.466,234.271-19.322,234.129-19.177z"/>
	<path fill="#1B3A70" d="M233.345-18.407l2.007,4.138c0.142-0.136,0.291-0.267,0.427-0.401l-2.006-4.136
		C233.639-18.673,233.487-18.54,233.345-18.407z"/>
	<path fill="#1B3A70" d="M218.682-10.524l2,4.126c0.181-0.051,0.364-0.103,0.548-0.156l-2.001-4.127
		C219.043-10.627,218.862-10.574,218.682-10.524z"/>
	<path fill="#1B3A70" d="M212.893-9.531l1.999,4.119c0.195-0.009,0.396-0.021,0.604-0.037l-1.999-4.121
		C213.292-9.551,213.093-9.539,212.893-9.531z"/>
	<path fill="#819BB2" d="M224.661-12.722c-0.147,0.069-0.293,0.126-0.44,0.191l2.002,4.127c0.157-0.069,0.311-0.13,0.464-0.202
		c0.111-0.051,0.22-0.11,0.329-0.161l-2.001-4.129C224.896-12.841,224.782-12.777,224.661-12.722z"/>
	<path fill="#819BB2" d="M225.517-13.144l2.004,4.129c0.245-0.123,0.5-0.24,0.742-0.366l-2.003-4.129
		C226.018-13.384,225.765-13.265,225.517-13.144z"/>
	<path fill="#819BB2" d="M226.753-13.781l2.004,4.129c0.23-0.124,0.462-0.25,0.69-0.379l-2.001-4.129
		C227.218-14.031,226.986-13.904,226.753-13.781z"/>
	<path fill="#819BB2" d="M227.93-14.439l2.004,4.131c0.215-0.127,0.427-0.258,0.637-0.39l-2.003-4.129
		C228.357-14.698,228.146-14.567,227.93-14.439z"/>
	<path fill="#819BB2" d="M229.047-15.121l2.003,4.131c0.202-0.127,0.395-0.259,0.589-0.391l-2.004-4.131
		C229.441-15.381,229.252-15.248,229.047-15.121z"/>
	<path fill="#819BB2" d="M233.773-18.806l2.006,4.136c0.126-0.124,0.238-0.245,0.356-0.369l-2.006-4.138
		C234.01-19.052,233.899-18.93,233.773-18.806z"/>
	<path fill="#819BB2" d="M232.944-18.033l2.004,4.137c0.141-0.124,0.268-0.25,0.404-0.373l-2.007-4.138
		C233.212-18.281,233.083-18.157,232.944-18.033z"/>
	<path fill="#819BB2" d="M232.055-17.283l2.003,4.137c0.154-0.126,0.303-0.25,0.452-0.377l-2.006-4.131
		C232.358-17.532,232.206-17.408,232.055-17.283z"/>
	<path fill="#819BB2" d="M231.107-16.548l2.003,4.133c0.167-0.125,0.341-0.247,0.501-0.373l-2.004-4.131
		C231.445-16.795,231.273-16.671,231.107-16.548z"/>
	<path fill="#819BB2" d="M230.106-15.826l2.004,4.13c0.181-0.126,0.366-0.25,0.545-0.379l-2.004-4.133
		C230.472-16.079,230.291-15.954,230.106-15.826z"/>
	<path fill="#819BB2" d="M235.248-20.434l2.009,4.141c0.091-0.111,0.19-0.223,0.276-0.332l-2.009-4.141
		C235.44-20.656,235.339-20.544,235.248-20.434z"/>
	<path fill="#819BB2" d="M234.698-19.78c-0.048,0.055-0.109,0.111-0.157,0.167l2.003,4.138c0.056-0.062,0.124-0.126,0.18-0.188
		c0.048-0.055,0.088-0.109,0.136-0.164l-2.006-4.139C234.801-19.905,234.753-19.843,234.698-19.78z"/>
	<path fill="#819BB2" d="M236.1-21.565c-0.06,0.092-0.136,0.189-0.202,0.282l2.009,4.142c0.076-0.106,0.162-0.215,0.233-0.323
		l-1.999-4.12L236.1-21.565z"/>
	<path fill="#819BB2" d="M236.474-22.177l2.008,4.143c0.061-0.105,0.134-0.211,0.19-0.314l-2.011-4.146
		C236.605-22.389,236.535-22.283,236.474-22.177z"/>
	<path fill="#819BB2" d="M236.964-23.15l2.008,4.146c0.048-0.108,0.096-0.217,0.137-0.325l-2.006-4.137
		C237.065-23.362,237.01-23.254,236.964-23.15z"/>
	<path fill="#819BB2" d="M237.338-24.262l2.012,4.142c0.028-0.13,0.038-0.256,0.056-0.384l-2.012-4.146
		C237.376-24.522,237.369-24.396,237.338-24.262z"/>
	<path fill="#819BB2" d="M222.943-11.977l2,4.127c0.255-0.104,0.513-0.217,0.766-0.329l-2.001-4.126
		C223.453-12.196,223.197-12.08,222.943-11.977z"/>
	<path fill="#819BB2" d="M221.681-11.489l2.001,4.125c0.245-0.09,0.493-0.188,0.738-0.284l-2.001-4.127
		C222.174-11.678,221.926-11.58,221.681-11.489z"/>
	<path fill="#819BB2" d="M220.443-11.06l2.001,4.126c0.234-0.078,0.472-0.155,0.709-0.239l-2.001-4.125
		C220.916-11.215,220.681-11.139,220.443-11.06z"/>
	<path fill="#819BB2" d="M219.228-10.68l2.001,4.127c0.225-0.068,0.45-0.126,0.68-0.2l-1.999-4.126
		C219.678-10.808,219.455-10.746,219.228-10.68z"/>
	<path fill="#819BB2" d="M213.497-9.569l1.999,4.121c0.172-0.014,0.339-0.024,0.516-0.042l-1.999-4.122
		C213.838-9.594,213.668-9.581,213.497-9.569z"/>
	<path fill="#819BB2" d="M214.599-9.685l1.999,4.122c0.182-0.022,0.361-0.041,0.548-0.068l-1.998-4.122
		C214.96-9.724,214.783-9.707,214.599-9.685z"/>
	<path fill="#819BB2" d="M215.721-9.854l2.001,4.121c0.19-0.033,0.381-0.067,0.579-0.104l-1.999-4.123
		C216.107-9.921,215.913-9.886,215.721-9.854z"/>
	<path fill="#819BB2" d="M216.87-10.073l1.999,4.124c0.2-0.043,0.407-0.097,0.609-0.143l-1.999-4.123
		C217.277-10.167,217.07-10.117,216.87-10.073z"/>
	<path fill="#819BB2" d="M218.038-10.347l1.999,4.124c0.215-0.054,0.429-0.117,0.645-0.174l-2-4.126
		C218.467-10.464,218.25-10.401,218.038-10.347z"/>
	<path fill="#819BB2" d="M211.356-9.51l1.999,4.117c0.139,0.007,0.293,0.001,0.437,0.002l-1.997-4.117
		C211.652-9.51,211.5-9.505,211.356-9.51z"/>
	<path fill="#819BB2" d="M212.511-9.506c-0.033,0.001-0.061-0.001-0.094-0.001l1.997,4.119c0.043-0.001,0.081,0,0.124,0
		c0.111-0.002,0.237-0.018,0.354-0.022l-1.999-4.119C212.769-9.524,212.632-9.51,212.511-9.506z"/>
	<path fill="#819BB2" d="M210.308-9.594l1.994,4.117c0.131,0.017,0.272,0.023,0.407,0.034l-1.997-4.115
		C210.579-9.569,210.439-9.578,210.308-9.594z"/>
	<path fill="#819BB2" d="M209.262-9.766l1.993,4.112c0.119,0.026,0.248,0.041,0.373,0.066L209.633-9.7
		C209.51-9.723,209.378-9.74,209.262-9.766z"/>
	<path fill="#819BB2" d="M208.198-10.071l1.981,4.088c0.116,0.043,0.235,0.081,0.354,0.122l-1.994-4.106
		C208.428-10.003,208.304-10.031,208.198-10.071z"/>
	<path fill="#819BB2" d="M207.033-10.693l1.976,4.079c0.114,0.083,0.235,0.163,0.359,0.238l-1.971-4.066
		C207.263-10.518,207.152-10.61,207.033-10.693z"/>
	<path fill="#1B3A70" d="M230.352-29.166c-3.273,0.028-7.657,1.136-11.874,3.087c-4.402,2.039-8.081,4.667-10.312,7.186
		c-2.277,2.541-3.217,4.959-2.368,6.794c0.263,0.563,0.69,1.024,1.236,1.405c0.119,0.083,0.229,0.175,0.364,0.25
		c0.245,0.139,0.513,0.263,0.801,0.372c0.106,0.041,0.229,0.068,0.341,0.104c0.235,0.073,0.47,0.145,0.723,0.201
		c0.117,0.026,0.248,0.043,0.371,0.066c0.221,0.041,0.438,0.08,0.675,0.106c0.132,0.016,0.271,0.025,0.404,0.036
		c0.215,0.018,0.422,0.039,0.645,0.048c0.144,0.005,0.296,0,0.439,0.002c0.205,0.001,0.41,0.006,0.622,0.001
		c0.033,0,0.061,0.002,0.094,0.001c0.121-0.004,0.258-0.018,0.382-0.024c0.2-0.009,0.399-0.021,0.604-0.038
		c0.171-0.012,0.341-0.025,0.516-0.043c0.189-0.02,0.389-0.049,0.586-0.073c0.185-0.022,0.361-0.039,0.549-0.068
		c0.186-0.027,0.381-0.068,0.573-0.101c0.192-0.033,0.386-0.067,0.581-0.105c0.189-0.038,0.376-0.072,0.568-0.115
		c0.2-0.043,0.407-0.094,0.609-0.142c0.187-0.044,0.372-0.084,0.559-0.132c0.212-0.054,0.43-0.117,0.644-0.176
		c0.18-0.05,0.362-0.104,0.546-0.157c0.227-0.065,0.45-0.127,0.682-0.199c0.174-0.056,0.354-0.119,0.533-0.181
		c0.238-0.079,0.472-0.154,0.71-0.238c0.177-0.062,0.354-0.128,0.528-0.191c0.245-0.091,0.493-0.189,0.738-0.286
		c0.174-0.069,0.348-0.131,0.523-0.202c0.254-0.103,0.51-0.219,0.765-0.328c0.169-0.075,0.341-0.149,0.513-0.226
		c0.147-0.064,0.293-0.122,0.44-0.191c0.122-0.055,0.235-0.119,0.354-0.174c0.169-0.082,0.336-0.164,0.502-0.248
		c0.248-0.121,0.5-0.239,0.743-0.366c0.169-0.088,0.328-0.182,0.493-0.27c0.233-0.124,0.465-0.25,0.692-0.379
		c0.162-0.094,0.326-0.185,0.485-0.279c0.215-0.127,0.427-0.259,0.637-0.388c0.162-0.099,0.326-0.194,0.48-0.294
		c0.205-0.127,0.394-0.26,0.588-0.391c0.16-0.105,0.316-0.209,0.47-0.315c0.185-0.127,0.366-0.252,0.546-0.381
		c0.154-0.111,0.304-0.227,0.455-0.34c0.167-0.124,0.338-0.248,0.5-0.372c0.154-0.122,0.299-0.242,0.448-0.364
		c0.151-0.125,0.303-0.249,0.449-0.372c0.149-0.126,0.298-0.252,0.44-0.379c0.139-0.124,0.268-0.248,0.401-0.374
		c0.142-0.133,0.293-0.265,0.428-0.399c0.126-0.124,0.237-0.246,0.356-0.371c0.141-0.145,0.28-0.289,0.412-0.436
		c0.048-0.055,0.108-0.112,0.157-0.167c0.055-0.063,0.104-0.125,0.157-0.187c0.139-0.156,0.268-0.311,0.394-0.468
		c0.091-0.109,0.192-0.222,0.276-0.332c0.136-0.173,0.252-0.345,0.374-0.517c0.066-0.093,0.142-0.19,0.202-0.282
		c0.139-0.206,0.256-0.41,0.375-0.612c0.061-0.106,0.131-0.212,0.187-0.317c0.118-0.221,0.212-0.438,0.303-0.655
		c0.045-0.104,0.101-0.212,0.139-0.316c0.102-0.271,0.177-0.537,0.235-0.796c0.031-0.134,0.038-0.26,0.056-0.389
		c0.096-0.708,0.035-1.373-0.24-1.966C236.304-28.453,233.76-29.258,230.352-29.166z"/>
</g>
<g>
	<path fill="#1B3A70" d="M202.636-57.743l-3.159,5.534c0.03,0.407,0.091,0.826,0.192,1.258l3.171-5.562
		C202.737-56.936,202.669-57.344,202.636-57.743z"/>
	<path fill="#1B3A70" d="M224.608-36.619l-3.208,5.62c0.24,0.108,0.483,0.224,0.723,0.326l3.207-5.621
		C225.09-36.396,224.848-36.51,224.608-36.619z"/>
	<path fill="#1B3A70" d="M205.057-51.884l-3.199,5.605c0.162,0.241,0.319,0.481,0.495,0.725l3.197-5.602
		C205.373-51.404,205.219-51.641,205.057-51.884z"/>
	<path fill="#1B3A70" d="M213.115-43.543l-3.204,5.615c0.207,0.162,0.425,0.319,0.637,0.48l3.201-5.615
		C213.54-43.224,213.32-43.381,213.115-43.543z"/>
	<path fill="#1B3A70" d="M222.935-37.392l-3.204,5.62c0.235,0.115,0.473,0.23,0.71,0.344l3.207-5.622
		C223.41-37.162,223.172-37.277,222.935-37.392z"/>
	<path fill="#1B3A70" d="M227.873-35.297l-3.209,5.625c0.255,0.093,0.506,0.175,0.758,0.261l3.209-5.625
		C228.377-35.123,228.125-35.204,227.873-35.297z"/>
	<path fill="#1B3A70" d="M229.459-34.752l-3.206,5.624c0.262,0.084,0.518,0.154,0.776,0.232l3.211-5.625
		C229.979-34.6,229.725-34.67,229.459-34.752z"/>
	<path fill="#1B3A70" d="M226.253-35.921l-3.205,5.624c0.245,0.1,0.493,0.198,0.738,0.294l3.207-5.622
		C226.748-35.72,226.503-35.82,226.253-35.921z"/>
	<path fill="#1B3A70" d="M203.283-60.919l-3.252,5.771l0.018,0.01c-0.382,0.693-0.559,1.481-0.579,2.324l3.166-5.551
		C202.644-59.303,202.838-60.167,203.283-60.919z"/>
	<path fill="#1B3A70" d="M219.528-39.211l-3.204,5.618c0.228,0.133,0.458,0.259,0.688,0.388l3.204-5.62
		C219.988-38.953,219.758-39.08,219.528-39.211z"/>
	<path fill="#1B3A70" d="M216.158-41.335l-3.205,5.616c0.218,0.149,0.43,0.302,0.652,0.449l3.205-5.616
		C216.587-41.033,216.375-41.186,216.158-41.335z"/>
	<path fill="#1B3A70" d="M202.995-56.035l-3.189,5.589c0.098,0.331,0.202,0.662,0.336,1.006l3.194-5.597
		C203.197-55.375,203.094-55.704,202.995-56.035z"/>
	<path fill="#1B3A70" d="M221.237-38.254l-3.207,5.622c0.238,0.124,0.473,0.236,0.708,0.356l3.207-5.62
		C221.707-38.016,221.474-38.127,221.237-38.254z"/>
	<path fill="#1B3A70" d="M214.594-42.428l-3.202,5.615c0.212,0.156,0.426,0.31,0.642,0.464l3.204-5.617
		C215.023-42.12,214.806-42.271,214.594-42.428z"/>
	<path fill="#1B3A70" d="M203.554-54.549l-3.191,5.594c0.129,0.289,0.252,0.576,0.409,0.875l3.194-5.601
		C203.812-53.976,203.683-54.263,203.554-54.549z"/>
	<path fill="#1B3A70" d="M217.8-40.26l-3.204,5.616c0.222,0.141,0.442,0.281,0.669,0.419l3.207-5.617
		C218.245-39.981,218.022-40.121,217.8-40.26z"/>
	<path fill="#1B3A70" d="M204.249-53.183l-3.192,5.6c0.146,0.263,0.286,0.528,0.455,0.794l3.196-5.605
		C204.539-52.66,204.4-52.918,204.249-53.183z"/>
	<path fill="#1B3A70" d="M231.033-34.295l-3.209,5.625c0.263,0.072,0.528,0.148,0.786,0.214l3.209-5.629
		C231.562-34.15,231.296-34.223,231.033-34.295z"/>
	<path fill="#1B3A70" d="M208.011-48.179l-3.199,5.608c0.182,0.195,0.381,0.392,0.571,0.587l3.201-5.609
		C208.393-47.79,208.193-47.985,208.011-48.179z"/>
	<path fill="#1B3A70" d="M235.592-33.405l-3.214,5.632c0.291,0.038,0.576,0.065,0.859,0.089l3.212-5.635
		C236.168-33.343,235.883-33.368,235.592-33.405z"/>
	<path fill="#1B3A70" d="M239.971-33.32l-3.22,5.643c0.354-0.039,0.68-0.105,1.006-0.169l3.216-5.642
		C240.651-33.424,240.322-33.359,239.971-33.32z"/>
	<path fill="#1B3A70" d="M206.939-49.388l-3.199,5.608c0.177,0.207,0.366,0.417,0.553,0.625l3.199-5.609
		C207.306-48.972,207.117-49.183,206.939-49.388z"/>
	<path fill="#1B3A70" d="M210.406-45.837l-3.201,5.61c0.202,0.185,0.392,0.364,0.599,0.546l3.201-5.612
		C210.8-45.473,210.606-45.655,210.406-45.837z"/>
	<path fill="#1B3A70" d="M237.058-33.263l-3.217,5.635c0.309,0.019,0.601,0.018,0.897,0.023l3.214-5.635
		C237.657-33.245,237.366-33.243,237.058-33.263z"/>
	<path fill="#1B3A70" d="M242.061-30.561l3.098-5.469c-0.473,0.792-1.195,1.393-2.095,1.844l-3.219,5.644
		c0.829-0.415,1.514-0.953,1.988-1.653l0.005,0.003l0.031-0.053c0.036-0.05,0.086-0.096,0.116-0.149
		C242.018-30.446,242.031-30.506,242.061-30.561z"/>
	<path fill="#1B3A70" d="M241.455-33.576l-3.212,5.628c0.392-0.097,0.763-0.214,1.109-0.353l3.216-5.64
		C242.22-33.802,241.849-33.675,241.455-33.576z"/>
	<path fill="#1B3A70" d="M209.168-47.002l-3.199,5.61c0.194,0.191,0.384,0.379,0.584,0.571l3.201-5.61
		C209.552-46.622,209.363-46.812,209.168-47.002z"/>
	<path fill="#1B3A70" d="M238.444-33.23l0.054,0.03l-3.199,5.61c0.326-0.005,0.629-0.033,0.939-0.057l3.217-5.636
		C239.125-33.26,238.793-33.235,238.444-33.23z"/>
	<path fill="#1B3A70" d="M234.096-33.619l-3.212,5.631c0.28,0.048,0.561,0.096,0.832,0.13l3.214-5.63
		C234.657-33.523,234.377-33.571,234.096-33.619z"/>
	<path fill="#1B3A70" d="M232.575-33.915l-3.212,5.628c0.27,0.06,0.543,0.129,0.809,0.179l3.209-5.627
		C233.119-33.789,232.845-33.857,232.575-33.915z"/>
	<path fill="#1B3A70" d="M211.723-44.685l-3.204,5.612c0.202,0.172,0.41,0.343,0.616,0.513l3.205-5.615
		C212.132-44.344,211.925-44.515,211.723-44.685z"/>
	<path fill="#1B3A70" d="M205.954-50.623l-3.197,5.605c0.169,0.222,0.341,0.447,0.523,0.672l3.199-5.606
		C206.298-50.177,206.123-50.401,205.954-50.623z"/>
	<path fill="#819BB2" d="M219.046-39.485c-0.197-0.116-0.382-0.241-0.573-0.358l-3.207,5.617c0.205,0.125,0.399,0.254,0.606,0.378
		c0.151,0.088,0.303,0.167,0.452,0.254l3.204-5.618C219.369-39.305,219.205-39.388,219.046-39.485z"/>
	<path fill="#819BB2" d="M220.216-38.824l-3.204,5.62c0.341,0.191,0.68,0.39,1.018,0.573l3.207-5.622
		C220.896-38.435,220.557-38.634,220.216-38.824z"/>
	<path fill="#819BB2" d="M221.944-37.895l-3.207,5.62c0.332,0.17,0.663,0.34,0.993,0.502l3.204-5.62
		C222.604-37.556,222.273-37.724,221.944-37.895z"/>
	<path fill="#819BB2" d="M223.647-37.051l-3.207,5.622c0.318,0.148,0.642,0.288,0.959,0.43l3.208-5.62
		C224.287-36.763,223.968-36.901,223.647-37.051z"/>
	<path fill="#819BB2" d="M225.331-36.293l-3.207,5.621c0.309,0.133,0.617,0.25,0.925,0.375l3.205-5.624
		C225.944-36.045,225.641-36.161,225.331-36.293z"/>
	<path fill="#819BB2" d="M233.381-33.736l-3.209,5.627c0.243,0.048,0.475,0.081,0.712,0.12l3.212-5.631
		C233.858-33.657,233.626-33.687,233.381-33.736z"/>
	<path fill="#819BB2" d="M231.819-34.086l-3.209,5.629c0.257,0.063,0.502,0.111,0.753,0.169l3.212-5.628
		C232.325-33.971,232.078-34.021,231.819-34.086z"/>
	<path fill="#819BB2" d="M230.24-34.522l-3.211,5.625c0.267,0.079,0.53,0.155,0.795,0.226l3.209-5.625
		C230.771-34.367,230.508-34.443,230.24-34.522z"/>
	<path fill="#819BB2" d="M228.63-35.037l-3.209,5.625c0.278,0.094,0.559,0.197,0.832,0.283l3.206-5.624
		C229.187-34.84,228.906-34.941,228.63-35.037z"/>
	<path fill="#819BB2" d="M226.993-35.626l-3.207,5.622c0.293,0.111,0.583,0.227,0.876,0.331l3.209-5.625
		C227.579-35.401,227.289-35.514,226.993-35.626z"/>
	<path fill="#819BB2" d="M236.449-33.319l-3.212,5.635c0.199,0.017,0.41,0.043,0.604,0.055l3.217-5.635
		C236.858-33.273,236.651-33.302,236.449-33.319z"/>
	<path fill="#819BB2" d="M235.25-33.439c-0.103-0.011-0.214-0.037-0.32-0.049l-3.214,5.63c0.119,0.016,0.248,0.042,0.362,0.057
		c0.103,0.014,0.197,0.016,0.3,0.028l3.214-5.632C235.476-33.417,235.37-33.424,235.25-33.439z"/>
	<path fill="#819BB2" d="M238.444-33.23c-0.159,0.002-0.328-0.008-0.492-0.01l-3.214,5.635c0.184,0.002,0.378,0.018,0.561,0.015
		l3.199-5.61L238.444-33.23z"/>
	<path fill="#819BB2" d="M239.456-33.283l-3.217,5.636c0.169-0.011,0.349-0.013,0.513-0.03l3.22-5.643
		C239.804-33.302,239.625-33.298,239.456-33.283z"/>
	<path fill="#819BB2" d="M240.974-33.488l-3.216,5.642c0.161-0.031,0.328-0.063,0.485-0.101l3.212-5.628
		C241.303-33.538,241.131-33.519,240.974-33.488z"/>
	<path fill="#819BB2" d="M242.568-33.94l-3.216,5.64c0.174-0.07,0.329-0.16,0.493-0.242l3.219-5.644
		C242.9-34.103,242.746-34.012,242.568-33.94z"/>
	<path fill="#819BB2" d="M216.81-40.886l-3.205,5.616c0.324,0.213,0.66,0.419,0.991,0.626l3.204-5.616
		C217.471-40.469,217.133-40.672,216.81-40.886z"/>
	<path fill="#819BB2" d="M215.238-41.966l-3.204,5.617c0.3,0.213,0.611,0.42,0.919,0.63l3.205-5.616
		C215.847-41.545,215.539-41.754,215.238-41.966z"/>
	<path fill="#819BB2" d="M213.75-43.063l-3.201,5.615c0.28,0.212,0.556,0.425,0.844,0.635l3.202-5.615
		C214.308-42.638,214.03-42.85,213.75-43.063z"/>
	<path fill="#819BB2" d="M212.34-44.175l-3.205,5.615c0.26,0.21,0.508,0.423,0.776,0.632l3.204-5.615
		C212.85-43.752,212.597-43.963,212.34-44.175z"/>
	<path fill="#819BB2" d="M206.479-49.952l-3.199,5.606c0.151,0.189,0.3,0.375,0.46,0.566l3.199-5.608
		C206.78-49.576,206.631-49.764,206.479-49.952z"/>
	<path fill="#819BB2" d="M207.493-48.764l-3.199,5.609c0.171,0.194,0.336,0.389,0.518,0.584l3.199-5.608
		C207.826-48.375,207.667-48.568,207.493-48.764z"/>
	<path fill="#819BB2" d="M208.584-47.593l-3.201,5.609c0.192,0.198,0.386,0.395,0.586,0.592l3.199-5.61
		C208.969-47.2,208.777-47.396,208.584-47.593z"/>
	<path fill="#819BB2" d="M209.754-46.432l-3.201,5.61c0.209,0.199,0.437,0.397,0.652,0.594l3.201-5.61
		C210.189-46.036,209.964-46.234,209.754-46.432z"/>
	<path fill="#819BB2" d="M211.005-45.294l-3.201,5.612c0.232,0.205,0.475,0.407,0.715,0.609l3.204-5.612
		C211.48-44.886,211.235-45.09,211.005-45.294z"/>
	<path fill="#819BB2" d="M204.708-52.394l-3.196,5.605c0.106,0.167,0.235,0.341,0.346,0.51l3.199-5.605
		C204.943-52.052,204.817-52.225,204.708-52.394z"/>
	<path fill="#819BB2" d="M205.623-51.05c-0.028-0.036-0.048-0.07-0.073-0.106l-3.197,5.602c0.033,0.048,0.061,0.093,0.096,0.142
		c0.094,0.129,0.209,0.263,0.308,0.394l3.197-5.605C205.848-50.764,205.724-50.909,205.623-51.05z"/>
	<path fill="#819BB2" d="M203.965-53.68l-3.194,5.601c0.083,0.163,0.189,0.331,0.285,0.496l3.192-5.6
		C204.155-53.348,204.054-53.516,203.965-53.68z"/>
	<path fill="#819BB2" d="M203.336-55.037l-3.194,5.597c0.063,0.159,0.149,0.323,0.22,0.485l3.191-5.594
		C203.48-54.712,203.399-54.879,203.336-55.037z"/>
	<path fill="#819BB2" d="M202.841-56.513l-3.171,5.562c0.038,0.167,0.088,0.335,0.136,0.505l3.189-5.589
		C202.947-56.192,202.878-56.359,202.841-56.513z"/>
	<path fill="#819BB2" d="M202.636-58.365l-3.166,5.551c-0.005,0.197-0.005,0.4,0.007,0.605l3.159-5.534
		C202.616-57.958,202.634-58.158,202.636-58.365z"/>
	<path fill="#FFFFFF" d="M242.701-45.97c-2.639-3.783-7.422-7.999-13.054-11.349c-5.878-3.492-11.866-5.678-16.575-6.264
		c-4.768-0.622-8.328,0.212-9.789,2.665c-0.445,0.752-0.639,1.616-0.647,2.553c-0.002,0.207-0.021,0.407,0,0.622
		c0.033,0.399,0.101,0.807,0.205,1.23c0.038,0.154,0.106,0.321,0.154,0.478c0.099,0.331,0.202,0.661,0.341,0.998
		c0.063,0.159,0.144,0.326,0.218,0.488c0.129,0.286,0.258,0.573,0.412,0.869c0.088,0.164,0.19,0.333,0.283,0.498
		c0.152,0.265,0.29,0.523,0.459,0.789c0.109,0.169,0.235,0.342,0.349,0.51c0.162,0.243,0.316,0.48,0.493,0.729
		c0.025,0.036,0.045,0.07,0.073,0.106c0.101,0.14,0.225,0.285,0.331,0.427c0.169,0.222,0.344,0.446,0.525,0.671
		c0.152,0.188,0.3,0.375,0.46,0.563c0.177,0.206,0.367,0.416,0.553,0.624c0.174,0.196,0.333,0.389,0.518,0.585
		c0.182,0.195,0.382,0.39,0.574,0.586c0.192,0.197,0.384,0.393,0.584,0.591c0.194,0.19,0.384,0.38,0.586,0.57
		c0.21,0.198,0.435,0.396,0.652,0.595c0.2,0.182,0.394,0.364,0.599,0.543c0.23,0.204,0.475,0.407,0.718,0.609
		c0.202,0.169,0.409,0.34,0.617,0.51c0.257,0.211,0.51,0.423,0.775,0.632c0.205,0.162,0.424,0.319,0.634,0.48
		c0.281,0.212,0.559,0.425,0.844,0.635c0.212,0.157,0.43,0.308,0.644,0.462c0.301,0.212,0.609,0.421,0.92,0.631
		c0.217,0.149,0.429,0.302,0.652,0.449c0.323,0.214,0.661,0.417,0.99,0.626c0.223,0.14,0.445,0.28,0.673,0.418
		c0.191,0.117,0.376,0.242,0.573,0.358c0.159,0.097,0.323,0.18,0.482,0.273c0.23,0.131,0.46,0.258,0.688,0.387
		c0.341,0.191,0.68,0.39,1.021,0.571c0.237,0.126,0.47,0.237,0.708,0.359c0.329,0.17,0.659,0.338,0.99,0.502
		c0.237,0.115,0.475,0.23,0.713,0.342c0.321,0.149,0.639,0.288,0.96,0.432c0.24,0.109,0.482,0.223,0.723,0.326
		c0.31,0.132,0.614,0.248,0.922,0.372c0.25,0.101,0.495,0.201,0.74,0.295c0.295,0.111,0.586,0.225,0.879,0.329
		c0.252,0.093,0.505,0.174,0.758,0.26c0.275,0.096,0.556,0.197,0.829,0.285c0.266,0.082,0.521,0.152,0.781,0.23
		c0.268,0.079,0.53,0.154,0.793,0.227s0.529,0.145,0.786,0.209c0.258,0.064,0.505,0.115,0.756,0.17
		c0.27,0.059,0.543,0.126,0.806,0.18c0.245,0.048,0.478,0.079,0.715,0.117c0.281,0.048,0.561,0.096,0.834,0.131
		c0.106,0.012,0.217,0.038,0.32,0.049c0.119,0.015,0.226,0.021,0.341,0.034c0.291,0.037,0.576,0.062,0.857,0.086
		c0.202,0.017,0.409,0.045,0.609,0.055c0.309,0.021,0.599,0.018,0.895,0.023c0.164,0.002,0.333,0.013,0.492,0.01
		c0.349-0.005,0.68-0.03,1.011-0.053c0.169-0.015,0.349-0.018,0.516-0.037c0.351-0.039,0.68-0.104,1.003-0.168
		c0.157-0.031,0.329-0.05,0.48-0.088c0.394-0.099,0.766-0.226,1.114-0.364c0.178-0.072,0.332-0.163,0.496-0.246
		c0.9-0.451,1.622-1.052,2.095-1.844C246.617-38.481,245.525-42.081,242.701-45.97z"/>
</g>
<g>
	<path fill="#1B3A70" d="M200.483,42.912l-3.07,3.022c-0.053,0.271-0.094,0.556-0.106,0.854l3.085-3.035
		C200.405,43.458,200.433,43.18,200.483,42.912z"/>
	<path fill="#1B3A70" d="M210.904,60.694l-3.118,3.068c0.136,0.116,0.272,0.235,0.412,0.346l3.118-3.07
		C211.18,60.926,211.041,60.808,210.904,60.694z"/>
	<path fill="#1B3A70" d="M200.984,47.17l-3.108,3.062c0.059,0.188,0.119,0.372,0.188,0.561l3.108-3.057
		C201.102,47.542,201.045,47.36,200.984,47.17z"/>
	<path fill="#1B3A70" d="M204.698,54.079l-3.115,3.067c0.103,0.14,0.217,0.283,0.326,0.427l3.113-3.065
		C204.916,54.365,204.805,54.22,204.698,54.079z"/>
	<path fill="#1B3A70" d="M209.957,59.883l-3.116,3.07c0.134,0.119,0.268,0.238,0.397,0.354l3.121-3.073
		C210.227,60.12,210.094,60.004,209.957,59.883z"/>
	<path fill="#1B3A70" d="M212.787,62.154l-3.121,3.071c0.149,0.106,0.298,0.208,0.444,0.308l3.124-3.07
		C213.085,62.36,212.934,62.26,212.787,62.154z"/>
	<path fill="#1B3A70" d="M213.722,62.799l-3.121,3.073c0.154,0.101,0.308,0.194,0.462,0.293l3.121-3.07
		C214.03,62.996,213.878,62.903,213.722,62.799z"/>
	<path fill="#1B3A70" d="M211.849,61.452l-3.118,3.067c0.139,0.111,0.283,0.223,0.424,0.329l3.122-3.073
		C212.132,61.672,211.994,61.561,211.849,61.452z"/>
	<path fill="#1B3A70" d="M201.489,40.967l-3.177,3.158l0.01,0.01c-0.376,0.382-0.637,0.86-0.804,1.405l3.078-3.033
		C200.776,41.899,201.062,41.373,201.489,40.967z"/>
	<path fill="#1B3A70" d="M208.077,58.074l-3.118,3.069c0.124,0.127,0.25,0.251,0.376,0.377l3.118-3.067
		C208.327,58.326,208.201,58.202,208.077,58.074z"/>
	<path fill="#1B3A70" d="M206.272,56.075l-3.118,3.065c0.117,0.136,0.225,0.275,0.343,0.412l3.116-3.068
		C206.495,56.348,206.389,56.211,206.272,56.075z"/>
	<path fill="#1B3A70" d="M200.405,44.09l-3.101,3.053c0.005,0.235,0.008,0.467,0.033,0.715l3.106-3.053
		C200.416,44.56,200.41,44.325,200.405,44.09z"/>
	<path fill="#1B3A70" d="M209.012,59.011l-3.118,3.07c0.131,0.126,0.262,0.24,0.394,0.362l3.119-3.068
		C209.274,59.251,209.143,59.138,209.012,59.011z"/>
	<path fill="#1B3A70" d="M205.457,55.074l-3.116,3.065c0.108,0.142,0.22,0.283,0.333,0.423l3.115-3.065
		C205.676,55.354,205.564,55.216,205.457,55.074z"/>
	<path fill="#1B3A70" d="M200.496,45.161l-3.103,3.055c0.03,0.213,0.058,0.422,0.104,0.645l3.108-3.06
		C200.559,45.583,200.526,45.373,200.496,45.161z"/>
	<path fill="#1B3A70" d="M207.144,57.075l-3.118,3.065c0.119,0.131,0.238,0.265,0.361,0.396l3.116-3.067
		C207.381,57.338,207.263,57.207,207.144,57.075z"/>
	<path fill="#1B3A70" d="M200.698,46.177l-3.108,3.06c0.05,0.197,0.09,0.394,0.154,0.599l3.108-3.06
		C200.792,46.572,200.746,46.379,200.698,46.177z"/>
	<path fill="#1B3A70" d="M214.662,63.387l-3.124,3.068c0.157,0.099,0.316,0.194,0.47,0.286l3.126-3.073
		C214.978,63.58,214.818,63.481,214.662,63.387z"/>
	<path fill="#1B3A70" d="M202.227,50.124l-3.11,3.062c0.083,0.159,0.177,0.327,0.265,0.488l3.111-3.062
		C202.403,50.448,202.31,50.283,202.227,50.124z"/>
	<path fill="#1B3A70" d="M217.462,64.803l-3.126,3.075c0.185,0.075,0.364,0.146,0.543,0.214l3.126-3.078
		C217.826,64.949,217.646,64.881,217.462,64.803z"/>
	<path fill="#1B3A70" d="M220.296,65.662l-3.13,3.083c0.238,0.036,0.462,0.055,0.685,0.071l3.13-3.078
		C220.759,65.72,220.532,65.699,220.296,65.662z"/>
	<path fill="#1B3A70" d="M201.751,49.141l-3.113,3.062c0.079,0.167,0.164,0.339,0.248,0.506l3.111-3.061
		C201.914,49.477,201.828,49.308,201.751,49.141z"/>
	<path fill="#1B3A70" d="M203.356,52.09l-3.113,3.063c0.096,0.154,0.187,0.306,0.29,0.465l3.113-3.065
		C203.543,52.396,203.455,52.241,203.356,52.09z"/>
	<path fill="#1B3A70" d="M218.389,65.164l-3.126,3.076c0.197,0.068,0.39,0.123,0.579,0.179l3.128-3.078
		C218.778,65.285,218.586,65.233,218.389,65.164z"/>
	<path fill="#1B3A70" d="M221.151,67.843l3.02-2.992c-0.453,0.43-1.034,0.685-1.7,0.816l-3.131,3.081
		c0.614-0.119,1.157-0.342,1.597-0.71l0.002,0.002l0.03-0.03c0.033-0.027,0.07-0.045,0.104-0.076
		C221.103,67.906,221.12,67.87,221.151,67.843z"/>
	<path fill="#1B3A70" d="M221.31,65.768l-3.126,3.072c0.276,0.008,0.538,0,0.789-0.027l3.128-3.078
		C221.851,65.763,221.585,65.776,221.31,65.768z"/>
	<path fill="#1B3A70" d="M202.765,51.105l-3.113,3.062c0.091,0.159,0.182,0.316,0.278,0.478l3.111-3.063
		C202.945,51.42,202.855,51.261,202.765,51.105z"/>
	<path fill="#1B3A70" d="M219.286,65.44l0.031,0.03l-3.11,3.062c0.212,0.057,0.414,0.094,0.619,0.137l3.131-3.08
		C219.735,65.545,219.516,65.502,219.286,65.44z"/>
	<path fill="#1B3A70" d="M216.529,64.388l-3.123,3.075c0.171,0.083,0.346,0.164,0.518,0.238l3.124-3.073
		C216.875,64.552,216.704,64.472,216.529,64.388z"/>
	<path fill="#1B3A70" d="M215.594,63.916l-3.124,3.073c0.164,0.088,0.329,0.185,0.49,0.266l3.126-3.073
		C215.925,64.1,215.759,64.004,215.594,63.916z"/>
	<path fill="#1B3A70" d="M204,53.08l-3.115,3.063c0.101,0.149,0.205,0.3,0.308,0.447l3.116-3.065
		C204.206,53.376,204.099,53.227,204,53.08z"/>
	<path fill="#1B3A70" d="M201.337,48.158l-3.111,3.058c0.07,0.176,0.142,0.354,0.22,0.533l3.108-3.058
		C201.479,48.509,201.408,48.332,201.337,48.158z"/>
	<path fill="#819BB2" d="M207.812,57.808c-0.106-0.111-0.205-0.228-0.309-0.338l-3.116,3.067c0.108,0.119,0.212,0.238,0.326,0.357
		c0.081,0.085,0.164,0.164,0.245,0.25l3.118-3.069C207.988,57.983,207.899,57.899,207.812,57.808z"/>
	<path fill="#819BB2" d="M208.453,58.453l-3.118,3.067c0.187,0.19,0.369,0.382,0.559,0.561l3.118-3.07
		C208.822,58.831,208.638,58.64,208.453,58.453z"/>
	<path fill="#819BB2" d="M209.406,59.375l-3.119,3.068c0.185,0.171,0.369,0.343,0.554,0.51l3.116-3.07
		C209.772,59.716,209.587,59.547,209.406,59.375z"/>
	<path fill="#819BB2" d="M210.358,60.234l-3.121,3.073c0.182,0.154,0.369,0.306,0.548,0.455l3.118-3.068
		C210.722,60.543,210.541,60.393,210.358,60.234z"/>
	<path fill="#819BB2" d="M211.316,61.038l-3.118,3.07c0.174,0.144,0.353,0.275,0.533,0.412l3.118-3.067
		C211.67,61.313,211.49,61.181,211.316,61.038z"/>
	<path fill="#819BB2" d="M216.087,64.181l-3.126,3.073c0.151,0.078,0.296,0.138,0.445,0.209l3.123-3.075
		C216.38,64.32,216.236,64.258,216.087,64.181z"/>
	<path fill="#819BB2" d="M215.134,63.668l-3.126,3.073c0.16,0.088,0.309,0.164,0.462,0.248l3.124-3.073
		C215.44,63.835,215.288,63.754,215.134,63.668z"/>
	<path fill="#819BB2" d="M214.184,63.095l-3.121,3.07c0.159,0.099,0.315,0.2,0.475,0.291l3.124-3.068
		C214.503,63.289,214.346,63.193,214.184,63.095z"/>
	<path fill="#819BB2" d="M213.234,62.463l-3.124,3.07c0.165,0.114,0.329,0.232,0.491,0.339l3.121-3.073
		C213.557,62.69,213.393,62.577,213.234,62.463z"/>
	<path fill="#819BB2" d="M212.277,61.776l-3.122,3.073c0.172,0.126,0.339,0.255,0.511,0.376l3.121-3.071
		C212.615,62.031,212.446,61.905,212.277,61.776z"/>
	<path fill="#819BB2" d="M218.005,65.015l-3.126,3.078c0.129,0.049,0.258,0.104,0.384,0.147l3.126-3.076
		C218.263,65.119,218.131,65.066,218.005,65.015z"/>
	<path fill="#819BB2" d="M217.247,64.717c-0.063-0.028-0.134-0.063-0.2-0.088l-3.124,3.073c0.073,0.03,0.151,0.073,0.222,0.102
		c0.066,0.029,0.126,0.045,0.19,0.074l3.126-3.075C217.391,64.775,217.323,64.75,217.247,64.717z"/>
	<path fill="#819BB2" d="M219.286,65.44c-0.103-0.028-0.209-0.066-0.315-0.099l-3.128,3.078c0.119,0.039,0.243,0.081,0.364,0.113
		l3.11-3.062L219.286,65.44z"/>
	<path fill="#819BB2" d="M219.956,65.589l-3.131,3.08c0.114,0.022,0.232,0.056,0.341,0.076l3.13-3.083
		C220.186,65.642,220.066,65.611,219.956,65.589z"/>
	<path fill="#819BB2" d="M220.981,65.738l-3.13,3.078c0.111,0.01,0.224,0.02,0.333,0.024l3.126-3.072
		C221.204,65.763,221.088,65.745,220.981,65.738z"/>
	<path fill="#819BB2" d="M222.101,65.735l-3.128,3.078c0.127-0.013,0.242-0.041,0.366-0.065l3.131-3.081
		C222.346,65.69,222.23,65.72,222.101,65.735z"/>
	<path fill="#819BB2" d="M206.614,56.484l-3.116,3.068c0.172,0.197,0.354,0.394,0.528,0.589l3.118-3.065
		C206.967,56.879,206.786,56.684,206.614,56.484z"/>
	<path fill="#819BB2" d="M205.79,55.496l-3.115,3.065c0.156,0.194,0.318,0.386,0.48,0.579l3.118-3.065
		C206.108,55.883,205.947,55.688,205.79,55.496z"/>
	<path fill="#819BB2" d="M205.021,54.508l-3.113,3.065c0.141,0.19,0.283,0.376,0.432,0.566l3.116-3.065
		C205.307,54.887,205.166,54.698,205.021,54.508z"/>
	<path fill="#819BB2" d="M204.309,53.526l-3.116,3.065c0.128,0.184,0.252,0.367,0.39,0.555l3.115-3.067
		C204.562,53.894,204.438,53.709,204.309,53.526z"/>
	<path fill="#819BB2" d="M201.555,48.691l-3.108,3.058c0.063,0.152,0.124,0.303,0.192,0.455l3.113-3.062
		C201.683,48.99,201.62,48.841,201.555,48.691z"/>
	<path fill="#819BB2" d="M201.997,49.649l-3.111,3.061c0.076,0.159,0.146,0.316,0.23,0.477l3.11-3.062
		C202.144,49.965,202.075,49.808,201.997,49.649z"/>
	<path fill="#819BB2" d="M202.492,50.612l-3.111,3.062c0.086,0.164,0.177,0.326,0.271,0.493l3.113-3.062
		C202.669,50.938,202.581,50.776,202.492,50.612z"/>
	<path fill="#819BB2" d="M203.041,51.582l-3.111,3.063c0.096,0.168,0.208,0.338,0.314,0.507l3.113-3.063
		C203.25,51.918,203.139,51.749,203.041,51.582z"/>
	<path fill="#819BB2" d="M203.647,52.552l-3.113,3.065c0.111,0.174,0.233,0.351,0.352,0.525L204,53.08
		C203.88,52.904,203.761,52.727,203.647,52.552z"/>
	<path fill="#819BB2" d="M200.853,46.776l-3.108,3.06c0.035,0.126,0.088,0.263,0.131,0.396l3.108-3.062
		C200.941,47.044,200.891,46.907,200.853,46.776z"/>
	<path fill="#819BB2" d="M201.198,47.82c-0.01-0.03-0.018-0.053-0.027-0.083l-3.108,3.057c0.012,0.036,0.025,0.071,0.038,0.111
		c0.036,0.101,0.086,0.21,0.126,0.312l3.111-3.058C201.294,48.044,201.241,47.928,201.198,47.82z"/>
	<path fill="#819BB2" d="M200.604,45.801l-3.108,3.06c0.025,0.121,0.063,0.25,0.094,0.376l3.108-3.06
		C200.665,46.053,200.632,45.925,200.604,45.801z"/>
	<path fill="#819BB2" d="M200.443,44.805l-3.106,3.053c0.012,0.118,0.041,0.239,0.056,0.358l3.103-3.055
		C200.48,45.043,200.456,44.919,200.443,44.805z"/>
	<path fill="#819BB2" d="M200.392,43.754l-3.085,3.035c-0.005,0.116-0.005,0.235-0.003,0.354l3.101-3.053
		C200.403,43.982,200.39,43.86,200.392,43.754z"/>
	<path fill="#819BB2" d="M200.597,42.508l-3.078,3.033c-0.038,0.129-0.076,0.258-0.106,0.394l3.07-3.022
		C200.511,42.771,200.562,42.642,200.597,42.508z"/>
	<path fill="#FFFFFF" d="M224.398,57.93c-1.023-2.947-3.364-6.568-6.413-9.782c-3.184-3.351-6.682-5.873-9.635-7.118
		c-2.989-1.281-5.461-1.393-6.86-0.063c-0.428,0.407-0.713,0.932-0.893,1.541c-0.035,0.134-0.086,0.264-0.113,0.404
		c-0.051,0.269-0.078,0.546-0.091,0.842c-0.002,0.106,0.011,0.228,0.013,0.336c0.005,0.235,0.01,0.47,0.038,0.715
		c0.012,0.114,0.037,0.238,0.052,0.356c0.031,0.212,0.063,0.422,0.109,0.64c0.028,0.124,0.061,0.253,0.094,0.376
		c0.048,0.202,0.093,0.395,0.154,0.599c0.038,0.131,0.088,0.268,0.131,0.394c0.061,0.189,0.118,0.372,0.187,0.566
		c0.01,0.03,0.017,0.053,0.027,0.083c0.043,0.108,0.096,0.225,0.139,0.338c0.07,0.174,0.142,0.351,0.217,0.533
		c0.065,0.149,0.128,0.299,0.197,0.45c0.076,0.167,0.162,0.336,0.246,0.508c0.078,0.16,0.147,0.316,0.229,0.476
		c0.083,0.159,0.177,0.323,0.266,0.488c0.089,0.164,0.177,0.326,0.272,0.493c0.091,0.157,0.18,0.315,0.276,0.478
		c0.099,0.167,0.21,0.335,0.316,0.507c0.098,0.152,0.187,0.306,0.291,0.463c0.114,0.174,0.233,0.351,0.354,0.528
		c0.099,0.147,0.205,0.296,0.309,0.445c0.129,0.184,0.252,0.369,0.389,0.553c0.106,0.141,0.217,0.286,0.323,0.429
		c0.145,0.19,0.286,0.379,0.435,0.566c0.108,0.142,0.219,0.28,0.333,0.422c0.157,0.192,0.319,0.386,0.483,0.579
		c0.116,0.136,0.222,0.273,0.341,0.409c0.172,0.2,0.354,0.395,0.53,0.591c0.119,0.131,0.237,0.263,0.359,0.395
		c0.104,0.11,0.202,0.227,0.309,0.338c0.088,0.091,0.176,0.174,0.265,0.266c0.124,0.128,0.25,0.252,0.376,0.379
		c0.185,0.187,0.369,0.378,0.559,0.559c0.131,0.126,0.263,0.24,0.394,0.363c0.182,0.172,0.367,0.341,0.551,0.508
		c0.137,0.122,0.271,0.238,0.402,0.352c0.182,0.159,0.364,0.309,0.546,0.46c0.136,0.114,0.275,0.232,0.412,0.344
		c0.174,0.144,0.354,0.275,0.533,0.415c0.145,0.108,0.283,0.22,0.428,0.323c0.169,0.129,0.338,0.255,0.51,0.378
		c0.147,0.106,0.298,0.206,0.447,0.309c0.159,0.114,0.323,0.227,0.488,0.335c0.157,0.104,0.309,0.197,0.462,0.296
		c0.162,0.098,0.319,0.194,0.478,0.292c0.156,0.094,0.316,0.192,0.473,0.281c0.154,0.086,0.306,0.167,0.46,0.248
		c0.165,0.088,0.331,0.185,0.493,0.266c0.149,0.076,0.293,0.138,0.442,0.207c0.174,0.083,0.346,0.164,0.518,0.24
		c0.065,0.025,0.136,0.061,0.2,0.088c0.076,0.033,0.144,0.058,0.215,0.086c0.184,0.078,0.364,0.146,0.543,0.212
		c0.126,0.051,0.258,0.104,0.384,0.149c0.197,0.068,0.389,0.121,0.581,0.177c0.106,0.033,0.212,0.071,0.315,0.099
		c0.23,0.062,0.45,0.105,0.67,0.149c0.111,0.022,0.23,0.053,0.341,0.073c0.235,0.038,0.463,0.058,0.685,0.076
		c0.106,0.007,0.223,0.025,0.329,0.031c0.275,0.007,0.541-0.005,0.791-0.033c0.129-0.015,0.245-0.045,0.369-0.068
		c0.667-0.131,1.248-0.386,1.7-0.816C225.57,63.522,225.52,60.979,224.398,57.93z"/>
</g>
<g>
	<path fill="#1B3A70" d="M424.983-9.165h-2.352v7.896c0,0.458-0.355,0.813-0.812,0.813c-0.443,0-0.814-0.355-0.814-0.813v-7.896
		h-2.336c-0.457,0-0.813-0.385-0.813-0.828c0-0.459,0.356-0.814,0.813-0.814h6.314c0.443,0,0.813,0.355,0.813,0.814
		C425.797-9.55,425.427-9.165,424.983-9.165z"/>
	<path fill="#1B3A70" d="M437.143-9.992v8.724c0,0.443-0.385,0.813-0.827,0.813c-0.459,0-0.814-0.37-0.814-0.813v-6.226
		l-2.129,2.958c-0.163,0.222-0.399,0.34-0.665,0.34h-0.015h-0.015c-0.268,0-0.519-0.118-0.68-0.34l-2.116-2.958v6.226
		c0,0.443-0.367,0.813-0.826,0.813c-0.444,0-0.813-0.37-0.813-0.813v-8.724c0-0.443,0.369-0.814,0.813-0.814
		c0.015,0,0.015,0,0.043,0c0.237,0,0.504,0.119,0.651,0.341l2.942,4.081l2.942-4.081c0.162-0.222,0.399-0.341,0.666-0.341
		c0,0,0,0,0.015,0C436.758-10.791,437.143-10.436,437.143-9.992z"/>
</g>
<ellipse fill="none" stroke="#1B3A70" stroke-width="0.5" stroke-miterlimit="10" cx="223.765" cy="15.154" rx="19.458" ry="20.188"/>
<path fill="none" stroke="#1B3A70" stroke-width="0.5" stroke-miterlimit="10" d="M222.983,63.357
	c-2.207,2.127-8.503-0.816-14.062-6.575c-5.564-5.761-8.286-12.156-6.08-14.284c2.206-2.13,8.502,0.812,14.062,6.575
	C222.468,54.831,225.189,61.227,222.983,63.357z"/>
<path fill="none" stroke="#1B3A70" stroke-width="0.5" stroke-miterlimit="10" d="M241.434-38.349
	c-2.206,3.625-11.654,1.9-21.102-3.853c-9.451-5.752-15.32-13.354-13.115-16.978c2.209-3.625,11.657-1.899,21.105,3.852
	C237.771-49.574,243.643-41.973,241.434-38.349z"/>
<g>
	<path fill="#1B3A70" d="M213.575,51.478l-1.423,1.587c0.275,0.25,0.478,0.438,0.607,0.558c0.553,0.519,1.041,1.032,1.463,1.529
		c0.419,0.498,0.872,1.109,1.357,1.832c1.082-0.47,1.688-0.746,1.825-0.832c0.257-0.149,0.475-0.326,0.654-0.535
		c0.298-0.341,0.427-0.726,0.387-1.15c-0.038-0.424-0.255-0.912-0.654-1.465l0.273-0.146c0.859,0.967,1.385,1.847,1.577,2.643
		c0.191,0.793,0.108,1.402-0.25,1.822c-0.242,0.283-0.536,0.473-0.874,0.569c-0.341,0.093-1.107,0.146-2.297,0.154
		c0.326,0.611,0.526,1.127,0.592,1.546c0.065,0.419,0.005,0.743-0.19,0.968c-0.182,0.212-0.437,0.296-0.763,0.248
		c-0.329-0.051-0.669-0.243-1.026-0.579c-0.399-0.372-0.645-0.781-0.738-1.226c-0.094-0.442-0.011-0.819,0.258-1.122
		c0.061-0.071,0.136-0.147,0.225-0.225c0.088-0.076,0.194-0.159,0.313-0.245c-0.146-0.152-0.276-0.281-0.386-0.393
		c-0.111-0.108-0.205-0.197-0.281-0.267c-0.518-0.49-1.529-1.36-3.029-2.611l-1.089,1.215l-0.842-0.795l1.089-1.211
		c-0.93-0.776-1.542-1.302-1.834-1.577c-0.723-0.68-1.289-1.4-1.699-2.161c-0.412-0.758-0.609-1.462-0.596-2.109
		c0.013-0.645,0.205-1.165,0.576-1.562c0.473-0.502,1.025-0.695,1.658-0.571c0.632,0.119,1.145,0.366,1.542,0.74
		c0.187,0.174,0.308,0.379,0.364,0.615c0.056,0.234,0.03,0.409-0.079,0.525c-0.139,0.151-0.366,0.174-0.68,0.066
		c-0.146-0.056-0.402-0.238-0.766-0.548c-0.361-0.312-0.679-0.486-0.955-0.518c-0.278-0.031-0.523,0.065-0.735,0.29
		c-0.299,0.318-0.361,0.751-0.19,1.301c0.172,0.551,0.716,1.261,1.632,2.123c0.43,0.404,1.003,0.896,1.718,1.48
		c0.467,0.387,0.802,0.665,1.008,0.834l1.423-1.582L213.575,51.478z M215.539,58.157c-0.162,0.02-0.301,0.05-0.422,0.099
		c-0.119,0.05-0.215,0.119-0.293,0.209c-0.165,0.19-0.223,0.407-0.167,0.647c0.053,0.245,0.194,0.475,0.425,0.692
		c0.214,0.203,0.419,0.319,0.616,0.352c0.194,0.035,0.339-0.002,0.435-0.114c0.122-0.141,0.147-0.363,0.079-0.669
		C216.143,59.067,215.917,58.662,215.539,58.157z"/>
</g>
<g>
	<path fill="#1B3A70" d="M228.143-41.548l0.23-0.477c1.489,0.803,2.747,1.171,3.778,1.103c1.026-0.072,1.865-0.597,2.509-1.575
		l-9.229-5.616c-2.254,0.701-4.083,0.977-5.486,0.821c-0.995-0.113-2.072-0.521-3.229-1.227c-1.306-0.795-2.281-1.812-2.918-3.054
		c-0.64-1.236-0.748-2.51-0.326-3.818l-1.453-0.885l0.352-0.667l1.45,0.883c0.351-0.534,0.7-0.952,1.049-1.251
		c0.179-0.153,0.885-0.598,2.117-1.321l4.685,2.851l-0.205,0.402c-1.708-0.921-3.07-1.375-4.083-1.365
		c-1.021,0.011-1.855,0.455-2.504,1.329l8.015,4.877c2.724-0.64,4.64-0.944,5.754-0.909c1.114,0.032,2.317,0.44,3.61,1.228
		c1.441,0.875,2.532,2.014,3.285,3.415c0.753,1.407,0.907,2.818,0.462,4.247l2.017,1.228l-0.316,0.689l-2.019-1.231
		c-0.356,0.648-0.763,1.209-1.218,1.679c-0.455,0.473-1.063,0.935-1.821,1.387L228.143-41.548z M221.894-50.265l-7.348-4.473
		c-0.238,0.776-0.172,1.501,0.197,2.171c0.367,0.673,0.962,1.26,1.787,1.761c0.773,0.47,1.574,0.756,2.403,0.854
		C219.761-49.857,220.747-49.959,221.894-50.265z M234.979-43.182c0.113-0.618,0.11-1.143-0.009-1.581
		c-0.179-0.619-0.515-1.226-0.998-1.816c-0.482-0.587-1.059-1.085-1.729-1.495c-0.689-0.418-1.41-0.677-2.161-0.777
		c-0.753-0.096-1.963,0.06-3.641,0.474L234.979-43.182z"/>
</g>
<g>
	<path fill="#1B3A70" d="M229.73,14.204h-12.769c-0.046,0.622-0.068,1.235-0.068,1.844h12.28l-0.513,1.736h-11.722
		c0.119,3.128,0.74,5.738,1.867,7.831c1.322,2.431,3.101,3.646,5.339,3.646c1.989,0,3.649-0.51,4.983-1.534
		c0.801-0.609,1.817-1.766,3.047-3.469l0.69,0.445c-1.275,2.016-2.433,3.454-3.47,4.316c-1.706,1.407-3.752,2.113-6.14,2.113
		c-3.411,0-6.051-1.416-7.919-4.25c-1.525-2.312-2.433-5.345-2.713-9.097h-2.246l0.51-1.736h1.648v-0.356
		c0-0.445,0.012-0.94,0.043-1.488h-2.201l0.51-1.737h1.87c0.503-3.516,1.706-6.414,3.604-8.697c2.181-2.64,4.968-3.96,8.364-3.96
		c2.536,0,5.056,0.653,7.562,1.957v6.652h-0.867c-0.387-4.761-2.618-7.141-6.696-7.141c-2.342,0-4.197,1.238-5.562,3.714
		c-1.053,1.928-1.743,4.42-2.069,7.475h13.147L229.73,14.204z"/>
</g>
</svg>
