<svg id="Layer_1" data-name="Layer 1" xmlns="http://www.w3.org/2000/svg" viewBox="0 0 99.05 23.37"><defs><style>.cls-1{fill:#116c38;}.cls-2{fill:#fff;}</style></defs><title>btn-cta</title><polygon class="cls-1" points="88.2 23.37 0 23.37 0 0 88.2 0 99.05 11.69 88.2 23.37"/><path class="cls-2" d="M497.34,415.63h3.48l-0.19.9h-4.46l1.46-6.52h1Z" transform="translate(-482.12 -401.58)"/><path class="cls-2" d="M504.59,410.89l-0.42,1.9h3.09l-0.19.88H504l-0.44,2h3.78l-0.2.89h-4.75l1.46-6.52h4.75l-0.2.89h-3.78Z" transform="translate(-482.12 -401.58)"/><path class="cls-2" d="M513.45,414.9h-3.06l-1,1.62H508.3l4.12-6.52h1.23l1,6.52h-1Zm-0.12-.86-0.44-3.2-2,3.2h2.42Z" transform="translate(-482.12 -401.58)"/><path class="cls-2" d="M522.25,411.56a2.25,2.25,0,0,1,0,.49l0,0.16a2.31,2.31,0,0,1-2,1.86l1.19,2.45h-1l-1.1-2.41h-1.68L517,416.53h-1l1.46-6.52h2.85A1.59,1.59,0,0,1,522.25,411.56Zm-1,.14a0.84,0.84,0,0,0-1-.81h-2l-0.53,2.37h2a1.37,1.37,0,0,0,1.47-1.1l0-.12A1.49,1.49,0,0,0,521.27,411.69Z" transform="translate(-482.12 -401.58)"/><path class="cls-2" d="M530,410l-1.46,6.52h-0.9l-2.5-5.16L524,416.53H523L524.5,410h0.9l2.5,5.18,1.15-5.18H530Z" transform="translate(-482.12 -401.58)"/><path class="cls-2" d="M541.75,410l-1.46,6.52h-0.93l1.14-5.08-3,3.57H537l-1.4-3.61-1.15,5.12h-0.93L535,410h1l1.5,3.81,3.22-3.81h1.05Z" transform="translate(-482.12 -401.58)"/><path class="cls-2" d="M549,412.4a4,4,0,0,1-.09.81l-0.1.41a3.51,3.51,0,0,1-3.56,3,2.36,2.36,0,0,1-2.51-2.46,3.44,3.44,0,0,1,.09-0.74l0.09-.41a3.57,3.57,0,0,1,3.59-3.07A2.35,2.35,0,0,1,549,412.4Zm-5.1.7-0.07.34a3.6,3.6,0,0,0-.08.69,1.46,1.46,0,0,0,1.61,1.59,2.48,2.48,0,0,0,2.47-2.22l0.09-.35a3.41,3.41,0,0,0,.09-0.74,1.47,1.47,0,0,0-1.61-1.6A2.54,2.54,0,0,0,543.86,413.1Z" transform="translate(-482.12 -401.58)"/><path class="cls-2" d="M556.1,411.56a2.25,2.25,0,0,1,0,.49l0,0.16a2.31,2.31,0,0,1-2,1.86l1.19,2.45h-1l-1.1-2.41h-1.68l-0.53,2.41h-1l1.46-6.52h2.85A1.59,1.59,0,0,1,556.1,411.56Zm-1,.14a0.84,0.84,0,0,0-1-.81h-2l-0.53,2.37h2a1.37,1.37,0,0,0,1.47-1.1l0-.12A1.49,1.49,0,0,0,555.11,411.69Z" transform="translate(-482.12 -401.58)"/><path class="cls-2" d="M559.14,410.89l-0.42,1.9h3.09l-0.19.88h-3.09l-0.44,2h3.78l-0.2.89H556.9l1.46-6.52h4.75l-0.2.89h-3.78Z" transform="translate(-482.12 -401.58)"/></svg>