<svg id="Layer_1" data-name="Layer 1" xmlns="http://www.w3.org/2000/svg" viewBox="0 0 354.53 50.4"><defs><style>.cls-1{fill:#636464;}.cls-2{fill:#858585;}</style></defs><title>copy3</title><path class="cls-1" d="M127.09,362.94c0,1.48-1,2-2.75,2.63s-2.68,1.26-2.79,2.74h5.57v1.22h-7c0-2.4.54-3.83,3.08-4.81,1.58-.59,2.49-0.81,2.49-1.73s-0.72-1.26-2-1.26A3.25,3.25,0,0,0,121,363l-0.79-1a4.47,4.47,0,0,1,3.5-1.49C125.77,360.48,127.09,361.34,127.09,362.94Z" transform="translate(-119.78 -360.48)"/><path class="cls-1" d="M135.93,364.75v0.66c0,2.51-1.48,4.23-3.93,4.23a3.89,3.89,0,0,1-4-4.23v-0.65c0-2.55,1.57-4.28,4-4.28S135.93,362.16,135.93,364.75Zm-6.48.05v0.54c0,2,1,3.09,2.55,3.09s2.52-1,2.52-3.09V364.8c0-2-.94-3.12-2.52-3.12S129.46,362.8,129.46,364.8Z" transform="translate(-119.78 -360.48)"/><path class="cls-1" d="M140.76,369.52h-1.29v-7.39c-0.64.34-1.4,0.81-2.35,1.33l-0.23-1.12c0.72-.4,2-1.2,2.88-1.74h1v8.92Z" transform="translate(-119.78 -360.48)"/><path class="cls-1" d="M150.26,366.32v0.17c0,1.92-1.48,3.15-3.55,3.15a3.83,3.83,0,0,1-3.9-4.18v-0.4c0-2.51,1.34-4.59,4-4.59a5.54,5.54,0,0,1,3,.71l-0.62,1.15a3.4,3.4,0,0,0-2.41-.66c-1.82,0-2.63,1.28-2.66,3.3a3.76,3.76,0,0,1,2.88-1.27C148.64,363.72,150.26,364.39,150.26,366.32Zm-1.31.12c0-1.07-.67-1.55-2.07-1.55a3.29,3.29,0,0,0-2.72,1.32,2.41,2.41,0,0,0,2.51,2.25c1.41,0,2.28-.65,2.28-1.86v-0.16Z" transform="translate(-119.78 -360.48)"/><path class="cls-1" d="M127.93,375.75h-3.06V383h-2v-7.27h-3.06V374.1h8.14v1.65Z" transform="translate(-119.78 -360.48)"/><path class="cls-1" d="M137.64,374.1V383h-2.05v-3.61h-4.1V383h-2V374.1h2v3.57h4.1V374.1h2.05Z" transform="translate(-119.78 -360.48)"/><path class="cls-1" d="M148.41,378.31v0.53a4.48,4.48,0,0,1-8.95,0v-0.53a4.08,4.08,0,0,1,4.45-4.32C146.68,374,148.41,375.64,148.41,378.31Zm-6.91,0v0.52c0,1.69.89,2.68,2.43,2.68s2.43-1,2.43-2.68v-0.52c0-1.72-.9-2.67-2.44-2.67S141.5,376.56,141.5,378.29Z" transform="translate(-119.78 -360.48)"/><path class="cls-1" d="M160.19,374.1V383h-1.89V376.9L155.53,381h-0.75L152,376.91V383h-1.89V374.1H152l3.11,4.64,3.13-4.64h1.9Z" transform="translate(-119.78 -360.48)"/><path class="cls-1" d="M161.75,381.89l1-1.56a3.69,3.69,0,0,0,2.9,1.14c1.21,0,1.86-.3,1.86-1.12s-0.78-.81-2.49-1.14-2.91-.73-2.91-2.4,1.21-2.81,3.7-2.81a5.4,5.4,0,0,1,3.33,1l-0.9,1.41a3.9,3.9,0,0,0-2.48-.77c-1.3,0-1.78.4-1.78,1s0.48,0.69,2.2,1,3.18,0.63,3.18,2.54-1.57,2.88-3.61,2.88A6.42,6.42,0,0,1,161.75,381.89Z" transform="translate(-119.78 -360.48)"/><path class="cls-1" d="M179.61,378.31v0.53a4.48,4.48,0,0,1-8.95,0v-0.53a4.08,4.08,0,0,1,4.45-4.32C177.88,374,179.61,375.64,179.61,378.31Zm-6.91,0v0.52c0,1.69.89,2.68,2.43,2.68s2.43-1,2.43-2.68v-0.52c0-1.72-.9-2.67-2.44-2.67S172.7,376.56,172.7,378.29Z" transform="translate(-119.78 -360.48)"/><path class="cls-1" d="M189.45,374.1V383h-1.81L183.22,377V383h-1.89V374.1h1.84l4.39,6v-6h1.9Z" transform="translate(-119.78 -360.48)"/><path class="cls-1" d="M198.83,380H197v3H195V374.1h4.53c2.07,0,3.27,1.06,3.27,2.83v0.17a2.71,2.71,0,0,1-2.08,2.74l2.36,3.18h-2.24Zm-1.85-1.6h2.45a1.22,1.22,0,0,0,1.45-1.31V377a1.19,1.19,0,0,0-1.39-1.24H197v2.68Z" transform="translate(-119.78 -360.48)"/><path class="cls-1" d="M206.77,375.74v2H211v1.61h-4.23v2.06H212V383H204.8V374.1H212v1.64h-5.23Z" transform="translate(-119.78 -360.48)"/><path class="cls-1" d="M221.81,379.34c0,2.27-1.27,3.78-4.06,3.78s-4.09-1.44-4.09-3.77V374.1h2.09v5.4a2,2,0,0,0,4-.05V374.1h2.09v5.25Z" transform="translate(-119.78 -360.48)"/><path class="cls-1" d="M231.33,375.75h-3.06V383h-2v-7.27h-3.06V374.1h8.14v1.65Z" transform="translate(-119.78 -360.48)"/><path class="cls-1" d="M234.82,375.74v2H239v1.61h-4.23v2.06H240V383h-7.18V374.1H240v1.64h-5.23Z" transform="translate(-119.78 -360.48)"/><path class="cls-1" d="M245.69,380h-1.85v3h-1.93V374.1h4.53c2.07,0,3.27,1.06,3.27,2.83v0.17a2.71,2.71,0,0,1-2.08,2.74L250,383h-2.24Zm-1.85-1.6h2.45a1.22,1.22,0,0,0,1.45-1.31V377a1.19,1.19,0,0,0-1.39-1.24h-2.51v2.68Z" transform="translate(-119.78 -360.48)"/><path class="cls-1" d="M251,381.89l1-1.56a3.69,3.69,0,0,0,2.9,1.14c1.21,0,1.86-.3,1.86-1.12s-0.78-.81-2.49-1.14-2.91-.73-2.91-2.4,1.21-2.81,3.7-2.81a5.4,5.4,0,0,1,3.33,1l-0.9,1.41a3.9,3.9,0,0,0-2.48-.77c-1.3,0-1.78.4-1.78,1s0.48,0.69,2.2,1,3.18,0.63,3.18,2.54-1.57,2.88-3.61,2.88A6.42,6.42,0,0,1,251,381.89Z" transform="translate(-119.78 -360.48)"/><path class="cls-1" d="M122.09,395.29h5v1.23H120.7V387.6h1.4v7.69Z" transform="translate(-119.78 -360.48)"/><path class="cls-1" d="M128.87,387.6h1.42v8.92h-1.42V387.6Z" transform="translate(-119.78 -360.48)"/><path class="cls-1" d="M140.15,390.43v0.19c0,1.8-1.27,2.91-3.46,2.91h-2.6v3H132.7V387.6h4C138.79,387.6,140.15,388.47,140.15,390.43Zm-1.4,0c0-1.22-.71-1.64-2.07-1.64h-2.6v3.49h2.52c1.38,0,2.15-.53,2.15-1.72v-0.13Z" transform="translate(-119.78 -360.48)"/><path class="cls-1" d="M149.35,390.43v0.19c0,1.8-1.27,2.91-3.46,2.91h-2.6v3H141.9V387.6h4C148,387.6,149.35,388.47,149.35,390.43Zm-1.4,0c0-1.22-.71-1.64-2.07-1.64h-2.6v3.49h2.52c1.38,0,2.15-.53,2.15-1.72v-0.13Z" transform="translate(-119.78 -360.48)"/><path class="cls-1" d="M152.51,388.81v2.6H157v1.2h-4.47v2.68h5.43v1.22H151.1V387.6H158v1.22h-5.45Z" transform="translate(-119.78 -360.48)"/><path class="cls-1" d="M163.58,393.24h-2.37v3.28h-1.37V387.6h4.23c2,0,3.15,1,3.15,2.68v0.21a2.62,2.62,0,0,1-2.21,2.66l2.47,3.37h-1.58Zm-2.37-1.2H164c1.21,0,1.78-.56,1.78-1.56v-0.16a1.46,1.46,0,0,0-1.73-1.52h-2.88V392Z" transform="translate(-119.78 -360.48)"/><path class="cls-1" d="M174.08,388.8v2.89h4.52v1.23h-4.52v3.59h-1.41V387.6h6.85v1.2h-5.45Z" transform="translate(-119.78 -360.48)"/><path class="cls-1" d="M188.78,392.83a3.49,3.49,0,0,1-3.85,3.81c-2.63,0-3.93-1.51-3.93-3.78V387.6h1.45V393a2.23,2.23,0,0,0,2.49,2.37,2.2,2.2,0,0,0,2.37-2.42V387.6h1.46v5.23Z" transform="translate(-119.78 -360.48)"/><path class="cls-1" d="M198.84,387.6v8.92h-1.31l-5.27-7v7h-1.34V387.6h1.33l5.27,7v-7h1.33Z" transform="translate(-119.78 -360.48)"/><path class="cls-1" d="M209.33,391.89v0.37c0,2.4-1.49,4.25-4.44,4.25H201.2V387.6h3.65C207.71,387.6,209.33,389.25,209.33,391.89Zm-6.71-3.07v6.46h2.24a2.73,2.73,0,0,0,3-3v-0.38c0-2-1-3.07-3-3.07h-2.24Z" transform="translate(-119.78 -360.48)"/><path class="cls-1" d="M220.32,394.3h-4.47l-0.94,2.22h-1.44l3.89-8.92h1.72l3.5,8.92h-1.44Zm-0.44-1.18-1.66-4.37-1.86,4.37h3.53Z" transform="translate(-119.78 -360.48)"/><path class="cls-1" d="M234.68,387.6l-2.43,8.92h-1.92l-1.88-7.64-1.9,7.64h-1.88l-2.47-8.92h1.46l1.9,7.85,2-7.85h1.77l2,7.85,1.9-7.85h1.46Z" transform="translate(-119.78 -360.48)"/><path class="cls-1" d="M241.42,394.3h-4.47L236,396.52h-1.44l3.89-8.92h1.72l3.5,8.92h-1.44ZM241,393.12l-1.66-4.37-1.86,4.37H241Z" transform="translate(-119.78 -360.48)"/><path class="cls-1" d="M248.82,393.24h-2.37v3.28h-1.37V387.6h4.23c2,0,3.15,1,3.15,2.68v0.21a2.62,2.62,0,0,1-2.21,2.66l2.47,3.37h-1.58Zm-2.37-1.2h2.83c1.21,0,1.78-.56,1.78-1.56v-0.16a1.46,1.46,0,0,0-1.73-1.52h-2.88V392Z" transform="translate(-119.78 -360.48)"/><path class="cls-1" d="M262.57,391.89v0.37c0,2.4-1.49,4.25-4.44,4.25h-3.69V387.6h3.65C260.95,387.6,262.57,389.25,262.57,391.89Zm-6.71-3.07v6.46h2.24a2.73,2.73,0,0,0,3-3v-0.38c0-2-1-3.07-3-3.07h-2.24Z" transform="translate(-119.78 -360.48)"/><path class="cls-1" d="M263.64,395.43l0.72-1.27a4,4,0,0,0,3.06,1.22c1.31,0,2.17-.42,2.17-1.49,0-.91-0.82-1.07-2.47-1.39s-3.14-.67-3.14-2.26,1.1-2.76,3.5-2.76a5.51,5.51,0,0,1,3.17.91L270,389.54a3.87,3.87,0,0,0-2.59-.81c-1.48,0-2.07.61-2.07,1.4s0.59,0.87,2.33,1.22c1.57,0.3,3.25.57,3.25,2.43s-1.48,2.84-3.46,2.84A6.22,6.22,0,0,1,263.64,395.43Z" transform="translate(-119.78 -360.48)"/><path class="cls-2" d="M298,393.54v0.18c0,1.33-.89,2.27-2.66,2.27h-4v-7.75h3.83c1.64,0,2.39.86,2.39,1.94v0.15a1.51,1.51,0,0,1-1.31,1.57A1.61,1.61,0,0,1,298,393.54Zm-5.45-4.25v2.23h2.62a1.07,1.07,0,0,0,1.23-1.1V390.3a1,1,0,0,0-1.26-1h-2.58Zm4.27,4.29a1.13,1.13,0,0,0-1.38-1.09h-2.89V395h2.74c1,0,1.53-.41,1.53-1.22v-0.15Z" transform="translate(-119.78 -360.48)"/><path class="cls-2" d="M304,393.29v0.21h-4.22a1.5,1.5,0,0,0,1.64,1.65,1.8,1.8,0,0,0,1.63-.86l0.72,0.73a3,3,0,0,1-2.42,1.08,2.5,2.5,0,0,1-2.69-2.62v-0.28a2.69,2.69,0,0,1,2.72-2.83C303.33,390.38,304,391.85,304,393.29Zm-1.16-.65a1.33,1.33,0,0,0-1.47-1.35,1.5,1.5,0,0,0-1.55,1.35h3Z" transform="translate(-119.78 -360.48)"/><path class="cls-2" d="M304.37,395.35l0.49-1a2.5,2.5,0,0,0,1.89.76c0.86,0,1.37-.24,1.37-0.81s-0.61-.58-1.57-0.75c-1.15-.19-2-0.45-2-1.43s0.69-1.77,2.23-1.77A3.89,3.89,0,0,1,309,391l-0.46.87a2.52,2.52,0,0,0-1.7-.49c-0.78,0-1.18.24-1.18,0.75s0.54,0.48,1.48.64,2,0.34,2,1.54-0.88,1.84-2.34,1.84A3.8,3.8,0,0,1,304.37,395.35Z" transform="translate(-119.78 -360.48)"/><path class="cls-2" d="M313.43,395.61a2.57,2.57,0,0,1-1.53.48,1.42,1.42,0,0,1-1.56-1.66v-3h-1.06v-0.92h1.06v-1.25l1.07-.19v1.45h1.94v0.92h-1.94v2.88c0,0.56.15,0.85,0.69,0.85a1.4,1.4,0,0,0,1-.44Z" transform="translate(-119.78 -360.48)"/><path class="cls-2" d="M325.18,388.25V396H324v-6l-2.72,4.25h-0.57L318,389.94V396h-1.15v-7.75h1.24l2.93,4.51,2.93-4.51h1.23Z" transform="translate(-119.78 -360.48)"/><path class="cls-2" d="M327.77,388.25v1.19h-1.2v-1.19h1.2Zm0,7.75h-1.16v-5.52h1.16V396Z" transform="translate(-119.78 -360.48)"/><path class="cls-2" d="M332.68,396l-1.43-2.32L329.76,396h-1.29l1.93-2.82-1.8-2.71h1.31l1.33,2.19,1.35-2.19h1.3l-1.81,2.7L334,396h-1.3Z" transform="translate(-119.78 -360.48)"/><path class="cls-2" d="M339.51,393.29v0.21h-4.22a1.5,1.5,0,0,0,1.64,1.65,1.8,1.8,0,0,0,1.63-.86l0.72,0.73a3,3,0,0,1-2.42,1.08,2.5,2.5,0,0,1-2.69-2.62v-0.28a2.69,2.69,0,0,1,2.72-2.83C338.88,390.38,339.53,391.85,339.51,393.29Zm-1.16-.65a1.33,1.33,0,0,0-1.47-1.35,1.5,1.5,0,0,0-1.55,1.35h3Z" transform="translate(-119.78 -360.48)"/><path class="cls-2" d="M344.57,396a4.05,4.05,0,0,1-.14-0.77,2.3,2.3,0,0,1-1.88.86,2.45,2.45,0,0,1-2.52-2.58v-0.29a2.65,2.65,0,0,1,2.75-2.85,2.17,2.17,0,0,1,1.61.67v-3.28h1.15v6.66a7.19,7.19,0,0,0,.1,1.58h-1.07Zm-0.18-1.62v-2.33a1.71,1.71,0,0,0-1.54-.7,1.61,1.61,0,0,0-1.65,1.87v0.21a1.49,1.49,0,0,0,1.61,1.68A1.73,1.73,0,0,0,344.39,394.38Z" transform="translate(-119.78 -360.48)"/><path class="cls-2" d="M354.35,394.07h-3.82l-0.8,1.93h-1.23l3.33-7.75h1.47l3,7.75h-1.23Zm-0.38-1-1.42-3.8-1.59,3.8h3Z" transform="translate(-119.78 -360.48)"/><path class="cls-2" d="M356.55,395.35l0.49-1a2.5,2.5,0,0,0,1.89.76c0.86,0,1.37-.24,1.37-0.81s-0.61-.58-1.57-0.75c-1.15-.19-2-0.45-2-1.43s0.69-1.77,2.23-1.77a3.89,3.89,0,0,1,2.16.56l-0.46.87a2.52,2.52,0,0,0-1.7-.49c-0.78,0-1.18.24-1.18,0.75s0.54,0.48,1.48.64,2,0.34,2,1.54-0.88,1.84-2.34,1.84A3.79,3.79,0,0,1,356.55,395.35Z" transform="translate(-119.78 -360.48)"/><path class="cls-2" d="M361.65,395.35l0.49-1a2.51,2.51,0,0,0,1.89.76c0.86,0,1.37-.24,1.37-0.81s-0.61-.58-1.57-0.75c-1.15-.19-2-0.45-2-1.43s0.69-1.77,2.23-1.77a3.89,3.89,0,0,1,2.16.56l-0.46.87a2.52,2.52,0,0,0-1.7-.49c-0.78,0-1.18.24-1.18,0.75s0.54,0.48,1.48.64,2,0.34,2,1.54-0.88,1.84-2.34,1.84A3.79,3.79,0,0,1,361.65,395.35Z" transform="translate(-119.78 -360.48)"/><path class="cls-2" d="M372.25,393.29v0.21H368a1.5,1.5,0,0,0,1.64,1.65,1.8,1.8,0,0,0,1.63-.86L372,395a3,3,0,0,1-2.42,1.08,2.5,2.5,0,0,1-2.69-2.62v-0.28a2.69,2.69,0,0,1,2.72-2.83C371.62,390.38,372.26,391.85,372.25,393.29Zm-1.16-.65a1.33,1.33,0,0,0-1.47-1.35,1.5,1.5,0,0,0-1.55,1.35h3Z" transform="translate(-119.78 -360.48)"/><path class="cls-2" d="M376.55,395.61a2.57,2.57,0,0,1-1.53.48,1.42,1.42,0,0,1-1.56-1.66v-3h-1.06v-0.92h1.06v-1.25l1.07-.19v1.45h1.94v0.92h-1.94v2.88c0,0.56.15,0.85,0.69,0.85a1.4,1.4,0,0,0,1-.44Z" transform="translate(-119.78 -360.48)"/><path class="cls-2" d="M376.88,395.35l0.49-1a2.5,2.5,0,0,0,1.89.76c0.86,0,1.37-.24,1.37-0.81s-0.61-.58-1.57-0.75c-1.15-.19-2-0.45-2-1.43s0.69-1.77,2.23-1.77a3.89,3.89,0,0,1,2.16.56l-0.46.87a2.52,2.52,0,0,0-1.7-.49c-0.78,0-1.18.24-1.18,0.75s0.54,0.48,1.48.64,2,0.34,2,1.54-0.88,1.84-2.34,1.84A3.79,3.79,0,0,1,376.88,395.35Z" transform="translate(-119.78 -360.48)"/><path class="cls-2" d="M384.26,395.06l0.62-1.1A3.4,3.4,0,0,0,387.5,395c1.12,0,1.86-.37,1.86-1.3s-0.7-.93-2.11-1.21-2.68-.58-2.68-2,0.94-2.4,3-2.4a4.66,4.66,0,0,1,2.71.79l-0.56,1a3.29,3.29,0,0,0-2.21-.7c-1.26,0-1.77.53-1.77,1.22s0.5,0.76,2,1.06,2.78,0.49,2.78,2.11-1.26,2.47-3,2.47A5.27,5.27,0,0,1,384.26,395.06Z" transform="translate(-119.78 -360.48)"/><path class="cls-2" d="M400.13,392.88V396h-1.19v-3.18a1.17,1.17,0,0,0-1.25-1.41,1.52,1.52,0,0,0-1.31.65V396h-1.19v-3.32a1.09,1.09,0,0,0-1.17-1.27,1.6,1.6,0,0,0-1.39.79V396h-1.18v-5.52h1l0.09,0.88a2,2,0,0,1,1.84-1,1.78,1.78,0,0,1,1.63,1,2.31,2.31,0,0,1,1.92-1C399.36,390.38,400.13,391.21,400.13,392.88Z" transform="translate(-119.78 -360.48)"/><path class="cls-2" d="M405.08,396a5,5,0,0,1-.12-0.7,2.24,2.24,0,0,1-1.87.8c-1,0-2.13-.46-2.13-1.72s1-1.84,2.19-1.84a3.8,3.8,0,0,1,1.79.42v-0.44c0-.87-0.53-1.19-1.42-1.19a2.16,2.16,0,0,0-1.63.6l-0.52-.86a3.48,3.48,0,0,1,2.27-.7,2.07,2.07,0,0,1,2.33,2.25c0,0.61,0,1.32,0,2a5,5,0,0,0,.11,1.42h-1Zm-0.16-1.45v-0.81a3.52,3.52,0,0,0-1.53-.31c-0.9,0-1.32.24-1.32,0.9s0.55,0.85,1.25.85A2,2,0,0,0,404.92,394.55Z" transform="translate(-119.78 -360.48)"/><path class="cls-2" d="M408.22,396h-1.14v-8.24h1.14V396Z" transform="translate(-119.78 -360.48)"/><path class="cls-2" d="M410.54,396H409.4v-8.24h1.14V396Z" transform="translate(-119.78 -360.48)"/><path class="cls-2" d="M415.71,389.3v2.51h3.87v1.07h-3.87V396h-1.21v-7.75h5.86v1h-4.66Z" transform="translate(-119.78 -360.48)"/><path class="cls-2" d="M425,396a6,6,0,0,1-.13-0.73,2.36,2.36,0,0,1-1.77.83,2.07,2.07,0,0,1-2.26-2.32v-3.29h1.18v3.2a1.19,1.19,0,0,0,1.34,1.41,1.82,1.82,0,0,0,1.41-.63v-4H426v3.94a5.38,5.38,0,0,0,.15,1.58H425Z" transform="translate(-119.78 -360.48)"/><path class="cls-2" d="M432.39,392.8V396H431.2v-3.12a1.2,1.2,0,0,0-1.3-1.47,1.69,1.69,0,0,0-1.49.78V396h-1.18v-5.52h1l0.09,0.84A2.23,2.23,0,0,1,432.39,392.8Z" transform="translate(-119.78 -360.48)"/><path class="cls-2" d="M437.75,396a4.05,4.05,0,0,1-.14-0.77,2.3,2.3,0,0,1-1.88.86,2.45,2.45,0,0,1-2.52-2.58v-0.29a2.65,2.65,0,0,1,2.75-2.85,2.16,2.16,0,0,1,1.61.67v-3.28h1.15v6.66a7.25,7.25,0,0,0,.1,1.58h-1.07Zm-0.18-1.62v-2.33a1.72,1.72,0,0,0-1.54-.7,1.61,1.61,0,0,0-1.65,1.87v0.21A1.49,1.49,0,0,0,436,395.1,1.73,1.73,0,0,0,437.57,394.38Z" transform="translate(-119.78 -360.48)"/><path class="cls-2" d="M443.86,389.3v2.51h3.87v1.07h-3.87V396h-1.2v-7.75h5.86v1h-4.66Z" transform="translate(-119.78 -360.48)"/><path class="cls-2" d="M452.64,396a4.88,4.88,0,0,1-.11-0.7,2.25,2.25,0,0,1-1.87.8c-1,0-2.13-.46-2.13-1.72s1-1.84,2.19-1.84a3.8,3.8,0,0,1,1.79.42v-0.44c0-.87-0.53-1.19-1.42-1.19a2.17,2.17,0,0,0-1.63.6l-0.52-.86a3.48,3.48,0,0,1,2.27-.7,2.07,2.07,0,0,1,2.33,2.25c0,0.61,0,1.32,0,2a4.9,4.9,0,0,0,.12,1.42h-1Zm-0.16-1.45v-0.81a3.52,3.52,0,0,0-1.53-.31c-0.9,0-1.32.24-1.32,0.9s0.55,0.85,1.25.85A2,2,0,0,0,452.48,394.55Z" transform="translate(-119.78 -360.48)"/><path class="cls-2" d="M463.36,392.88V396h-1.19v-3.18a1.17,1.17,0,0,0-1.25-1.41,1.52,1.52,0,0,0-1.31.65V396h-1.19v-3.32a1.09,1.09,0,0,0-1.17-1.27,1.6,1.6,0,0,0-1.39.79V396h-1.18v-5.52h1l0.09,0.88a2,2,0,0,1,1.84-1,1.78,1.78,0,0,1,1.63,1,2.31,2.31,0,0,1,1.92-1C462.6,390.38,463.36,391.21,463.36,392.88Z" transform="translate(-119.78 -360.48)"/><path class="cls-2" d="M465.71,388.25v1.19h-1.2v-1.19h1.2Zm0,7.75h-1.16v-5.52h1.16V396Z" transform="translate(-119.78 -360.48)"/><path class="cls-2" d="M468,396h-1.14v-8.24H468V396Z" transform="translate(-119.78 -360.48)"/><path class="cls-2" d="M474.32,390.48a62.21,62.21,0,0,1-3.4,7.78l-1.09-.39a10.19,10.19,0,0,0,1-1.86l-2.16-5.53h1.25l1.54,4.57,1.7-4.57h1.21Z" transform="translate(-119.78 -360.48)"/><path class="cls-2" d="M294.69,400.43a5.3,5.3,0,0,0-2.31,4.61v0.34a5.47,5.47,0,0,0,2.24,4.51l-0.62.85a6.21,6.21,0,0,1-2.78-5.34V405a6,6,0,0,1,2.9-5.44Z" transform="translate(-119.78 -360.48)"/><path class="cls-2" d="M295,408l0.49-1a2.5,2.5,0,0,0,1.89.76c0.86,0,1.37-.24,1.37-0.82s-0.61-.58-1.57-0.75c-1.15-.2-2-0.45-2-1.43s0.69-1.77,2.23-1.77a3.88,3.88,0,0,1,2.16.56l-0.46.87a2.52,2.52,0,0,0-1.7-.49c-0.78,0-1.18.24-1.18,0.75s0.54,0.48,1.48.64,2,0.34,2,1.54-0.88,1.84-2.34,1.84A3.8,3.8,0,0,1,295,408Z" transform="translate(-119.78 -360.48)"/><path class="cls-2" d="M305.57,405.91v0.21h-4.22a1.5,1.5,0,0,0,1.64,1.65,1.8,1.8,0,0,0,1.63-.86l0.72,0.73a3,3,0,0,1-2.42,1.08,2.5,2.5,0,0,1-2.68-2.62v-0.28A2.69,2.69,0,0,1,303,403C304.94,403,305.58,404.46,305.57,405.91Zm-1.16-.65a1.33,1.33,0,0,0-1.47-1.35,1.5,1.5,0,0,0-1.55,1.35h3Z" transform="translate(-119.78 -360.48)"/><path class="cls-2" d="M311.17,404l-0.7.76a1.82,1.82,0,0,0-1.62-.77,1.62,1.62,0,0,0-1.62,1.77V406a1.51,1.51,0,0,0,1.59,1.72,1.87,1.87,0,0,0,1.66-.86l0.71,0.77a2.93,2.93,0,0,1-2.41,1.07,2.5,2.5,0,0,1-2.71-2.66v-0.28a2.67,2.67,0,0,1,2.74-2.78A2.83,2.83,0,0,1,311.17,404Z" transform="translate(-119.78 -360.48)"/><path class="cls-2" d="M317.11,405.7V406a2.77,2.77,0,0,1-5.54,0v-0.29A2.77,2.77,0,0,1,317.11,405.7Zm-4.41,0V406a1.57,1.57,0,0,0,1.64,1.78A1.56,1.56,0,0,0,316,406V405.7a1.53,1.53,0,0,0-1.62-1.75A1.56,1.56,0,0,0,312.71,405.7Z" transform="translate(-119.78 -360.48)"/><path class="cls-2" d="M323.14,405.42v3.2H322V405.5a1.2,1.2,0,0,0-1.3-1.47,1.69,1.69,0,0,0-1.49.78v3.81H318V403.1h1l0.09,0.84A2.23,2.23,0,0,1,323.14,405.42Z" transform="translate(-119.78 -360.48)"/><path class="cls-2" d="M328.5,408.62a4.05,4.05,0,0,1-.14-0.77,2.3,2.3,0,0,1-1.88.86,2.45,2.45,0,0,1-2.52-2.58v-0.29a2.65,2.65,0,0,1,2.75-2.85,2.16,2.16,0,0,1,1.61.67v-3.28h1.15V407a7.25,7.25,0,0,0,.1,1.58H328.5ZM328.32,407v-2.33a1.72,1.72,0,0,0-1.54-.7,1.61,1.61,0,0,0-1.65,1.87V406a1.49,1.49,0,0,0,1.61,1.67A1.73,1.73,0,0,0,328.32,407Z" transform="translate(-119.78 -360.48)"/><path class="cls-2" d="M338,403.1a62.2,62.2,0,0,1-3.4,7.78l-1.09-.39a10.22,10.22,0,0,0,1-1.86l-2.16-5.53h1.25l1.54,4.57,1.7-4.57H338Z" transform="translate(-119.78 -360.48)"/><path class="cls-2" d="M343.56,405.91v0.21h-4.22a1.5,1.5,0,0,0,1.64,1.65,1.8,1.8,0,0,0,1.63-.86l0.72,0.73a3,3,0,0,1-2.42,1.08,2.5,2.5,0,0,1-2.69-2.62v-0.28a2.69,2.69,0,0,1,2.72-2.83C342.93,403,343.58,404.46,343.56,405.91Zm-1.16-.65a1.33,1.33,0,0,0-1.47-1.35,1.5,1.5,0,0,0-1.55,1.35h3Z" transform="translate(-119.78 -360.48)"/><path class="cls-2" d="M348.08,408.62a5,5,0,0,1-.12-0.7,2.24,2.24,0,0,1-1.87.8c-1,0-2.13-.46-2.13-1.72s1-1.84,2.19-1.84a3.8,3.8,0,0,1,1.79.42v-0.44c0-.87-0.53-1.19-1.42-1.19a2.16,2.16,0,0,0-1.63.6l-0.52-.86a3.48,3.48,0,0,1,2.27-.7,2.07,2.07,0,0,1,2.33,2.25c0,0.61,0,1.32,0,2a5,5,0,0,0,.11,1.42h-1Zm-0.16-1.45v-0.81a3.52,3.52,0,0,0-1.53-.31c-0.9,0-1.32.24-1.32,0.9s0.55,0.85,1.25.85A2,2,0,0,0,347.92,407.17Z" transform="translate(-119.78 -360.48)"/><path class="cls-2" d="M353.31,403.2l-0.19,1.11a1.1,1.1,0,0,0-.64-0.16,1.45,1.45,0,0,0-1.23,1.27v3.19h-1.12V403.1h1l0.07,1.34a1.48,1.48,0,0,1,1.41-1.39A1.42,1.42,0,0,1,353.31,403.2Z" transform="translate(-119.78 -360.48)"/><path class="cls-2" d="M357.09,400.87v1.19h-1.2v-1.19h1.2Zm0,7.75H355.9V403.1h1.16v5.52Z" transform="translate(-119.78 -360.48)"/><path class="cls-2" d="M363.48,405.42v3.2h-1.19V405.5A1.2,1.2,0,0,0,361,404a1.69,1.69,0,0,0-1.49.78v3.81h-1.18V403.1h1l0.09,0.84A2.23,2.23,0,0,1,363.48,405.42Z" transform="translate(-119.78 -360.48)"/><path class="cls-2" d="M370.78,408.62a5,5,0,0,1-.12-0.7,2.24,2.24,0,0,1-1.87.8c-1,0-2.13-.46-2.13-1.72s1-1.84,2.19-1.84a3.8,3.8,0,0,1,1.79.42v-0.44c0-.87-0.53-1.19-1.42-1.19a2.16,2.16,0,0,0-1.63.6l-0.52-.86a3.48,3.48,0,0,1,2.27-.7,2.07,2.07,0,0,1,2.33,2.25c0,0.61,0,1.32,0,2a5,5,0,0,0,.11,1.42h-1Zm-0.16-1.45v-0.81a3.52,3.52,0,0,0-1.53-.31c-0.9,0-1.32.24-1.32,0.9s0.55,0.85,1.25.85A2,2,0,0,0,370.62,407.17Z" transform="translate(-119.78 -360.48)"/><path class="cls-2" d="M378.54,403.2l-0.2,1.11a1.1,1.1,0,0,0-.64-0.16,1.45,1.45,0,0,0-1.23,1.27v3.19h-1.12V403.1h1l0.07,1.34a1.48,1.48,0,0,1,1.41-1.39A1.43,1.43,0,0,1,378.54,403.2Z" transform="translate(-119.78 -360.48)"/><path class="cls-2" d="M384.16,405.7V406a2.77,2.77,0,0,1-5.54,0v-0.29A2.77,2.77,0,0,1,384.16,405.7Zm-4.41,0V406a1.57,1.57,0,0,0,1.64,1.78A1.56,1.56,0,0,0,383,406V405.7a1.53,1.53,0,0,0-1.62-1.75A1.56,1.56,0,0,0,379.75,405.7Z" transform="translate(-119.78 -360.48)"/><path class="cls-2" d="M393,403.1l-1.69,5.52H390l-1.29-4.46-1.31,4.46h-1.32l-1.71-5.52h1.23l1.14,4.51L388,403.1h1.32l1.32,4.53,1.13-4.53H393Z" transform="translate(-119.78 -360.48)"/><path class="cls-2" d="M396.6,405v0.39a6.21,6.21,0,0,1-2.78,5.34l-0.62-.85a5.47,5.47,0,0,0,2.24-4.51V405a5.27,5.27,0,0,0-2.31-4.61l0.56-.85A6,6,0,0,1,396.6,405Z" transform="translate(-119.78 -360.48)"/><path class="cls-2" d="M298,377.21v0.18c0,1.33-.9,2.27-2.66,2.27h-4v-7.75h3.83c1.64,0,2.39.86,2.39,1.94V374a1.51,1.51,0,0,1-1.31,1.57A1.61,1.61,0,0,1,298,377.21ZM292.53,373v2.23h2.62a1.07,1.07,0,0,0,1.23-1.1V374a1,1,0,0,0-1.26-1h-2.58Zm4.27,4.29a1.13,1.13,0,0,0-1.38-1.09h-2.89v2.46h2.74c1,0,1.53-.41,1.53-1.22v-0.15Z" transform="translate(-119.78 -360.48)"/><path class="cls-2" d="M304.06,377v0.21h-4.22a1.49,1.49,0,0,0,1.64,1.65,1.8,1.8,0,0,0,1.63-.86l0.72,0.73a3,3,0,0,1-2.42,1.08,2.5,2.5,0,0,1-2.68-2.62v-0.28a2.69,2.69,0,0,1,2.72-2.83C303.43,374,304.07,375.51,304.06,377Zm-1.16-.65a1.33,1.33,0,0,0-1.47-1.35,1.5,1.5,0,0,0-1.55,1.35h3Z" transform="translate(-119.78 -360.48)"/><path class="cls-2" d="M304.55,379l0.49-1a2.51,2.51,0,0,0,1.89.76c0.86,0,1.37-.24,1.37-0.81s-0.61-.58-1.57-0.75c-1.15-.19-2-0.45-2-1.43s0.69-1.77,2.23-1.77a3.89,3.89,0,0,1,2.16.56l-0.46.87A2.52,2.52,0,0,0,307,375c-0.78,0-1.18.24-1.18,0.75s0.54,0.48,1.48.64,2,0.34,2,1.54-0.88,1.84-2.34,1.84A3.79,3.79,0,0,1,304.55,379Z" transform="translate(-119.78 -360.48)"/><path class="cls-2" d="M313.7,379.27a2.57,2.57,0,0,1-1.53.48,1.42,1.42,0,0,1-1.56-1.66v-3h-1.06v-0.92h1.06v-1.25l1.07-.19v1.45h1.94v0.92h-1.94v2.88c0,0.56.15,0.85,0.69,0.85a1.4,1.4,0,0,0,1-.44Z" transform="translate(-119.78 -360.48)"/><path class="cls-2" d="M323.9,375.59V376a3.72,3.72,0,0,1-7.44,0V375.6A3.72,3.72,0,1,1,323.9,375.59Zm-6.21,0V376a2.5,2.5,0,1,0,5,0V375.6a2.42,2.42,0,0,0-2.51-2.73C318.64,372.87,317.7,373.88,317.7,375.61Z" transform="translate(-119.78 -360.48)"/><path class="cls-2" d="M330.34,374.14l-2.16,5.52h-1.5l-2.13-5.52h1.24l1.64,4.68,1.67-4.68h1.24Z" transform="translate(-119.78 -360.48)"/><path class="cls-2" d="M335.95,377v0.21h-4.22a1.5,1.5,0,0,0,1.64,1.65A1.8,1.8,0,0,0,335,378l0.72,0.73a3,3,0,0,1-2.42,1.08,2.5,2.5,0,0,1-2.69-2.62v-0.28a2.69,2.69,0,0,1,2.72-2.83C335.32,374,336,375.51,335.95,377Zm-1.16-.65a1.33,1.33,0,0,0-1.47-1.35,1.5,1.5,0,0,0-1.55,1.35h3Z" transform="translate(-119.78 -360.48)"/><path class="cls-2" d="M340.05,374.25l-0.19,1.11a1.1,1.1,0,0,0-.64-0.16,1.45,1.45,0,0,0-1.23,1.27v3.19h-1.12v-5.52h1l0.07,1.34a1.48,1.48,0,0,1,1.41-1.39A1.42,1.42,0,0,1,340.05,374.25Z" transform="translate(-119.78 -360.48)"/><path class="cls-2" d="M344.37,379.66a4.88,4.88,0,0,1-.11-0.7,2.25,2.25,0,0,1-1.87.8c-1,0-2.13-.46-2.13-1.72s1-1.84,2.19-1.84a3.8,3.8,0,0,1,1.79.42V376.2c0-.87-0.53-1.19-1.42-1.19a2.17,2.17,0,0,0-1.63.6l-0.52-.86a3.48,3.48,0,0,1,2.27-.7,2.07,2.07,0,0,1,2.33,2.25c0,0.61,0,1.32,0,2a4.9,4.9,0,0,0,.12,1.42h-1Zm-0.16-1.45V377.4a3.52,3.52,0,0,0-1.53-.31c-0.9,0-1.32.24-1.32,0.9s0.55,0.85,1.25.85A2,2,0,0,0,344.21,378.22Z" transform="translate(-119.78 -360.48)"/><path class="cls-2" d="M347.6,379.66h-1.14v-8.24h1.14v8.24Z" transform="translate(-119.78 -360.48)"/><path class="cls-2" d="M350,379.66h-1.14v-8.24H350v8.24Z" transform="translate(-119.78 -360.48)"/><path class="cls-2" d="M353.22,378.72l0.62-1.1a3.4,3.4,0,0,0,2.62,1.06c1.12,0,1.86-.37,1.86-1.3s-0.7-.93-2.11-1.21-2.68-.58-2.68-2,0.94-2.4,3-2.4a4.66,4.66,0,0,1,2.71.79l-0.56,1a3.29,3.29,0,0,0-2.21-.7c-1.26,0-1.77.53-1.77,1.22s0.5,0.76,2,1.06,2.78,0.49,2.78,2.11-1.26,2.47-3,2.47A5.27,5.27,0,0,1,353.22,378.72Z" transform="translate(-119.78 -360.48)"/><path class="cls-2" d="M369.18,376.54v3.12H368v-3.18a1.17,1.17,0,0,0-1.25-1.41,1.52,1.52,0,0,0-1.31.65v3.94h-1.19v-3.32a1.09,1.09,0,0,0-1.17-1.27,1.6,1.6,0,0,0-1.39.79v3.8h-1.18v-5.52h1l0.09,0.88a2,2,0,0,1,1.84-1,1.78,1.78,0,0,1,1.63,1,2.31,2.31,0,0,1,1.92-1C368.41,374,369.18,374.88,369.18,376.54Z" transform="translate(-119.78 -360.48)"/><path class="cls-2" d="M374.22,379.66a5,5,0,0,1-.12-0.7,2.24,2.24,0,0,1-1.87.8c-1,0-2.13-.46-2.13-1.72s1-1.84,2.19-1.84a3.8,3.8,0,0,1,1.79.42V376.2c0-.87-0.53-1.19-1.42-1.19a2.16,2.16,0,0,0-1.63.6l-0.52-.86a3.48,3.48,0,0,1,2.27-.7,2.07,2.07,0,0,1,2.33,2.25c0,0.61,0,1.32,0,2a5,5,0,0,0,.11,1.42h-1Zm-0.16-1.45V377.4a3.52,3.52,0,0,0-1.53-.31c-0.9,0-1.32.24-1.32,0.9s0.55,0.85,1.25.85A2,2,0,0,0,374.06,378.22Z" transform="translate(-119.78 -360.48)"/><path class="cls-2" d="M377.46,379.66h-1.14v-8.24h1.14v8.24Z" transform="translate(-119.78 -360.48)"/><path class="cls-2" d="M379.87,379.66h-1.14v-8.24h1.14v8.24Z" transform="translate(-119.78 -360.48)"/><path class="cls-2" d="M385.22,373v2.51h3.87v1.07h-3.87v3.12H384v-7.75h5.86v1h-4.66Z" transform="translate(-119.78 -360.48)"/><path class="cls-2" d="M394.63,379.66a6,6,0,0,1-.13-0.73,2.36,2.36,0,0,1-1.77.83,2.07,2.07,0,0,1-2.26-2.32v-3.29h1.18v3.2a1.19,1.19,0,0,0,1.34,1.41,1.82,1.82,0,0,0,1.41-.63v-4h1.18v3.94a5.38,5.38,0,0,0,.15,1.58h-1.11Z" transform="translate(-119.78 -360.48)"/><path class="cls-2" d="M402.09,376.46v3.2h-1.19v-3.12a1.2,1.2,0,0,0-1.3-1.47,1.69,1.69,0,0,0-1.49.78v3.81h-1.18v-5.52h1L398,375A2.23,2.23,0,0,1,402.09,376.46Z" transform="translate(-119.78 -360.48)"/><path class="cls-2" d="M407.54,379.66a4.05,4.05,0,0,1-.14-0.77,2.3,2.3,0,0,1-1.88.86,2.45,2.45,0,0,1-2.52-2.58v-0.29a2.65,2.65,0,0,1,2.75-2.85,2.17,2.17,0,0,1,1.61.67v-3.28h1.15v6.66a7.19,7.19,0,0,0,.1,1.58h-1.07ZM407.35,378v-2.33a1.71,1.71,0,0,0-1.54-.7,1.61,1.61,0,0,0-1.65,1.87v0.21a1.49,1.49,0,0,0,1.61,1.68A1.73,1.73,0,0,0,407.35,378Z" transform="translate(-119.78 -360.48)"/><path class="cls-2" d="M413.83,373v2.51h3.87v1.07h-3.87v3.12h-1.21v-7.75h5.86v1h-4.66Z" transform="translate(-119.78 -360.48)"/><path class="cls-2" d="M422.7,379.66a5,5,0,0,1-.12-0.7,2.24,2.24,0,0,1-1.87.8c-1,0-2.13-.46-2.13-1.72s1-1.84,2.19-1.84a3.8,3.8,0,0,1,1.79.42V376.2c0-.87-0.53-1.19-1.42-1.19a2.16,2.16,0,0,0-1.63.6l-0.52-.86a3.48,3.48,0,0,1,2.27-.7,2.07,2.07,0,0,1,2.33,2.25c0,0.61,0,1.32,0,2a5,5,0,0,0,.11,1.42h-1Zm-0.16-1.45V377.4a3.52,3.52,0,0,0-1.53-.31c-0.9,0-1.32.24-1.32,0.9s0.55,0.85,1.25.85A2,2,0,0,0,422.54,378.22Z" transform="translate(-119.78 -360.48)"/><path class="cls-2" d="M433.52,376.54v3.12h-1.19v-3.18a1.17,1.17,0,0,0-1.25-1.41,1.52,1.52,0,0,0-1.31.65v3.94h-1.19v-3.32a1.09,1.09,0,0,0-1.17-1.27,1.6,1.6,0,0,0-1.39.79v3.8h-1.18v-5.52h1L426,375a2,2,0,0,1,1.84-1,1.78,1.78,0,0,1,1.63,1,2.31,2.31,0,0,1,1.92-1C432.75,374,433.52,374.88,433.52,376.54Z" transform="translate(-119.78 -360.48)"/><path class="cls-2" d="M436,371.92v1.19h-1.2v-1.19H436Zm0,7.75h-1.16v-5.52h1.16v5.52Z" transform="translate(-119.78 -360.48)"/><path class="cls-2" d="M438.38,379.66h-1.14v-8.24h1.14v8.24Z" transform="translate(-119.78 -360.48)"/><path class="cls-2" d="M444.75,374.14a62.17,62.17,0,0,1-3.4,7.78l-1.09-.39a10.2,10.2,0,0,0,1-1.86l-2.16-5.53h1.25l1.54,4.57,1.7-4.57h1.21Z" transform="translate(-119.78 -360.48)"/></svg>