<svg id="Layer_1" data-name="Layer 1" xmlns="http://www.w3.org/2000/svg" viewBox="0 0 462.11 58.72"><defs><style>.cls-1{fill:#00a766;}</style></defs><title>copy2</title><path class="cls-1" d="M319.79,84.07V84.7c0,4.62-2.82,7.41-6.9,7.41a6.79,6.79,0,0,1-4.68-2L308,91.84h-2.55V70.3h3v8.85a5.72,5.72,0,0,1,4.65-2C317.06,77.14,319.79,79.78,319.79,84.07Zm-3,.15c0-3.12-1.71-4.56-4.29-4.56a4.84,4.84,0,0,0-4,1.86v6.36a5.3,5.3,0,0,0,4.11,1.74c2.73,0,4.2-1.71,4.2-4.8v-0.6Z" transform="translate(-95.21 -70.09)"/><path class="cls-1" d="M333.26,91.84a15,15,0,0,1-.33-1.92,6.17,6.17,0,0,1-4.62,2.16c-3.39,0-5.91-1.8-5.91-6.06V77.41h3.09v8.37c0,2.67,1.2,3.69,3.51,3.69a4.76,4.76,0,0,0,3.69-1.65V77.41h3.09V87.7a14,14,0,0,0,.39,4.14h-2.91Z" transform="translate(-95.21 -70.09)"/><path class="cls-1" d="M348.71,90.82a6.72,6.72,0,0,1-4,1.26c-2.43,0-4.08-1.14-4.08-4.35V79.81h-2.76v-2.4h2.76V74.14l2.79-.51v3.78h5.07v2.4h-5.07v7.53c0,1.47.39,2.22,1.8,2.22a3.66,3.66,0,0,0,2.61-1.14Z" transform="translate(-95.21 -70.09)"/><path class="cls-1" d="M366.95,90.82a6.72,6.72,0,0,1-4,1.26c-2.43,0-4.08-1.14-4.08-4.35V79.81h-2.76v-2.4h2.76V74.14l2.79-.51v3.78h5.07v2.4h-5.07v7.53c0,1.47.39,2.22,1.8,2.22a3.66,3.66,0,0,0,2.61-1.14Z" transform="translate(-95.21 -70.09)"/><path class="cls-1" d="M383,83.59v8.25h-3.12V83.68c0-2.67-1.11-3.84-3.51-3.84a4.33,4.33,0,0,0-3.9,2.22v9.78h-3.09V70.3h3.09v9.21a5.58,5.58,0,0,1,4.89-2.37C380.84,77.14,383,79.42,383,83.59Z" transform="translate(-95.21 -70.09)"/><path class="cls-1" d="M399.62,84.76V85.3h-11c0,2.94,1.71,4.32,4.29,4.32a4.7,4.7,0,0,0,4.26-2.25L399,89.29a7.73,7.73,0,0,1-6.33,2.82c-4.26,0-7-2.76-7-6.84V84.55c0-4,2.76-7.41,7.11-7.41C398,77.14,399.65,81,399.62,84.76Zm-3-1.71c-0.21-2.16-1.35-3.54-3.84-3.54a3.92,3.92,0,0,0-4,3.54h7.89Z" transform="translate(-95.21 -70.09)"/><path class="cls-1" d="M401.24,90.13l1.29-2.49a6.55,6.55,0,0,0,4.95,2c2.25,0,3.57-.63,3.57-2.13s-1.59-1.53-4.11-2c-3-.51-5.16-1.17-5.16-3.75s1.8-4.62,5.82-4.62a10.16,10.16,0,0,1,5.64,1.47L412,80.92a6.59,6.59,0,0,0-4.44-1.29c-2,0-3.09.63-3.09,1.95,0,1.11,1.41,1.26,3.87,1.68s5.34,0.9,5.34,4-2.31,4.8-6.12,4.8A9.93,9.93,0,0,1,401.24,90.13Z" transform="translate(-95.21 -70.09)"/><path class="cls-1" d="M429.53,84.76V85.3h-11c0,2.94,1.71,4.32,4.29,4.32A4.7,4.7,0,0,0,427,87.37l1.89,1.92a7.73,7.73,0,0,1-6.33,2.82c-4.26,0-7-2.76-7-6.84V84.55c0-4,2.76-7.41,7.11-7.41C427.88,77.14,429.56,81,429.53,84.76Zm-3-1.71c-0.21-2.16-1.35-3.54-3.84-3.54a3.92,3.92,0,0,0-4,3.54h7.89Z" transform="translate(-95.21 -70.09)"/><path class="cls-1" d="M442.1,77.41h4.56v2.4H442.1v12h-2.85v-12H436.4v-2.4h2.85V75.55c0-3.48,1.47-5.46,4.44-5.46a6.2,6.2,0,0,1,3.63,1l-1,2.25a3.47,3.47,0,0,0-2.43-.87c-1.38,0-1.83.93-1.83,2.85v2Z" transform="translate(-95.21 -70.09)"/><path class="cls-1" d="M459.77,91.84a15,15,0,0,1-.33-1.92,6.17,6.17,0,0,1-4.62,2.16c-3.39,0-5.91-1.8-5.91-6.06V77.41H452v8.37c0,2.67,1.2,3.69,3.51,3.69a4.76,4.76,0,0,0,3.69-1.65V77.41h3.09V87.7a14,14,0,0,0,.39,4.14h-2.91Z" transform="translate(-95.21 -70.09)"/><path class="cls-1" d="M479.6,83.47v8.37h-3.12V83.68c0-2.76-1.14-3.84-3.39-3.84a4.41,4.41,0,0,0-3.9,2v10H466.1V77.41h2.7L469,79.6a5.58,5.58,0,0,1,4.86-2.46C477.14,77.14,479.6,79.21,479.6,83.47Z" transform="translate(-95.21 -70.09)"/><path class="cls-1" d="M494.18,91.84a10.46,10.46,0,0,1-.36-2,6,6,0,0,1-4.92,2.25,6.4,6.4,0,0,1-6.6-6.75V84.58c0-4.8,3.24-7.44,7.2-7.44a5.66,5.66,0,0,1,4.2,1.74V70.3h3V87.7a18.82,18.82,0,0,0,.27,4.14h-2.79Zm-0.48-4.23V81.52a4.49,4.49,0,0,0-4-1.83c-2.79,0-4.32,1.8-4.32,4.89v0.54c0,2.94,1.65,4.38,4.2,4.38A4.54,4.54,0,0,0,493.7,87.61Z" transform="translate(-95.21 -70.09)"/><path class="cls-1" d="M499.22,90.13l1.29-2.49a6.55,6.55,0,0,0,4.95,2c2.25,0,3.57-.63,3.57-2.13s-1.59-1.53-4.11-2c-3-.51-5.16-1.17-5.16-3.75s1.8-4.62,5.82-4.62a10.16,10.16,0,0,1,5.64,1.47L510,80.92a6.59,6.59,0,0,0-4.44-1.29c-2,0-3.09.63-3.09,1.95,0,1.11,1.41,1.26,3.87,1.68s5.34,0.9,5.34,4-2.31,4.8-6.12,4.8A9.93,9.93,0,0,1,499.22,90.13Z" transform="translate(-95.21 -70.09)"/><path class="cls-1" d="M117.8,108.41l-4.41,14.43h-3.48l-3.36-11.67-3.42,11.67H99.68l-4.47-14.43h3.21l3,11.79,3.36-11.79h3.45l3.45,11.85,2.94-11.85h3.21Z" transform="translate(-95.21 -70.09)"/><path class="cls-1" d="M133.25,115.22V116c0,4.2-2.79,7.08-7.2,7.08s-7.29-2.88-7.29-7.14v-0.75c0-4.11,2.79-7,7.23-7S133.25,111,133.25,115.22Zm-11.52,0V116c0,2.85,1.53,4.65,4.29,4.65s4.23-1.71,4.23-4.65v-0.75c0-2.85-1.44-4.59-4.23-4.59S121.73,112.37,121.73,115.22Z" transform="translate(-95.21 -70.09)"/><path class="cls-1" d="M149.6,114.47v8.37h-3.12v-8.16c0-2.76-1.14-3.84-3.39-3.84a4.41,4.41,0,0,0-3.9,2v10H136.1V108.41h2.7L139,110.6a5.58,5.58,0,0,1,4.86-2.46C147.14,108.14,149.6,110.21,149.6,114.47Z" transform="translate(-95.21 -70.09)"/><path class="cls-1" d="M154.67,111.62L152.3,111a23.61,23.61,0,0,0,1.74-8.37h2.91A23.81,23.81,0,0,1,154.67,111.62Z" transform="translate(-95.21 -70.09)"/><path class="cls-1" d="M169.46,121.82a6.72,6.72,0,0,1-4,1.26c-2.43,0-4.08-1.14-4.08-4.35v-7.92h-2.76v-2.4h2.76v-3.27l2.79-.51v3.78h5.07v2.4h-5.07v7.53c0,1.47.39,2.22,1.8,2.22a3.66,3.66,0,0,0,2.61-1.14Z" transform="translate(-95.21 -70.09)"/><path class="cls-1" d="M188.51,122.84a12.86,12.86,0,0,1-.3-1.83,5.87,5.87,0,0,1-4.89,2.1c-2.67,0-5.58-1.2-5.58-4.5,0-3.48,2.49-4.8,5.73-4.8a9.92,9.92,0,0,1,4.68,1.11v-1.14c0-2.28-1.38-3.12-3.72-3.12a5.66,5.66,0,0,0-4.26,1.56L178.82,110a9.09,9.09,0,0,1,5.94-1.83c3.57,0,6.18,1.86,6.09,5.88,0,1.59-.06,3.45-0.06,5.1a12.89,12.89,0,0,0,.3,3.72h-2.58Zm-0.42-3.78v-2.13a9.2,9.2,0,0,0-4-.81c-2.34,0-3.45.63-3.45,2.34s1.44,2.22,3.27,2.22A5.29,5.29,0,0,0,188.09,119.06Z" transform="translate(-95.21 -70.09)"/><path class="cls-1" d="M206.72,110.75l-1.83,2a4.74,4.74,0,0,0-4.23-2c-2.4,0-4.23,1.8-4.23,4.62V116c0,2.7,1.38,4.5,4.17,4.5a4.89,4.89,0,0,0,4.35-2.25l1.86,2a7.67,7.67,0,0,1-6.3,2.79c-4.38,0-7.08-2.73-7.08-7V115.4a7,7,0,0,1,7.17-7.26A7.39,7.39,0,0,1,206.72,110.75Z" transform="translate(-95.21 -70.09)"/><path class="cls-1" d="M218.48,121.82a6.72,6.72,0,0,1-4,1.26c-2.43,0-4.08-1.14-4.08-4.35v-7.92h-2.76v-2.4h2.76v-3.27l2.79-.51v3.78h5.07v2.4H213.2v7.53c0,1.47.39,2.22,1.8,2.22a3.66,3.66,0,0,0,2.61-1.14Z" transform="translate(-95.21 -70.09)"/><path class="cls-1" d="M224.06,102.59v3.12h-3.15v-3.12h3.15ZM224,122.84h-3V108.41h3v14.43Z" transform="translate(-95.21 -70.09)"/><path class="cls-1" d="M241.34,108.41l-5.64,14.43h-3.93l-5.58-14.43h3.24l4.29,12.24,4.38-12.24h3.24Z" transform="translate(-95.21 -70.09)"/><path class="cls-1" d="M256.34,115.76v0.54h-11c0,2.94,1.71,4.32,4.29,4.32a4.7,4.7,0,0,0,4.26-2.25l1.89,1.92a7.73,7.73,0,0,1-6.33,2.82c-4.26,0-7-2.76-7-6.84v-0.72c0-4,2.76-7.41,7.11-7.41C254.69,108.14,256.37,112,256.34,115.76Zm-3-1.71c-0.21-2.16-1.35-3.54-3.84-3.54a3.92,3.92,0,0,0-4,3.54h7.89Z" transform="translate(-95.21 -70.09)"/><path class="cls-1" d="M261.95,122.84h-3V101.3h3v21.54Z" transform="translate(-95.21 -70.09)"/><path class="cls-1" d="M278.93,108.41A162.08,162.08,0,0,1,270,128.75l-2.85-1a26.81,26.81,0,0,0,2.49-4.86L264,108.41h3.27l4,11.94,4.44-11.94h3.15Z" transform="translate(-95.21 -70.09)"/><path class="cls-1" d="M310.13,114.68v8.16H307v-8.31c0-2.49-1-3.69-3.27-3.69a4,4,0,0,0-3.42,1.71v10.29H297.2v-8.67c0-2.16-1-3.33-3.06-3.33a4.17,4.17,0,0,0-3.63,2.07v9.93h-3.09V108.41h2.73l0.24,2.31a5.33,5.33,0,0,1,4.8-2.58,4.65,4.65,0,0,1,4.26,2.67,6,6,0,0,1,5-2.67C308.12,108.14,310.13,110.33,310.13,114.68Z" transform="translate(-95.21 -70.09)"/><path class="cls-1" d="M323.66,122.84a12.86,12.86,0,0,1-.3-1.83,5.87,5.87,0,0,1-4.89,2.1c-2.67,0-5.58-1.2-5.58-4.5,0-3.48,2.49-4.8,5.73-4.8a9.92,9.92,0,0,1,4.68,1.11v-1.14c0-2.28-1.38-3.12-3.72-3.12a5.66,5.66,0,0,0-4.26,1.56L314,110a9.09,9.09,0,0,1,5.94-1.83c3.57,0,6.18,1.86,6.09,5.88,0,1.59-.06,3.45-0.06,5.1a12.89,12.89,0,0,0,.3,3.72h-2.58Zm-0.42-3.78v-2.13a9.2,9.2,0,0,0-4-.81c-2.34,0-3.45.63-3.45,2.34s1.44,2.22,3.27,2.22A5.29,5.29,0,0,0,323.24,119.06Z" transform="translate(-95.21 -70.09)"/><path class="cls-1" d="M343.07,114.47v8.37h-3.12v-8.16c0-2.76-1.14-3.84-3.39-3.84a4.41,4.41,0,0,0-3.9,2v10h-3.09V108.41h2.7l0.24,2.19a5.58,5.58,0,0,1,4.86-2.46C340.61,108.14,343.07,110.21,343.07,114.47Z" transform="translate(-95.21 -70.09)"/><path class="cls-1" d="M356.6,122.84a12.86,12.86,0,0,1-.3-1.83,5.87,5.87,0,0,1-4.89,2.1c-2.67,0-5.58-1.2-5.58-4.5,0-3.48,2.49-4.8,5.73-4.8a9.92,9.92,0,0,1,4.68,1.11v-1.14c0-2.28-1.38-3.12-3.72-3.12a5.66,5.66,0,0,0-4.26,1.56L346.91,110a9.09,9.09,0,0,1,5.94-1.83c3.57,0,6.18,1.86,6.09,5.88,0,1.59-.06,3.45-0.06,5.1a12.89,12.89,0,0,0,.3,3.72H356.6Zm-0.42-3.78v-2.13a9.2,9.2,0,0,0-4-.81c-2.34,0-3.45.63-3.45,2.34s1.44,2.22,3.27,2.22A5.29,5.29,0,0,0,356.18,119.06Z" transform="translate(-95.21 -70.09)"/><path class="cls-1" d="M375.56,108.41V122c0,4.86-3.15,6.81-7.11,6.81a9.91,9.91,0,0,1-6.54-2.34l1.53-2.31a6.49,6.49,0,0,0,5,2.13c2.58,0,4.23-1,4.23-3.69v-2a5.2,5.2,0,0,1-4.68,2.19,6.24,6.24,0,0,1-6.51-6.54v-0.69c0-4.14,2.73-7.41,6.78-7.41a5.63,5.63,0,0,1,4.59,2.1l0.21-1.83h2.46Zm-2.82,9.78v-5.73a5,5,0,0,0-4.14-1.74c-2.64,0-4.08,1.92-4.08,4.8V116c0,2.94,1.62,4.29,4.08,4.29A4.51,4.51,0,0,0,372.74,118.19Z" transform="translate(-95.21 -70.09)"/><path class="cls-1" d="M392.3,115.76v0.54h-11c0,2.94,1.71,4.32,4.29,4.32a4.7,4.7,0,0,0,4.26-2.25l1.89,1.92a7.73,7.73,0,0,1-6.33,2.82c-4.26,0-7-2.76-7-6.84v-0.72c0-4,2.76-7.41,7.11-7.41C390.65,108.14,392.32,112,392.3,115.76Zm-3-1.71c-0.21-2.16-1.35-3.54-3.84-3.54a3.92,3.92,0,0,0-4,3.54h7.89Z" transform="translate(-95.21 -70.09)"/><path class="cls-1" d="M409.91,121.82a6.72,6.72,0,0,1-4,1.26c-2.43,0-4.08-1.14-4.08-4.35v-7.92h-2.76v-2.4h2.76v-3.27l2.79-.51v3.78h5.07v2.4h-5.07v7.53c0,1.47.39,2.22,1.8,2.22a3.66,3.66,0,0,0,2.61-1.14Z" transform="translate(-95.21 -70.09)"/><path class="cls-1" d="M425.93,114.59v8.25h-3.12v-8.16c0-2.67-1.11-3.84-3.51-3.84a4.33,4.33,0,0,0-3.9,2.22v9.78h-3.09V101.3h3.09v9.21a5.58,5.58,0,0,1,4.89-2.37C423.8,108.14,425.93,110.42,425.93,114.59Z" transform="translate(-95.21 -70.09)"/><path class="cls-1" d="M442.57,115.76v0.54h-11c0,2.94,1.71,4.32,4.29,4.32a4.7,4.7,0,0,0,4.26-2.25l1.89,1.92a7.73,7.73,0,0,1-6.33,2.82c-4.26,0-7-2.76-7-6.84v-0.72c0-4,2.76-7.41,7.11-7.41C440.93,108.14,442.61,112,442.57,115.76Zm-3-1.71c-0.21-2.16-1.35-3.54-3.84-3.54a3.92,3.92,0,0,0-4,3.54h7.89Z" transform="translate(-95.21 -70.09)"/><path class="cls-1" d="M468,114.68v8.16h-3.12v-8.31c0-2.49-1-3.69-3.27-3.69a4,4,0,0,0-3.42,1.71v10.29h-3.12v-8.67c0-2.16-1-3.33-3.06-3.33a4.17,4.17,0,0,0-3.63,2.07v9.93h-3.09V108.41H448l0.24,2.31a5.33,5.33,0,0,1,4.8-2.58,4.65,4.65,0,0,1,4.26,2.67,6,6,0,0,1,5-2.67C466,108.14,468,110.33,468,114.68Z" transform="translate(-95.21 -70.09)"/><path class="cls-1" d="M470.53,121.13l1.29-2.49a6.55,6.55,0,0,0,4.95,2c2.25,0,3.57-.63,3.57-2.13s-1.59-1.53-4.11-2c-3-.51-5.16-1.17-5.16-3.75s1.8-4.62,5.82-4.62a10.16,10.16,0,0,1,5.64,1.47l-1.2,2.28a6.59,6.59,0,0,0-4.44-1.29c-2,0-3.09.63-3.09,1.95,0,1.11,1.41,1.26,3.87,1.68s5.34,0.9,5.34,4-2.31,4.8-6.12,4.8A9.93,9.93,0,0,1,470.53,121.13Z" transform="translate(-95.21 -70.09)"/><path class="cls-1" d="M498.82,115.76v0.54h-11c0,2.94,1.71,4.32,4.29,4.32a4.7,4.7,0,0,0,4.26-2.25l1.89,1.92a7.73,7.73,0,0,1-6.33,2.82c-4.26,0-7-2.76-7-6.84v-0.72c0-4,2.76-7.41,7.11-7.41C497.17,108.14,498.85,112,498.82,115.76Zm-3-1.71c-0.21-2.16-1.35-3.54-3.84-3.54a3.92,3.92,0,0,0-4,3.54h7.89Z" transform="translate(-95.21 -70.09)"/><path class="cls-1" d="M504.43,122.84h-3V101.3h3v21.54Z" transform="translate(-95.21 -70.09)"/><path class="cls-1" d="M521.68,108.41L516,122.84h-3.93l-5.58-14.43h3.24l4.29,12.24,4.38-12.24h3.24Z" transform="translate(-95.21 -70.09)"/><path class="cls-1" d="M536.68,115.76v0.54h-11c0,2.94,1.71,4.32,4.29,4.32a4.7,4.7,0,0,0,4.26-2.25l1.89,1.92a7.73,7.73,0,0,1-6.33,2.82c-4.26,0-7-2.76-7-6.84v-0.72c0-4,2.76-7.41,7.11-7.41C535,108.14,536.71,112,536.68,115.76Zm-3-1.71c-0.21-2.16-1.35-3.54-3.84-3.54a3.92,3.92,0,0,0-4,3.54h7.89Z" transform="translate(-95.21 -70.09)"/><path class="cls-1" d="M538.3,121.13l1.29-2.49a6.55,6.55,0,0,0,4.95,2c2.25,0,3.57-.63,3.57-2.13s-1.59-1.53-4.11-2c-3-.51-5.16-1.17-5.16-3.75s1.8-4.62,5.82-4.62a10.16,10.16,0,0,1,5.64,1.47l-1.2,2.28a6.59,6.59,0,0,0-4.44-1.29c-2,0-3.09.63-3.09,1.95,0,1.11,1.41,1.26,3.87,1.68s5.34,0.9,5.34,4-2.31,4.8-6.12,4.8A9.93,9.93,0,0,1,538.3,121.13Z" transform="translate(-95.21 -70.09)"/><path class="cls-1" d="M557.32,122.84h-3.63v-3.66h3.63v3.66Z" transform="translate(-95.21 -70.09)"/></svg>