<svg id="Layer_1" data-name="Layer 1" xmlns="http://www.w3.org/2000/svg" viewBox="0 0 200.19 26.37"><defs><style>.cls-1{fill:#00a766;}</style></defs><title>copy1</title><path class="cls-1" d="M58.13,17.34L52.7,37.59H48.41l-4.2-17.34L40,37.59h-4.2L30.23,17.34H33.5l4.26,17.82,4.5-17.82h4L50.6,35.16l4.26-17.82h3.27Z" transform="translate(-30.23 -16.05)"/><path class="cls-1" d="M72.08,30.51v0.54H61c0,2.94,1.71,4.32,4.29,4.32a4.7,4.7,0,0,0,4.26-2.25L71.48,35a7.73,7.73,0,0,1-6.33,2.82c-4.26,0-7-2.76-7-6.84V30.3c0-4,2.76-7.41,7.11-7.41C70.43,22.89,72.11,26.73,72.08,30.51Zm-3-1.71c-0.21-2.16-1.35-3.54-3.84-3.54a3.92,3.92,0,0,0-4,3.54h7.89Z" transform="translate(-30.23 -16.05)"/><path class="cls-1" d="M76.37,26.37L74,25.71a23.61,23.61,0,0,0,1.74-8.37h2.91A23.81,23.81,0,0,1,76.37,26.37Z" transform="translate(-30.23 -16.05)"/><path class="cls-1" d="M91.79,37.59a10.46,10.46,0,0,1-.36-2,6,6,0,0,1-4.92,2.25,6.4,6.4,0,0,1-6.6-6.75V30.33c0-4.8,3.24-7.44,7.2-7.44a5.66,5.66,0,0,1,4.2,1.74V16.05h3v17.4a18.82,18.82,0,0,0,.27,4.14H91.79Zm-0.48-4.23V27.27a4.49,4.49,0,0,0-4-1.83c-2.79,0-4.32,1.8-4.32,4.89v0.54c0,2.94,1.65,4.38,4.2,4.38A4.54,4.54,0,0,0,91.31,33.36Z" transform="translate(-30.23 -16.05)"/><path class="cls-1" d="M117,25.5l-1.83,2a4.74,4.74,0,0,0-4.23-2c-2.4,0-4.23,1.8-4.23,4.62v0.69c0,2.7,1.38,4.5,4.17,4.5A4.89,4.89,0,0,0,115.19,33L117,35a7.67,7.67,0,0,1-6.3,2.79c-4.38,0-7.08-2.73-7.08-7V30.15a7,7,0,0,1,7.17-7.26A7.39,7.39,0,0,1,117,25.5Z" transform="translate(-30.23 -16.05)"/><path class="cls-1" d="M132.53,30.51v0.54h-11c0,2.94,1.71,4.32,4.29,4.32A4.7,4.7,0,0,0,130,33.12L131.93,35a7.73,7.73,0,0,1-6.33,2.82c-4.26,0-7-2.76-7-6.84V30.3c0-4,2.76-7.41,7.11-7.41C130.88,22.89,132.56,26.73,132.53,30.51Zm-3-1.71c-0.21-2.16-1.35-3.54-3.84-3.54a3.92,3.92,0,0,0-4,3.54h7.89Z" transform="translate(-30.23 -16.05)"/><path class="cls-1" d="M138.14,37.59h-3V16.05h3V37.59Z" transform="translate(-30.23 -16.05)"/><path class="cls-1" d="M154.82,30.51v0.54h-11c0,2.94,1.71,4.32,4.29,4.32a4.7,4.7,0,0,0,4.26-2.25L154.22,35a7.73,7.73,0,0,1-6.33,2.82c-4.26,0-7-2.76-7-6.84V30.3c0-4,2.76-7.41,7.11-7.41C153.17,22.89,154.85,26.73,154.82,30.51Zm-3-1.71c-0.21-2.16-1.35-3.54-3.84-3.54a3.92,3.92,0,0,0-4,3.54h7.89Z" transform="translate(-30.23 -16.05)"/><path class="cls-1" d="M171.8,29.82v0.63c0,4.62-2.82,7.41-6.9,7.41a6.79,6.79,0,0,1-4.68-2L160,37.59h-2.55V16.05h3V24.9a5.72,5.72,0,0,1,4.65-2C169.07,22.89,171.8,25.53,171.8,29.82Zm-3,.15c0-3.12-1.71-4.56-4.29-4.56a4.84,4.84,0,0,0-4,1.86v6.36a5.3,5.3,0,0,0,4.11,1.74c2.73,0,4.2-1.71,4.2-4.8V30Z" transform="translate(-30.23 -16.05)"/><path class="cls-1" d="M183,23.43l-0.51,2.91a2.89,2.89,0,0,0-1.68-.42c-1.62,0-2.73,1.5-3.21,3.33v8.34h-2.94V23.16h2.73l0.18,3.51C178,24.45,179.3,23,181.25,23A3.74,3.74,0,0,1,183,23.43Z" transform="translate(-30.23 -16.05)"/><path class="cls-1" d="M194.6,37.59a12.86,12.86,0,0,1-.3-1.83,5.87,5.87,0,0,1-4.89,2.1c-2.67,0-5.58-1.2-5.58-4.5,0-3.48,2.49-4.8,5.73-4.8a9.92,9.92,0,0,1,4.68,1.11V28.53c0-2.28-1.38-3.12-3.72-3.12A5.66,5.66,0,0,0,186.26,27l-1.35-2.25a9.09,9.09,0,0,1,5.94-1.83c3.57,0,6.18,1.86,6.09,5.88,0,1.59-.06,3.45-0.06,5.1a12.89,12.89,0,0,0,.3,3.72H194.6Zm-0.42-3.78V31.68a9.2,9.2,0,0,0-4-.81c-2.34,0-3.45.63-3.45,2.34s1.44,2.22,3.27,2.22A5.29,5.29,0,0,0,194.18,33.81Z" transform="translate(-30.23 -16.05)"/><path class="cls-1" d="M209.6,36.57a6.72,6.72,0,0,1-4,1.26c-2.43,0-4.08-1.14-4.08-4.35V25.56h-2.76v-2.4h2.76V19.89l2.79-.51v3.78h5.07v2.4h-5.07v7.53c0,1.47.39,2.22,1.8,2.22a3.66,3.66,0,0,0,2.61-1.14Z" transform="translate(-30.23 -16.05)"/><path class="cls-1" d="M224.63,30.51v0.54h-11c0,2.94,1.71,4.32,4.29,4.32a4.7,4.7,0,0,0,4.26-2.25L224,35a7.73,7.73,0,0,1-6.33,2.82c-4.26,0-7-2.76-7-6.84V30.3c0-4,2.76-7.41,7.11-7.41C223,22.89,224.66,26.73,224.63,30.51Zm-3-1.71c-0.21-2.16-1.35-3.54-3.84-3.54a3.92,3.92,0,0,0-4,3.54h7.89Z" transform="translate(-30.23 -16.05)"/><path class="cls-1" d="M228,42.42l-2.49-.72a23.47,23.47,0,0,0,2-8.34h3A22.45,22.45,0,0,1,228,42.42Z" transform="translate(-30.23 -16.05)"/></svg>