<svg id="Layer_1" data-name="Layer 1" xmlns="http://www.w3.org/2000/svg" viewBox="0 0 425.46 68.49"><defs><style>.cls-1{fill:#4e5a65;}.cls-2{fill:#e3d100;}.cls-3{fill:#006533;}.cls-4{fill:#6dc2b1;}</style></defs><title>thrivent_logo</title><path class="cls-1" d="M67.06,39.81H52.2L46.33,67H35l5.87-27.19H26l1.94-9.15H69Z" transform="translate(-25.98 -30.66)"/><path class="cls-1" d="M114.27,30.71l-7.81,36.34H95.11L98,53.59H79.23L76.32,67H65l7.86-36.34H84.18L81.33,43.9h18.79L103,30.71h11.31Z" transform="translate(-25.98 -30.66)"/><path class="cls-1" d="M157.34,41.16a14.24,14.24,0,0,1-.32,3v0.22c-1.24,6.08-5.54,10-12.38,11.36L153.73,67H141.51L134,56.18h-8.56L123.16,67h-10.6l7.86-36.34h23.9C152.6,30.66,157.34,34.8,157.34,41.16Zm-10.87,1.61c0-2.21-2.15-3.18-4.9-3.18H129.08l-1.72,7.91h12.87c3.88,0,5.6-1.18,6.14-3.77V43.53A4.23,4.23,0,0,0,146.47,42.77Z" transform="translate(-25.98 -30.66)"/><path class="cls-1" d="M165.9,30.66h10.87L169,67H158Z" transform="translate(-25.98 -30.66)"/><path class="cls-1" d="M229.37,30.66L204.88,67H189.75L180.6,30.66h12.87l5.33,27.78,16.85-27.78h13.73Z" transform="translate(-25.98 -30.66)"/><path class="cls-1" d="M240.84,39.65l-1,4.68h20.4l-1.88,8.61h-20.4L236.86,58h25.62l-1.94,9H224.26l7.86-36.34h36.28l-1.88,9H240.84Z" transform="translate(-25.98 -30.66)"/><path class="cls-1" d="M314.33,30.66L306.47,67H297L281.54,43.9l-5,23.09H266l7.81-36.34h10l15.07,22.5,4.84-22.5h10.66Z" transform="translate(-25.98 -30.66)"/><path class="cls-1" d="M357,39.81H342.11L336.24,67H324.88l5.87-27.19H315.89l1.94-9.15h41.07Z" transform="translate(-25.98 -30.66)"/><path class="cls-1" d="M61.91,76.37l-5,22.41H54l4.35-19-15,15.17h-1.1L34,79.66,29.7,98.78H26.88l5-22.41h3l8.37,15.31L58.56,76.37h3.35Z" transform="translate(-25.98 -30.66)"/><path class="cls-1" d="M88.67,88.86c-1.49,6.57-5.81,10.29-13.55,10.29-6.51,0-10.53-3.05-10.53-8.23a11.87,11.87,0,0,1,.3-2.56l2.69-12h3.12L67.92,88.59a9.31,9.31,0,0,0-.23,2.06c0,4,3.19,5.91,7.8,5.91,5.51,0,8.9-2.56,10.09-7.84l2.82-12.35H91.5Z" transform="translate(-25.98 -30.66)"/><path class="cls-1" d="M118.36,78.9H107.83l-4.48,19.89h-3l4.48-19.89H94.35l0.53-2.52h24Z" transform="translate(-25.98 -30.66)"/><path class="cls-1" d="M143.36,88.86c-1.49,6.57-5.81,10.29-13.55,10.29-6.51,0-10.53-3.05-10.53-8.23a11.87,11.87,0,0,1,.3-2.56l2.69-12h3.12l-2.79,12.22a9.31,9.31,0,0,0-.23,2.06c0,4,3.19,5.91,7.8,5.91,5.51,0,8.9-2.56,10.09-7.84l2.82-12.35h3.09Z" transform="translate(-25.98 -30.66)"/><path class="cls-1" d="M166.41,92.74H151.17l-4.75,6h-3.29l17.73-22.41h3.32l6.94,22.41h-2.86Zm-0.7-2.36-3.59-11.65L153,90.38h12.68Z" transform="translate(-25.98 -30.66)"/><path class="cls-1" d="M178.29,96.23H195l-0.56,2.56H174.87l5-22.41h2.86Z" transform="translate(-25.98 -30.66)"/><path class="cls-1" d="M215.32,78.9l-1.86,8.17h14.91l-0.56,2.56H212.89l-2.09,9.13h-2.89L213,76.37h20.59L233,78.9h-17.7Z" transform="translate(-25.98 -30.66)"/><path class="cls-1" d="M258.41,88.86c-1.49,6.57-5.81,10.29-13.55,10.29-6.51,0-10.53-3.05-10.53-8.23a11.87,11.87,0,0,1,.3-2.56l2.69-12h3.12l-2.79,12.22a9.31,9.31,0,0,0-.23,2.06c0,4,3.19,5.91,7.8,5.91,5.51,0,8.9-2.56,10.09-7.84l2.82-12.35h3.09Z" transform="translate(-25.98 -30.66)"/><path class="cls-1" d="M291,76.37l-5,22.41h-2.86L269.44,79.56l-4.35,19.22h-2.82l5-22.41h3l13.61,19.06,4.32-19.06H291Z" transform="translate(-25.98 -30.66)"/><path class="cls-1" d="M319.84,85.4a12.77,12.77,0,0,1-.3,2.66l0,0.23c-1.56,7.24-7,10.49-15.31,10.49H292.35l5-22.41h11.09C315.59,76.37,319.84,79.86,319.84,85.4Zm-20.12-6.47-3.92,17.3h8.67c6.51,0,10.89-2.42,12.12-8.2l0-.23a11.25,11.25,0,0,0,.27-2.26c0-4.38-3.22-6.61-8.87-6.61h-8.3Z" transform="translate(-25.98 -30.66)"/><path class="cls-1" d="M320.81,95.9l1.36-2.69c1.79,1.93,5.48,3.39,10.09,3.39,3.45,0,7.3-.6,8.1-3.92a3.92,3.92,0,0,0,.13-1c0-2.52-3.05-2.79-8.6-3.45-4.52-.56-7.57-1.59-7.57-4.75a6.39,6.39,0,0,1,.2-1.49c0.9-3.88,4.65-6,11.22-6A19.24,19.24,0,0,1,345,78.07l-1.29,2.46c-2.32-1.59-5.64-1.93-8.5-1.93-4.35,0-7.07,1.1-7.77,3.55a2.65,2.65,0,0,0-.17.86c0,2.16,3,2.49,7.6,3,4.85,0.53,8.43,1.49,8.43,5.18a7.61,7.61,0,0,1-.13,1.43c-1.1,5.35-6.08,6.54-11.16,6.54C327.55,99.15,323.13,97.66,320.81,95.9Z" transform="translate(-25.98 -30.66)"/><polyline class="cls-2" points="369.38 37.17 425.46 37.17 401.17 0.6 349.51 0.6 369.38 37.17"/><polyline class="cls-3" points="369.33 37.17 333.12 68.15 389.2 68.15 389.25 68.15 425.46 37.17 369.38 37.17"/><polyline class="cls-4" points="369.38 37.17 349.51 0.6 333.12 68.15 369.33 37.17"/><path class="cls-1" d="M365.49,31.65H363.4l-1.18,5.25H361.3l1.18-5.25h-2.09l0.18-.83h5.1Z" transform="translate(-25.98 -30.66)"/><path class="cls-1" d="M372.81,30.82l-1.36,6.08h-0.86l1.06-4.74-2.77,3.32h-0.44l-1.31-3.36-1.07,4.77H365.2l1.35-6.08h0.89l1.4,3.55,3-3.55h1Z" transform="translate(-25.98 -30.66)"/></svg>